<svg xmlns="http://www.w3.org/2000/svg" width="28" height="28" viewBox="0 0 28 28" fill="none">
  <rect width="28" height="28" rx="14" fill="black" fill-opacity="0.24"/>
  <path d="M21.818 20.9099L19.6047 18.6948C20.108 18.1005 20.5167 17.4383 20.822 16.7171C21.2236 15.7658 21.4288 14.7555 21.4288 13.7149C21.4288 12.6743 21.2254 11.664 20.822 10.7127C20.4329 9.79345 19.8777 8.97061 19.1691 8.26199C18.4605 7.55338 17.6377 6.99827 16.7184 6.60916C15.7671 6.20934 14.7568 6.00586 13.7162 6.00586C12.6756 6.00586 11.6653 6.20934 10.714 6.61273C9.79475 7.00184 8.9719 7.55695 8.26329 8.26556C7.55468 8.97418 6.99957 9.79702 6.61046 10.7163C6.20885 11.6658 6.00537 12.6761 6.00537 13.7167C6.00537 14.7573 6.20885 15.7676 6.61224 16.7189C7.00135 17.6382 7.55646 18.461 8.26508 19.1696C8.97369 19.8782 9.79654 20.4333 10.7158 20.8225C11.6671 21.2241 12.6774 21.4293 13.718 21.4293C14.7586 21.4293 15.7689 21.2258 16.7202 20.8225C17.4413 20.5172 18.1035 20.1085 18.6979 19.6051L20.9094 21.8184C21.1593 22.0683 21.5681 22.0683 21.818 21.8184C22.0678 21.5686 22.0678 21.1598 21.818 20.9099ZM13.7162 20.1424C10.1678 20.1424 7.29051 17.2651 7.29051 13.7167C7.29051 10.1683 10.1678 7.291 13.7162 7.291C17.2646 7.291 20.1419 10.1683 20.1419 13.7167C20.1419 17.2651 17.2646 20.1424 13.7162 20.1424Z" fill="white"/>
  <path d="M16.3579 13.0741H14.3588V11.075C14.3588 10.7216 14.0696 10.4325 13.7162 10.4325C13.3628 10.4325 13.0736 10.7216 13.0736 11.075V13.0741H11.0745C10.7211 13.0741 10.432 13.3633 10.432 13.7167C10.432 14.0701 10.7211 14.3593 11.0745 14.3593H13.0736V16.3584C13.0736 16.7118 13.3628 17.001 13.7162 17.001C14.0696 17.001 14.3588 16.7118 14.3588 16.3584V14.3593H16.3579C16.7113 14.3593 17.0005 14.0701 17.0005 13.7167C17.0005 13.3633 16.7113 13.0741 16.3579 13.0741Z" fill="white"/>
</svg>