<svg xmlns="http://www.w3.org/2000/svg" width="16" height="16" viewBox="0 0 16 16" fill="none">
  <path d="M2.16406 4.08435H13.8672C14.2172 4.08435 14.5 3.80154 14.5 3.45154C14.5 3.10154 14.2172 2.81873 13.8672 2.81873H2.16406C1.81406 2.81873 1.53125 3.10154 1.53125 3.45154C1.53125 3.80154 1.81406 4.08435 2.16406 4.08435ZM13.8672 7.34998H2.16406C1.81406 7.34998 1.53125 7.63279 1.53125 7.98279C1.53125 8.33279 1.81406 8.6156 2.16406 8.6156H13.8672C14.2172 8.6156 14.5 8.33279 14.5 7.98279C14.5 7.63279 14.2172 7.34998 13.8672 7.34998ZM13.8672 11.8812H2.16406C1.81406 11.8812 1.53125 12.164 1.53125 12.514C1.53125 12.864 1.81406 13.1469 2.16406 13.1469H13.8672C14.2172 13.1469 14.5 12.864 14.5 12.514C14.5 12.164 14.2172 11.8812 13.8672 11.8812Z" fill="black"/>
</svg>