<svg xmlns="http://www.w3.org/2000/svg" width="16" height="16" viewBox="0 0 16 16" fill="none">
  <path d="M7.00591 13.942H3.58443C2.39463 13.942 1.42706 12.9744 1.42706 11.7846V3.15508C1.42706 1.96526 2.39463 0.997681 3.58443 0.997681H11.3207C12.5105 0.997681 13.4781 1.96526 13.4781 3.15508V7.46982H12.3993V3.15508C12.3993 2.56072 11.9161 2.07639 11.3207 2.07639H3.58443C2.99008 2.07639 2.50576 2.56072 2.50576 3.15508V11.7846C2.50576 12.38 2.99008 12.8633 3.58443 12.8633H7.00591V13.942Z" fill="#4377FE"/>
  <path d="M3.58447 4.23376H11.3207V5.31244H3.58447V4.23376ZM14.5729 14.2397L13.0401 12.7069C13.3141 12.2851 13.4781 11.7835 13.4781 11.2452C13.4781 9.76202 12.2646 8.54852 10.7814 8.54852C9.29815 8.54852 8.08467 9.76203 8.08467 11.2452C8.08467 12.7284 9.29817 13.942 10.7814 13.942C11.338 13.942 11.8557 13.7715 12.2872 13.4792L13.8103 15.0023L14.5729 14.2397ZM10.7814 12.8633C9.8893 12.8633 9.1633 12.1373 9.1633 11.2452C9.1633 10.3532 9.8893 9.6272 10.7814 9.6272C11.6734 9.6272 12.3993 10.3532 12.3993 11.2452C12.3993 12.1373 11.6734 12.8633 10.7814 12.8633ZM3.58447 6.39113H11.3207V7.46983H3.58447V6.39113ZM3.58447 8.54852H7.00594V9.6272H3.58447V8.54852Z" fill="#4377FE"/>
</svg>