<svg xmlns="http://www.w3.org/2000/svg" width="20" height="20" viewBox="0 0 20 20" fill="none">
  <path d="M12.8 2.39844C13.4366 2.39844 14.047 2.65129 14.4971 3.10138C14.9472 3.55147 15.2 4.16192 15.2 4.79844H16.8C17.4366 4.79844 18.047 5.05129 18.4971 5.50138C18.9472 5.95147 19.2 6.56192 19.2 7.19844V15.1984C19.2 15.835 18.9472 16.4454 18.4971 16.8955C18.047 17.3456 17.4366 17.5984 16.8 17.5984H3.20005C2.56353 17.5984 1.95308 17.3456 1.50299 16.8955C1.05291 16.4454 0.800049 15.835 0.800049 15.1984V4.79844C0.800049 4.16192 1.05291 3.55147 1.50299 3.10138C1.95308 2.65129 2.56353 2.39844 3.20005 2.39844H12.8ZM12.8 3.59844H3.20005C2.89396 3.59842 2.59944 3.71537 2.37674 3.92535C2.15405 4.13533 2.02001 4.42248 2.00205 4.72804L2.00005 4.79844H14C14.0001 4.49235 13.8831 4.19783 13.6731 3.97513C13.4632 3.75243 13.176 3.61839 12.8704 3.60044L12.8 3.59844Z" fill="#131415"/>
  <path d="M19.2001 8V12.8H14.0001C13.3636 12.8 12.7531 12.5471 12.303 12.0971C11.853 11.647 11.6001 11.0365 11.6001 10.4C11.6001 9.76348 11.853 9.15303 12.303 8.70294C12.7531 8.25286 13.3636 8 14.0001 8H19.2001ZM14.0001 9.2C13.6818 9.2 13.3766 9.32643 13.1516 9.55147C12.9265 9.77652 12.8001 10.0817 12.8001 10.4C12.8001 10.7183 12.9265 11.0235 13.1516 11.2485C13.3766 11.4736 13.6818 11.6 14.0001 11.6C14.3184 11.6 14.6236 11.4736 14.8486 11.2485C15.0737 11.0235 15.2001 10.7183 15.2001 10.4C15.2001 10.0817 15.0737 9.77652 14.8486 9.55147C14.6236 9.32643 14.3184 9.2 14.0001 9.2Z" fill="white"/>
</svg>