<svg xmlns="http://www.w3.org/2000/svg" width="16" height="16" viewBox="0 0 16 16" fill="none">
  <g clip-path="url(#clip0_173_10406)">
    <path d="M8.80302 0.737375L14.5731 4.87887C14.8523 5.0792 15.0796 5.3431 15.2365 5.64874C15.3934 5.95439 15.4752 6.29299 15.4753 6.63655V13.3151C15.4753 14.5102 14.5065 15.479 13.3114 15.479H10.3606V12.3315C10.3606 11.0279 9.30367 9.97091 8.00002 9.97091C6.69637 9.97091 5.63941 11.0279 5.63941 12.3315V15.479H2.68864C1.49358 15.479 0.52475 14.5102 0.52475 13.3151V6.63674C0.524765 6.29315 0.606596 5.95451 0.763474 5.64883C0.920351 5.34315 1.14776 5.07922 1.4269 4.87887L7.19702 0.737375C7.43107 0.569369 7.71192 0.479004 8.00002 0.479004C8.28813 0.479004 8.56898 0.569369 8.80302 0.737375Z" fill="#666666"/>
  </g>
  <defs>
    <clipPath id="clip0_173_10406">
      <rect width="16" height="16" fill="white"/>
    </clipPath>
  </defs>
</svg>