<svg xmlns="http://www.w3.org/2000/svg" width="16" height="16" viewBox="0 0 16 16" fill="none">
  <path d="M15.8965 7.12522C15.8342 6.77563 15.4992 6.42364 15.1525 6.34429L14.8955 6.28487C14.2858 6.10081 13.7444 5.69331 13.4007 5.09829C13.054 4.49896 12.9751 3.81827 13.1251 3.19505L13.2011 2.95112C13.3053 2.61175 13.1699 2.14434 12.9002 1.91448C12.9002 1.91448 12.6558 1.70807 11.9672 1.3098C11.2788 0.912021 10.9799 0.80339 10.9799 0.80339C10.6458 0.682656 10.1745 0.797586 9.93304 1.05855L9.75189 1.25328C9.28836 1.69149 8.66368 1.95977 7.97712 1.95977C7.28724 1.95977 6.66059 1.68954 6.19658 1.24842L6.02177 1.05949C5.78125 0.799025 5.30941 0.683599 4.97541 0.804398C4.97541 0.804398 4.67648 0.912452 3.9865 1.31073C3.29906 1.70902 3.05609 1.91446 3.05609 1.91446C2.78536 2.14432 2.64953 2.60978 2.75469 2.95061L2.83013 3.197C2.97817 3.81971 2.89832 4.49896 2.55461 5.09784C2.20986 5.69527 1.6631 6.10378 1.05103 6.28582L0.799779 6.34328C0.454621 6.42219 0.119089 6.77467 0.0567629 7.12376C0.0567629 7.12376 0.000305176 7.43782 0.000305176 8.23485C0.000305176 9.03192 0.0567629 9.34453 0.0567629 9.34453C0.119584 9.69507 0.454605 10.0466 0.799779 10.1274L1.04523 10.182C1.65969 10.365 2.20791 10.775 2.55461 11.3749C2.89978 11.9737 2.97869 12.6544 2.82919 13.2777L2.75469 13.5211C2.64953 13.86 2.78536 14.3274 3.05703 14.5572C3.05703 14.5572 3.30002 14.7636 3.98898 15.1619C4.67793 15.5612 4.97592 15.6683 4.97592 15.6683C5.31043 15.7891 5.78075 15.6732 6.02229 15.4141L6.19513 15.2282C6.65915 14.7851 7.28621 14.5154 7.97712 14.5154C8.66758 14.5154 9.29568 14.787 9.76165 15.2282H9.76209L9.93303 15.4141C10.1745 15.6732 10.6439 15.7891 10.9788 15.6683C10.9788 15.6683 11.2768 15.5593 11.9682 15.1619C12.6557 14.7636 12.8991 14.5572 12.8991 14.5572C13.1699 14.3274 13.3043 13.8619 13.2011 13.5211L13.1251 13.2698C12.979 12.6486 13.0589 11.9708 13.4006 11.3749C13.7483 10.774 14.2956 10.366 14.9091 10.182V10.181L15.1545 10.1245C15.5011 10.0456 15.8362 9.69413 15.8985 9.34353C15.8985 9.34353 15.9549 9.02997 15.9549 8.23245C15.953 7.43878 15.8965 7.12522 15.8965 7.12522ZM7.97667 10.8062C6.56123 10.8062 5.41312 9.65515 5.41312 8.23536C5.41312 6.81752 6.56122 5.6675 7.97667 5.6675C9.39205 5.6675 10.5387 6.81802 10.5387 8.23731C10.5387 9.65711 9.39205 10.8062 7.97667 10.8062Z" fill="#666666"/>
</svg>