<svg width="20" height="20" viewBox="0 0 20 20" fill="none" xmlns="http://www.w3.org/2000/svg">
<path d="M16.7585 6.00005H3.63353C3.39186 6.00005 3.2002 5.80838 3.2002 5.56672V5.10838C3.2002 4.86672 3.39186 4.67505 3.63353 4.67505H16.7585C17.0002 4.67505 17.1919 4.86672 17.1919 5.10838V5.56672C17.1919 5.80838 17.0002 6.00005 16.7585 6.00005ZM16.7585 10.6667H3.63353C3.39186 10.6667 3.2002 10.475 3.2002 10.2334V9.77505C3.2002 9.53338 3.39186 9.34172 3.63353 9.34172H16.7585C17.0002 9.34172 17.1919 9.53338 17.1919 9.77505V10.2334C17.1919 10.475 17.0002 10.6667 16.7585 10.6667ZM16.7585 15.3334H3.63353C3.39186 15.3334 3.2002 15.1417 3.2002 14.9V14.4417C3.2002 14.2 3.39186 14.0084 3.63353 14.0084H16.7585C17.0002 14.0084 17.1919 14.2 17.1919 14.4417V14.9C17.1919 15.1417 17.0002 15.3334 16.7585 15.3334Z" fill="#4C4C4C"/>
</svg>
