<svg t="1687104376797" class="icon" viewBox="0 0 1024 1024" version="1.1" xmlns="http://www.w3.org/2000/svg" p-id="16704" width="200" height="200"><path d="M304 192c-42.24 0-79.872 27.52-92 68L168 407.008l-62.016-20.992-19.968 59.968 62.976 21.024-20 68A31.104 31.104 0 0 0 128 544v256c0 17.6 14.4 32 32 32h96l20.992-64h168l318.016 48.992L768 832h96.992c7.744 0 15.264-2.88 21.024-8l0.96-0.992c0.384-0.384 0.768-0.64 1.024-1.024a31.936 31.936 0 0 0 8-20v-2.976a21.376 21.376 0 0 0 0-4L868.992 608H928v-64h-76L784 404.992l28-93.984a32.128 32.128 0 0 0-11.008-35.008l-61.984-46.016a32.544 32.544 0 0 0-16-5.984L305.984 192H304z m0 64l404 31.008 36 27.008-24.992 83.968a31.968 31.968 0 0 0 1.984 24l48 98.016-196-68-4-2.016h-4L231.04 419.04 272.96 279.008c4.16-13.76 16.768-23.008 31.008-23.008z m-92 226.016l344.992 32h2.016l244 85.984 22.976 160.992L455.04 704a33.376 33.376 0 0 0-4.992 0h-37.024l14.016-32 137.984 20L648 704 608 640l-224-32-40 96H192v-154.016zM272 512a48 48 0 1 0 0 96 48 48 0 0 0 0-96z m396 88a57.856 57.856 0 1 0 108.992 39.008z" p-id="16705" fill="#303133"></path></svg>