<svg xmlns="http://www.w3.org/2000/svg" width="30" height="30" viewBox="0 0 30 30" fill="none">
  <path d="M22.9554 19.4193L21.1876 17.6515L22.9554 15.8838C25.3961 13.443 25.3961 9.48572 22.9554 7.04495C20.5146 4.60416 16.5572 4.60416 14.1165 7.04495L12.3487 8.81271L10.581 7.04495L12.3487 5.27717C15.7659 1.86008 21.306 1.86008 24.7231 5.27717C28.1402 8.69426 28.1402 14.2344 24.7231 17.6515L22.9554 19.4193ZM19.4197 22.9549L17.652 24.7226C14.235 28.1396 8.69475 28.1396 5.27766 24.7226C1.86057 21.3055 1.86057 15.7653 5.27766 12.3482L7.04542 10.5805L8.8132 12.3482L7.04542 14.116C4.60465 16.5568 4.60465 20.514 7.04542 22.9549C9.4862 25.3956 13.4435 25.3956 15.8842 22.9549L17.652 21.187L19.4197 22.9549ZM18.5359 9.6966L20.3037 11.4644L11.4648 20.3031L9.69707 18.5354L18.5359 9.6966Z" fill="#4377FE"/>
</svg>