<svg t="1686987563571" class="icon" viewBox="0 0 1024 1024" version="1.1" xmlns="http://www.w3.org/2000/svg" p-id="9724" width="200" height="200"><path d="M803.84 235.52H225.28c-11.3152 0-20.48 9.1648-20.48 20.48s9.1648 20.48 20.48 20.48h578.56c11.3152 0 20.48-9.1648 20.48-20.48s-9.1648-20.48-20.48-20.48zM803.84 389.12H225.28c-11.3152 0-20.48 9.1648-20.48 20.48s9.1648 20.48 20.48 20.48h578.56c11.3152 0 20.48-9.1648 20.48-20.48s-9.1648-20.48-20.48-20.48zM496.64 542.72H225.28c-11.3152 0-20.48 9.1648-20.48 20.48s9.1648 20.48 20.48 20.48h271.36c11.3152 0 20.48-9.1648 20.48-20.48s-9.1648-20.48-20.48-20.48z" fill="#303133" p-id="9725"></path><path d="M875.52 87.04H148.48c-33.9456 0-61.44 27.4944-61.44 61.44v727.04c0 33.9456 27.4944 61.44 61.44 61.44h348.16c11.3152 0 20.48-9.1648 20.48-20.48s-9.1648-20.48-20.48-20.48H148.48c-11.3152 0-20.48-9.1648-20.48-20.48V148.48c0-11.3152 9.1648-20.48 20.48-20.48h727.04c11.3152 0 20.48 9.1648 20.48 20.48v312.32c0 11.3152 9.1648 20.48 20.48 20.48s20.48-9.1648 20.48-20.48V148.48c0-33.9456-27.4944-61.44-61.44-61.44z" fill="#303133" p-id="9726"></path><path d="M929.28 782.7456a20.52096 20.52096 0 0 0-28.9792 0L814.08 868.9664V619.52c0-11.3152-9.1648-20.48-20.48-20.48s-20.48 9.1648-20.48 20.48v249.4464l-86.2208-86.2208a20.52096 20.52096 0 0 0-28.9792 0 20.52096 20.52096 0 0 0 0 28.9792l119.5008 119.5008c4.4032 4.4032 10.3936 6.2976 16.1792 5.8368 5.7856 0.4608 11.7248-1.4336 16.1792-5.8368l119.5008-119.5008a20.52096 20.52096 0 0 0 0-28.9792z" fill="#303133" p-id="9727"></path></svg>