<svg xmlns="http://www.w3.org/2000/svg" width="16" height="16" viewBox="0 0 16 16" fill="none">
  <path d="M9.30992 9.7886C9.30992 9.61576 9.37858 9.45 9.5008 9.32778C9.62302 9.20556 9.78878 9.1369 9.96162 9.1369H14.7864C14.9592 9.1369 15.125 9.20556 15.2472 9.32778C15.3694 9.45 15.4381 9.61576 15.4381 9.7886C15.4381 9.96144 15.3694 10.1272 15.2472 10.2494C15.125 10.3716 14.9592 10.4403 14.7864 10.4403H9.96162C9.78878 10.4403 9.62302 10.3716 9.5008 10.2494C9.37858 10.1272 9.30992 9.96144 9.30992 9.7886Z" fill="black"/>
  <path d="M2.23896 2.87187C2.12373 2.87187 2.01322 2.91765 1.93174 2.99913C1.85026 3.0806 1.80449 3.19111 1.80449 3.30634V12.8092C1.80449 13.0493 2 13.2437 2.23896 13.2437H13.7621C13.8774 13.2437 13.9879 13.1979 14.0693 13.1165C14.1508 13.035 14.1966 12.9245 14.1966 12.8092V11.9512C14.1966 11.7783 14.2653 11.6126 14.3875 11.4903C14.5097 11.3681 14.6755 11.2995 14.8483 11.2995C15.0211 11.2995 15.1869 11.3681 15.3091 11.4903C15.4313 11.6126 15.5 11.7783 15.5 11.9512V12.8092C15.5 13.2701 15.3169 13.7122 14.991 14.0381C14.6651 14.364 14.223 14.5471 13.7621 14.5471H2.23787C2.00965 14.5471 1.78366 14.5022 1.57282 14.4148C1.36197 14.3275 1.17039 14.1995 1.00901 14.0381C0.847634 13.8767 0.719624 13.6851 0.632288 13.4743C0.544951 13.2634 0.5 13.0375 0.5 12.8092V3.30525C0.5 3.07703 0.544951 2.85105 0.632288 2.6402C0.719624 2.42935 0.847634 2.23777 1.00901 2.07639C1.17039 1.91502 1.36197 1.78701 1.57282 1.69967C1.78366 1.61233 2.00965 1.56738 2.23787 1.56738H13.7621C13.9903 1.56738 14.2163 1.61233 14.4272 1.69967C14.638 1.78701 14.8296 1.91502 14.991 2.07639C15.1524 2.23777 15.2804 2.42935 15.3677 2.6402C15.455 2.85105 15.5 3.07703 15.5 3.30525V7.63907C15.5 7.81191 15.4313 7.97768 15.3091 8.09989C15.1869 8.22211 15.0211 8.29077 14.8483 8.29077C14.6755 8.29077 14.5097 8.22211 14.3875 8.09989C14.2653 7.97768 14.1966 7.81191 14.1966 7.63907V3.30525C14.1966 3.19003 14.1508 3.07952 14.0693 2.99804C13.9879 2.91656 13.8774 2.87079 13.7621 2.87079H2.23787L2.23896 2.87187Z" fill="black"/>
  <path d="M12.0655 7.47071C12.192 7.5882 12.2666 7.75105 12.2732 7.92352C12.2797 8.09599 12.2175 8.26401 12.1003 8.3907L10.8469 9.74081L12.0851 10.991C12.146 11.0516 12.1944 11.1237 12.2274 11.2031C12.2604 11.2824 12.2774 11.3676 12.2773 11.4535C12.2772 11.5395 12.2602 11.6246 12.2271 11.704C12.194 11.7833 12.1456 11.8553 12.0845 11.9159C12.0235 11.9764 11.9511 12.0243 11.8714 12.0567C11.7918 12.0891 11.7066 12.1055 11.6206 12.1048C11.5347 12.1042 11.4497 12.0865 11.3706 12.0529C11.2914 12.0192 11.2198 11.9703 11.1597 11.9088L9.48045 10.2144C9.36203 10.0948 9.29444 9.93415 9.29181 9.76592C9.28918 9.59768 9.35171 9.43495 9.46633 9.31177L11.1455 7.50439C11.2037 7.44162 11.2737 7.39093 11.3515 7.35521C11.4293 7.3195 11.5134 7.29945 11.5989 7.29622C11.6844 7.293 11.7697 7.30665 11.85 7.3364C11.9303 7.36615 12.0039 7.41143 12.0666 7.46963L12.0655 7.47071ZM3.06336 5.28751C3.06336 5.20193 3.08022 5.11719 3.11297 5.03812C3.14572 4.95905 3.19372 4.88721 3.25424 4.82669C3.31476 4.76617 3.3866 4.71817 3.46567 4.68542C3.54473 4.65267 3.62948 4.63581 3.71506 4.63581H12.4098C12.5827 4.63581 12.7485 4.70447 12.8707 4.82669C12.9929 4.94891 13.0616 5.11467 13.0616 5.28751C13.0616 5.46036 12.9929 5.62612 12.8707 5.74834C12.7485 5.87055 12.5827 5.93922 12.4098 5.93922H3.71506C3.54222 5.93922 3.37646 5.87055 3.25424 5.74834C3.13202 5.62612 3.06336 5.46036 3.06336 5.28751ZM3.06336 10.3751C3.06336 10.2023 3.13202 10.0365 3.25424 9.91431C3.37646 9.79209 3.54222 9.72343 3.71506 9.72343H6.78784C6.87342 9.72343 6.95816 9.74029 7.03723 9.77304C7.1163 9.80579 7.18814 9.85379 7.24866 9.91431C7.30918 9.97482 7.35718 10.0467 7.38993 10.1257C7.42268 10.2048 7.43954 10.2895 7.43954 10.3751C7.43954 10.4607 7.42268 10.5455 7.38993 10.6245C7.35718 10.7036 7.30918 10.7754 7.24866 10.836C7.18814 10.8965 7.1163 10.9445 7.03723 10.9772C6.95816 11.01 6.87342 11.0268 6.78784 11.0268H3.71506C3.54222 11.0268 3.37646 10.9582 3.25424 10.836C3.13202 10.7137 3.06336 10.548 3.06336 10.3751ZM3.06336 8.47542C3.06336 8.38984 3.08022 8.30509 3.11297 8.22603C3.14572 8.14696 3.19372 8.07512 3.25424 8.0146C3.31476 7.95408 3.3866 7.90608 3.46567 7.87333C3.54473 7.84058 3.62948 7.82372 3.71506 7.82372H6.78784C6.96068 7.82372 7.12644 7.89238 7.24866 8.0146C7.37088 8.13682 7.43954 8.30258 7.43954 8.47542C7.43954 8.64826 7.37088 8.81403 7.24866 8.93624C7.12644 9.05846 6.96068 9.12712 6.78784 9.12712H3.71506C3.54222 9.12712 3.37646 9.05846 3.25424 8.93624C3.13202 8.81403 3.06336 8.64826 3.06336 8.47542Z" fill="black"/>
</svg>