<?xml version="1.0" standalone="no"?><!DOCTYPE svg PUBLIC "-//W3C//DTD SVG 1.1//EN" "http://www.w3.org/Graphics/SVG/1.1/DTD/svg11.dtd"><svg t="1691077075649" class="icon" viewBox="0 0 1024 1024" version="1.1" xmlns="http://www.w3.org/2000/svg" p-id="4970" xmlns:xlink="http://www.w3.org/1999/xlink" width="200" height="200"><path d="M167.232751 1023.829267A110.122826 110.122826 0 0 1 56.996103 913.763352v-660.167843a110.122826 110.122826 0 0 1 110.236648-110.065914h551.126326a110.179737 110.179737 0 0 1 110.236648 110.065914v660.167843a110.179737 110.179737 0 0 1-110.236648 110.065915zM139.687816 253.367865v660.167843a27.544934 27.544934 0 0 0 27.544935 27.544934h551.126326a27.544934 27.544934 0 0 0 27.544935-27.544934v-660.167843a27.544934 27.544934 0 0 0-27.544935-27.488023H167.232751a27.544934 27.544934 0 0 0-27.601846 27.658756z m741.436781 474.068805V142.67593a56.911021 56.911021 0 0 0-56.911021-56.911021H347.526865a42.797088 42.797088 0 0 1 0-85.366532h505.426777a113.822042 113.822042 0 0 1 113.822042 114.163508V727.891958a42.683266 42.683266 0 1 1-85.366532 0z m-512.199188 11.040738a28.45551 28.45551 0 1 1 0-56.911021h113.822042a28.45551 28.45551 0 1 1 0 56.911021z m-141.992998-28.455511a28.45551 28.45551 0 1 1 28.455511 28.455511 28.45551 28.45551 0 0 1-28.455511-28.227867z m0-169.594842a28.45551 28.45551 0 1 1 28.455511 28.45551 28.45551 28.45551 0 0 1-28.455511-28.227866z m142.619019 28.45551a28.45551 28.45551 0 1 1 0-56.911021h284.896571a28.45551 28.45551 0 1 1 0 56.911021zM226.932411 368.783416a28.45551 28.45551 0 1 1 28.455511 28.45551 28.45551 28.45551 0 0 1-28.455511-28.45551z m142.619019 28.45551a28.45551 28.45551 0 1 1 0-56.911021h284.896571a28.45551 28.45551 0 1 1 0 56.911021z" fill="#666666" p-id="4971"></path></svg>