<?xml version="1.0" standalone="no"?><!DOCTYPE svg PUBLIC "-//W3C//DTD SVG 1.1//EN" "http://www.w3.org/Graphics/SVG/1.1/DTD/svg11.dtd"><svg t="1691076762239" class="icon" viewBox="0 0 1024 1024" version="1.1" xmlns="http://www.w3.org/2000/svg" p-id="2590" xmlns:xlink="http://www.w3.org/1999/xlink" width="200" height="200"><path d="M643.3 423.4c-3.2-3.9-3.5-8.5-2.8-13.3 1.4-9.3 2.4-18.5 2.9-28 1-19.7 1-40.1-2.3-59.5-0.5-3.9-1.3-7.8-2.3-11.6-3.3-12.7-8.7-25.2-17-35.3 0 0-34.8-40.1-140.6-48.4-14.1-1.1-28.3-0.5-42.5 0.3-6.2 0.3-16.6 0.6-17.8 6.9-1.3 6.9 5.1 11.7 3.2 18.2-0.5 1.8-1.4 3.4-2.3 4.9-3.3 5.5-8.1 10-12.8 14.1 0 0-10.2 9.3-17.9 23.3l221.6 221.6c8-9.6 15.5-17.7 20.6-25.3 16.2-24.1 17.6-51.9 17.6-51.9 0-2.1-0.1-4.3-0.7-6.2-1.2-4.2-4.2-6.5-6.9-9.8zM390.6 491.4c16.2 24.1 56.3 53.7 61.7 116.8 2.5 29.5-0.9 32.4-0.9 32.4-6.3 25.5-96.3 38-96.3 38-58.5 10.5-86.5 36-99.8 59.2 4.8 5.5 9.8 10.8 15 16 16.3 16.3 34.1 30.8 53.1 43.4H542l22.1-0.2h137L384.2 480.3c1.8 3.7 3.9 7.5 6.4 11.1z" p-id="2591"></path><path d="M512 64C264.6 64 64 264.6 64 512s200.6 448 448 448 448-200.6 448-448S759.4 64 512 64z m0 820c-90.9 0-174.1-32.6-238.8-86.8-10.3-8.6-20-17.7-29.3-27.4C179.6 703 140 612.1 140 512c0-89 31.3-170.8 83.5-234.8l152.7 152.7 194.6 194.6 41.4 41.4 131.3 131.3 3.3 3.3C682.8 852.7 601 884 512 884z m288.5-137.2L594.7 541 382.1 328.4 277.2 223.5C341.2 171.3 423 140 512 140c205.4 0 372 166.6 372 372 0 89-31.3 170.8-83.5 234.8z" p-id="2592"></path></svg>