<svg xmlns="http://www.w3.org/2000/svg" width="16" height="16" viewBox="0 0 16 16" fill="none">
  <g clip-path="url(#clip0_257_6965)">
    <path d="M8.3083 0.81318C8.74521 0.532717 9.27494 0.435445 9.78298 0.542388C10.291 0.64933 10.7366 0.951897 11.0234 1.38469L13.7834 5.53978C14.2595 5.60476 14.6958 5.84016 15.0115 6.20234C15.3272 6.56451 15.5008 7.02888 15.5002 7.50933V13.5125C15.5007 13.773 15.4499 14.031 15.3506 14.2719C15.2514 14.5128 15.1057 14.7317 14.9218 14.9163C14.738 15.1009 14.5195 15.2474 14.279 15.3476C14.0386 15.4477 13.7807 15.4995 13.5202 15.5H5.32249C5.06191 15.4996 4.80396 15.4479 4.56338 15.3478C4.32279 15.2477 4.10429 15.1011 3.92035 14.9166C3.7364 14.732 3.59062 14.513 3.49134 14.2721C3.39205 14.0312 3.3412 13.773 3.3417 13.5125V12.5059L0.754139 7.89033C0.506273 7.44812 0.436398 6.92802 0.558759 6.43607C0.68112 5.94411 0.986505 5.51735 1.41265 5.24278L8.3083 0.81318ZM3.34244 10.2949V7.50933C3.34195 7.24881 3.39278 6.99075 3.49202 6.74988C3.59126 6.509 3.73697 6.29003 3.92083 6.10547C4.1047 5.92091 4.32311 5.77437 4.56361 5.67422C4.8041 5.57407 5.06197 5.52227 5.32249 5.52178H12.4746L10.1256 1.98621C9.99517 1.78966 9.79269 1.65229 9.56186 1.60374C9.33103 1.55519 9.09036 1.59935 8.89182 1.7267L1.99542 6.1548C1.80153 6.27952 1.66254 6.47352 1.60679 6.69722C1.55104 6.92091 1.58274 7.15745 1.69541 7.35857L3.34244 10.2949ZM5.32249 6.60631C4.82523 6.60631 4.42247 7.01057 4.42247 7.50933V13.5125C4.42247 14.0112 4.82523 14.4162 5.32249 14.4162H13.5202C14.0174 14.4162 14.4202 14.0112 14.4202 13.5125V7.50933C14.4202 7.01057 14.0174 6.60631 13.5202 6.60631H5.32249ZM11.0129 8.41535C11.077 8.54389 11.0877 8.69263 11.0424 8.82899C10.9971 8.96535 10.8997 9.07822 10.7714 9.14286L7.07828 10.9954C7.01482 11.0272 6.94571 11.0461 6.87492 11.0512C6.80412 11.0562 6.73303 11.0472 6.66572 11.0247C6.59841 11.0022 6.53621 10.9666 6.48267 10.92C6.42914 10.8734 6.38533 10.8167 6.35376 10.7531C6.28958 10.6246 6.27896 10.4759 6.32422 10.3395C6.36949 10.2031 6.46695 10.0903 6.59527 10.0256L10.2883 8.17309C10.3518 8.1413 10.4209 8.12235 10.4917 8.11732C10.5625 8.1123 10.6336 8.12129 10.7009 8.1438C10.7682 8.16631 10.8304 8.20188 10.8839 8.24848C10.9375 8.29507 10.9813 8.35178 11.0129 8.41535ZM12.4791 10.2476C12.5488 10.3733 12.5658 10.5215 12.5265 10.6597C12.4871 10.7978 12.3946 10.9148 12.2691 10.9849L8.94507 12.8374C8.88309 12.872 8.81491 12.8939 8.74443 12.9021C8.67395 12.9102 8.60256 12.9043 8.53435 12.8848C8.46614 12.8653 8.40245 12.8325 8.34693 12.7884C8.29141 12.7442 8.24515 12.6895 8.2108 12.6274C8.14114 12.5018 8.12413 12.3536 8.16349 12.2154C8.20285 12.0772 8.29538 11.9603 8.4208 11.8902L11.7441 10.0376C11.8061 10.003 11.8744 9.98094 11.9449 9.97275C12.0155 9.96455 12.087 9.97038 12.1553 9.9899C12.2236 10.0094 12.2873 10.0422 12.3429 10.0865C12.3985 10.1307 12.4448 10.1855 12.4791 10.2476Z" fill="black"/>
  </g>
  <defs>
    <clipPath id="clip0_257_6965">
      <rect width="16" height="16" fill="white"/>
    </clipPath>
  </defs>
</svg>