<svg xmlns="http://www.w3.org/2000/svg" width="16" height="16" viewBox="0 0 16 16" fill="none">
  <g clip-path="url(#clip0_257_6958)">
    <path d="M8 0.5C6.51664 0.5 5.06659 0.939867 3.83323 1.76398C2.59986 2.58809 1.63856 3.75943 1.07091 5.12987C0.50325 6.50032 0.354725 8.00832 0.644114 9.46317C0.933503 10.918 1.64781 12.2544 2.6967 13.3033C3.7456 14.3522 5.08197 15.0665 6.53682 15.3559C7.99168 15.6453 9.49968 15.4967 10.8701 14.9291C12.2406 14.3614 13.4119 13.4001 14.236 12.1668C15.0601 10.9334 15.5 9.48336 15.5 8C15.5 6.01087 14.7098 4.10322 13.3033 2.6967C11.8968 1.29018 9.98913 0.5 8 0.5ZM8 14.375C6.73915 14.375 5.50661 14.0011 4.45824 13.3006C3.40988 12.6001 2.59278 11.6045 2.11027 10.4396C1.62776 9.27473 1.50152 7.99293 1.7475 6.7563C1.99348 5.51967 2.60064 4.38375 3.4922 3.49219C4.38376 2.60063 5.51967 1.99347 6.7563 1.74749C7.99293 1.50151 9.27473 1.62776 10.4396 2.11027C11.6045 2.59278 12.6001 3.40988 13.3006 4.45824C14.0011 5.5066 14.375 6.73914 14.375 8C14.373 9.69014 13.7007 11.3105 12.5056 12.5056C11.3105 13.7007 9.69015 14.373 8 14.375Z" fill="black"/>
    <path d="M11.2249 7.50465C11.1785 7.45072 11.1209 7.40744 11.0562 7.37778C10.9915 7.34811 10.9211 7.33276 10.8499 7.33276C10.7788 7.33276 10.7084 7.34811 10.6437 7.37778C10.579 7.40744 10.5214 7.45072 10.4749 7.50465L8.50994 9.57465V5.14965C8.50994 5.01439 8.45621 4.88467 8.36057 4.78902C8.26493 4.69338 8.1352 4.63965 7.99994 4.63965C7.86468 4.63965 7.73496 4.69338 7.63932 4.78902C7.54368 4.88467 7.48994 5.01439 7.48994 5.14965V9.57465L5.48745 7.50465C5.44098 7.45072 5.38342 7.40744 5.3187 7.37778C5.25399 7.34811 5.18364 7.33276 5.11245 7.33276C5.04125 7.33276 4.9709 7.34811 4.90619 7.37778C4.84147 7.40744 4.78391 7.45072 4.73745 7.50465C4.63852 7.60438 4.58301 7.73917 4.58301 7.87965C4.58301 8.02013 4.63852 8.15491 4.73745 8.25465L7.60244 11.2171C7.64819 11.2722 7.70551 11.3165 7.77032 11.347C7.83513 11.3774 7.90585 11.3931 7.97744 11.3931C8.04904 11.3931 8.11976 11.3774 8.18457 11.347C8.24938 11.3165 8.3067 11.2722 8.35244 11.2171L11.2174 8.25465C11.3174 8.15591 11.3742 8.02167 11.3756 7.88119C11.377 7.74071 11.3229 7.60537 11.2249 7.50465Z" fill="black"/>
  </g>
  <defs>
    <clipPath id="clip0_257_6958">
      <rect width="16" height="16" fill="white"/>
    </clipPath>
  </defs>
</svg>