<svg xmlns="http://www.w3.org/2000/svg" width="16" height="16" viewBox="0 0 16 16" fill="none">
  <g clip-path="url(#clip0_159_5831)">
    <path d="M7.99666 1.68264C4.613 1.68264 1.8699 4.42574 1.8699 7.8094C1.8699 11.1931 4.613 13.9362 7.99666 13.9362C8.16476 13.9362 8.32597 14.0029 8.44483 14.1218C8.56369 14.2407 8.63047 14.4019 8.63047 14.57C8.63047 14.7381 8.56369 14.8993 8.44483 15.0181C8.32597 15.137 8.16476 15.2038 7.99666 15.2038C3.91286 15.2038 0.602295 11.8932 0.602295 7.8094C0.602295 3.7256 3.91286 0.415039 7.99666 0.415039C12.0805 0.415039 15.391 3.7256 15.391 7.8094C15.391 7.9775 15.3243 8.13871 15.2054 8.25757C15.0865 8.37643 14.9253 8.44321 14.7572 8.44321C14.5891 8.44321 14.4279 8.37643 14.3091 8.25757C14.1902 8.13871 14.1234 7.9775 14.1234 7.8094C14.1234 4.42574 11.3803 1.68264 7.99666 1.68264Z" fill="black"/>
    <path d="M10.3206 11.1897C10.3206 11.0216 10.3874 10.8604 10.5062 10.7415C10.6251 10.6227 10.7863 10.5559 10.9544 10.5559H13.7009C13.869 10.5559 14.0302 10.6227 14.1491 10.7415C14.2679 10.8604 14.3347 11.0216 14.3347 11.1897C14.3347 11.3578 14.2679 11.519 14.1491 11.6379C14.0302 11.7567 13.869 11.8235 13.7009 11.8235H10.9544C10.7863 11.8235 10.6251 11.7567 10.5062 11.6379C10.3874 11.519 10.3206 11.3578 10.3206 11.1897ZM10.3206 13.7249C10.3206 13.5568 10.3874 13.3956 10.5062 13.2767C10.6251 13.1579 10.7863 13.0911 10.9544 13.0911H14.9685C15.1366 13.0911 15.2978 13.1579 15.4167 13.2767C15.5355 13.3956 15.6023 13.5568 15.6023 13.7249C15.6023 13.893 15.5355 14.0542 15.4167 14.1731C15.2978 14.2919 15.1366 14.3587 14.9685 14.3587H10.9544C10.7863 14.3587 10.6251 14.2919 10.5062 14.1731C10.3874 14.0542 10.3206 13.893 10.3206 13.7249ZM7.54877 5.24884C7.66761 5.13015 7.8287 5.06348 7.99666 5.06348C8.16462 5.06348 8.32571 5.13015 8.44455 5.24884L10.5572 7.36152C10.6759 7.48036 10.7426 7.64145 10.7426 7.80941C10.7426 7.97736 10.6759 8.13845 10.5572 8.25729L8.44455 10.37C8.32571 10.4887 8.16462 10.5553 7.99666 10.5553C7.8287 10.5553 7.66761 10.4887 7.54877 10.37L5.4361 8.25729C5.31741 8.13845 5.25074 7.97736 5.25074 7.80941C5.25074 7.64145 5.31741 7.48036 5.4361 7.36152L7.54877 5.24884ZM6.77976 7.80941L7.99666 9.02546L9.21272 7.80941L7.99666 6.5925L6.77976 7.80941Z" fill="black"/>
  </g>
  <defs>
    <clipPath id="clip0_159_5831">
      <rect width="16" height="16" fill="white"/>
    </clipPath>
  </defs>
</svg>