<svg xmlns="http://www.w3.org/2000/svg" width="16" height="16" viewBox="0 0 16 16" fill="none">
  <path d="M5.08407 4.49414C4.76191 4.49414 4.50073 4.75531 4.50073 5.07748V8.57748C4.50073 8.89964 4.76191 9.16082 5.08407 9.16082C5.40623 9.16082 5.6674 8.89964 5.6674 8.57748V5.07748C5.6674 4.75531 5.40623 4.49414 5.08407 4.49414ZM10.9174 4.49417C10.5952 4.49417 10.3341 4.75533 10.3341 5.0775V7.99413C10.3341 8.3163 10.5952 8.57748 10.9174 8.57748C11.2396 8.57748 11.5007 8.3163 11.5007 7.99413V5.0775C11.5007 4.75533 11.2396 4.49417 10.9174 4.49417ZM7.4174 6.24415C7.4174 5.92198 7.67857 5.66081 8.00074 5.66081C8.32291 5.66081 8.58407 5.92198 8.58407 6.24415V7.99415C8.58407 8.31632 8.32291 8.57748 8.00074 8.57748C7.67857 8.57748 7.4174 8.31632 7.4174 7.99415V6.24415Z" fill="black"/>
  <path d="M3.33406 1.57812H12.6674C13.9561 1.57812 15.0007 2.6228 15.0007 3.91146V7.4163C15.0007 7.73847 14.7396 7.99963 14.4174 7.99963C14.0952 7.99963 13.8341 7.73847 13.8341 7.4163V3.91146C13.8341 3.26713 13.3117 2.74479 12.6674 2.74479H3.33406C2.68973 2.74479 2.16739 3.26713 2.16739 3.91146V10.3281C2.16739 10.9725 2.68973 11.4948 3.33406 11.4948H9.41667C9.73884 11.4948 10 11.756 10 12.0781C10 12.4003 9.73884 12.6615 9.41667 12.6615H5.75764L4.6361 14.604C4.47501 14.883 4.11825 14.9786 3.83924 14.8176C3.56023 14.6565 3.46464 14.2997 3.62573 14.0207L4.41049 12.6615H3.33406C2.0454 12.6615 1.00073 11.6168 1.00073 10.3281V3.91146C1.00073 2.6228 2.0454 1.57812 3.33406 1.57812Z" fill="black"/>
  <path d="M10.75 14.3118L10.75 14.3119C10.7502 14.408 10.7884 14.5001 10.8563 14.5681C10.9243 14.636 11.0164 14.6742 11.1125 14.6743H11.1126H11.1134C11.1289 14.6743 11.1558 14.6743 11.1833 14.6697C11.2079 14.6656 11.2402 14.6568 11.2659 14.6347L13.1659 13.7004L13.1732 13.6968L13.1789 13.691C13.1835 13.6865 13.1944 13.681 13.2143 13.6777C13.2331 13.6746 13.2527 13.6746 13.2686 13.6746C13.2847 13.6746 13.3043 13.6746 13.3231 13.6778C13.3431 13.681 13.354 13.6865 13.3586 13.691L13.3644 13.6968L13.3717 13.7004L15.2777 14.6379L15.2775 14.6383L15.284 14.6405C15.385 14.6742 15.4532 14.6743 15.4872 14.6743C15.5833 14.6743 15.6756 14.6362 15.7436 14.5682C15.8117 14.5002 15.8499 14.408 15.85 14.3119V14.3118V9.62504C15.85 9.2536 15.5464 8.95 15.1747 8.95H11.4251C11.0537 8.95 10.75 9.25362 10.75 9.62504L10.75 14.3118ZM12.8409 13.1513L11.3352 13.8882V9.51861H15.2649V13.8882L13.7585 13.1511L13.758 13.1509C13.615 13.0827 13.4587 13.0467 13.3003 13.0455H13.2999C13.1589 13.0455 12.9831 13.0802 12.8411 13.1512C12.841 13.1512 12.841 13.1513 12.8409 13.1513ZM12.6749 12.4874H13.925C14.0305 12.4874 14.1221 12.4514 14.1873 12.385C14.2525 12.3187 14.2875 12.226 14.2875 12.1196C14.2875 12.0132 14.2524 11.9205 14.1872 11.8542C14.1219 11.7878 14.0303 11.7518 13.925 11.7518H12.6753C12.5698 11.7518 12.4781 11.7878 12.4128 11.8542C12.3475 11.9205 12.3124 12.0132 12.3124 12.1196C12.3124 12.226 12.3475 12.3187 12.4127 12.385C12.478 12.4514 12.5696 12.4874 12.6749 12.4874ZM12.6753 11.2479H13.9247C14.0301 11.2479 14.1218 11.212 14.1873 11.1457C14.2526 11.0794 14.2879 10.9867 14.2879 10.8801C14.2879 10.7737 14.2527 10.681 14.1875 10.6147C14.1223 10.5483 14.0307 10.5123 13.9254 10.5123H12.6756C12.5701 10.5123 12.4785 10.5483 12.4132 10.6146C12.3479 10.681 12.3128 10.7737 12.3128 10.8801C12.3128 10.9866 12.3479 11.0793 12.4131 11.1456C12.4784 11.212 12.57 11.2479 12.6753 11.2479Z" fill="black" stroke="black" stroke-width="0.1"/>
</svg>