<svg xmlns="http://www.w3.org/2000/svg" width="16" height="16" viewBox="0 0 16 16" fill="none">
  <path d="M12.5 0.5H3.5C2.96957 0.5 2.46086 0.710714 2.08579 1.08579C1.71071 1.46086 1.5 1.96957 1.5 2.5V13.5C1.5 14.0304 1.71071 14.5391 2.08579 14.9142C2.46086 15.2893 2.96957 15.5 3.5 15.5H12.5C13.0304 15.5 13.5391 15.2893 13.9142 14.9142C14.2893 14.5391 14.5 14.0304 14.5 13.5V2.5C14.5 1.96957 14.2893 1.46086 13.9142 1.08579C13.5391 0.710714 13.0304 0.5 12.5 0.5ZM13.5 13.5C13.5 13.7652 13.3946 14.0196 13.2071 14.2071C13.0196 14.3946 12.7652 14.5 12.5 14.5H3.5C3.23478 14.5 2.98043 14.3946 2.79289 14.2071C2.60536 14.0196 2.5 13.7652 2.5 13.5V2.5C2.5 2.23478 2.60536 1.98043 2.79289 1.79289C2.98043 1.60536 3.23478 1.5 3.5 1.5H12.5C12.7652 1.5 13.0196 1.60536 13.2071 1.79289C13.3946 1.98043 13.5 2.23478 13.5 2.5V13.5Z" fill="black"/>
  <path d="M11.5 11.4999H4.49995C4.36735 11.4999 4.24017 11.5526 4.1464 11.6464C4.05263 11.7401 3.99995 11.8673 3.99995 11.9999C3.99995 12.1325 4.05263 12.2597 4.1464 12.3535C4.24017 12.4472 4.36735 12.4999 4.49995 12.4999H11.5C11.6326 12.4999 11.7597 12.4472 11.8535 12.3535C11.9473 12.2597 12 12.1325 12 11.9999C12 11.8673 11.9473 11.7401 11.8535 11.6464C11.7597 11.5526 11.6326 11.4999 11.5 11.4999ZM11.5 8.99992H4.49995C4.36735 8.99992 4.24017 9.0526 4.1464 9.14637C4.05263 9.24014 3.99995 9.36732 3.99995 9.49992C3.99995 9.63253 4.05263 9.75971 4.1464 9.85348C4.24017 9.94725 4.36735 9.99992 4.49995 9.99992H11.5C11.6326 9.99992 11.7597 9.94725 11.8535 9.85348C11.9473 9.75971 12 9.63253 12 9.49992C12 9.36732 11.9473 9.24014 11.8535 9.14637C11.7597 9.0526 11.6326 8.99992 11.5 8.99992Z" fill="black"/>
  <path d="M10.8414 3H5.37423C5.30939 3 5.25708 3.05231 5.25708 3.11715V5.48305H10.9571V3.11715C10.9578 3.05231 10.9055 3 10.8414 3ZM5.25782 6.00177V6.76289C5.25782 6.82847 5.31087 6.88152 5.37644 6.88152H7.88602V7.48129H7.17426C7.10869 7.48129 7.05564 7.53434 7.05564 7.59991V7.88137C7.05564 7.94695 7.10869 8 7.17426 8H9.11576C9.18134 8 9.23439 7.94695 9.23439 7.88137V7.59991C9.23439 7.53434 9.18134 7.48129 9.11576 7.48129H8.404V6.88152H10.8392C10.9047 6.88152 10.9578 6.82847 10.9578 6.76289V5.95461H5.25782V6.00177ZM8.14464 6.67742C8.01423 6.67742 7.90886 6.57206 7.90886 6.44164C7.90886 6.31123 8.01423 6.20586 8.14464 6.20586C8.27506 6.20586 8.38042 6.31123 8.38042 6.44164C8.38042 6.57132 8.27506 6.67742 8.14464 6.67742Z" fill="#231815"/>
</svg>