<svg width="20" height="20" viewBox="0 0 20 20" fill="none" xmlns="http://www.w3.org/2000/svg">
<path d="M15.3323 12.8013C14.199 12.8013 13.2656 11.868 13.2656 10.7346C13.2656 9.6013 14.199 8.66797 15.3323 8.66797C16.4656 8.66797 17.399 9.6013 17.399 10.7346C17.399 11.9346 16.4656 12.8013 15.3323 12.8013ZM15.3323 9.73464C14.7323 9.73464 14.2656 10.2013 14.2656 10.8013C14.2656 11.4013 14.7323 11.868 15.3323 11.868C15.9323 11.868 16.399 11.4013 16.399 10.8013C16.399 10.2013 15.9323 9.73464 15.3323 9.73464ZM15.8656 16.1346L15.599 15.1346C15.6656 15.068 15.6656 15.0013 15.6656 14.9346C15.6656 14.7346 15.5323 14.6013 15.3323 14.6013C15.1323 14.6013 14.999 14.7346 14.999 14.9346C14.999 15.0013 14.999 15.068 15.0656 15.1346L14.799 16.1346C14.799 16.268 14.799 16.3346 14.8656 16.468L15.199 16.8013C15.2656 16.868 15.2656 16.868 15.3323 16.868C15.399 16.868 15.4656 16.868 15.4656 16.8013L15.799 16.468C15.8656 16.3346 15.9323 16.2013 15.8656 16.1346Z"/>
<path d="M18.6026 18.0021H12.1359C11.6693 18.0021 11.3359 17.6021 11.3359 17.2021C11.3359 15.1354 13.0026 13.4688 15.0693 13.4688H15.7359C17.8026 13.4688 19.4693 15.1354 19.4693 17.2021C19.4026 17.6021 19.0693 18.0021 18.6026 18.0021ZM12.2693 17.0021H18.4026C18.3359 15.5354 17.1359 14.4021 15.6693 14.4021H15.0026C13.6026 14.4021 12.4026 15.5354 12.2693 17.0021Z" fill="#262626"/>
<path d="M10.1307 17.5333C10.1307 17.8667 9.86406 18.2 9.46406 18.2H3.13073C1.73073 18.2 0.664063 17.0667 0.664062 15.7333V3.46667C0.664062 2.06667 1.7974 1 3.13073 1H14.9307C16.3307 1 17.3974 2.13333 17.3974 3.46667V7.86667C17.3974 8.2 17.1307 8.53333 16.7307 8.53333C16.3974 8.53333 16.0641 8.26667 16.0641 7.86667V3.46667C16.0641 2.8 15.5307 2.26667 14.8641 2.26667H3.13073C2.46406 2.26667 1.93073 2.8 1.93073 3.46667V15.7333C1.93073 16.4 2.46406 16.9333 3.13073 16.9333H9.46406C9.7974 16.9333 10.1307 17.2 10.1307 17.5333Z" fill="#262626"/>
<path d="M13.9344 5.5338L10.2677 7.7338C10.1344 7.80046 9.93438 7.86713 9.73438 7.80046L6.86771 6.86713L4.40104 8.46713C4.26771 8.5338 4.20104 8.60046 4.06771 8.60046C3.86771 8.60046 3.66771 8.46713 3.53437 8.3338C3.33437 8.06713 3.40104 7.66713 3.73438 7.46713L6.46771 5.7338C6.60104 5.60046 6.80104 5.60046 7.00104 5.66713L9.86771 6.60046L13.3344 4.5338C13.6677 4.3338 14.001 4.46713 14.201 4.7338C14.3344 5.00046 14.201 5.40046 13.9344 5.5338ZM4.46771 15.2671C4.13437 15.2671 3.80104 15.0005 3.80104 14.6005V11.5338C3.80104 11.2005 4.06771 10.8671 4.46771 10.8671C4.80104 10.8671 5.13437 11.1338 5.13437 11.5338V14.6005C5.06771 15.0005 4.80104 15.2671 4.46771 15.2671ZM9.20104 15.2671C8.86771 15.2671 8.53438 15.0005 8.53438 14.6005V12.6671C8.53438 12.3338 8.80104 12.0005 9.20104 12.0005C9.53438 12.0005 9.86771 12.2671 9.86771 12.6671V14.6005C9.86771 15.0005 9.53438 15.2671 9.20104 15.2671ZM6.80104 15.2671C6.46771 15.2671 6.13438 15.0005 6.13438 14.6005V9.86713C6.13438 9.5338 6.40104 9.20046 6.80104 9.20046C7.13438 9.20046 7.46771 9.46713 7.46771 9.86713V14.6005C7.46771 15.0005 7.20104 15.2671 6.80104 15.2671Z" fill="#262626"/>
</svg>
