<svg xmlns="http://www.w3.org/2000/svg" width="16" height="16" viewBox="0 0 16 16" fill="none">
  <path d="M7.99219 0.52832C8.54694 0.52832 8.99665 0.978036 8.99665 1.53278C8.99665 1.89057 8.80959 2.20467 8.52792 2.38261L8.5279 3.74261H13.3493C13.6452 3.74261 13.885 3.98246 13.885 4.27832V13.9212C13.885 14.217 13.6452 14.4569 13.3493 14.4569H2.63504C2.33918 14.4569 2.09933 14.217 2.09933 13.9212V4.27832C2.09933 3.98246 2.33918 3.74261 2.63504 3.74261H7.45647V2.38261C7.17916 2.20745 6.99355 1.9003 6.98786 1.54941L6.98772 1.53278C6.98772 0.978036 7.43744 0.52832 7.99219 0.52832ZM12.6797 4.94796H3.30469V13.2515H12.6797V4.94796ZM10.0011 10.7236C10.0187 10.7236 10.0361 10.7271 10.0524 10.7338C10.0686 10.7406 10.0834 10.7504 10.0958 10.7629C10.1083 10.7753 10.1181 10.7901 10.1248 10.8063C10.1316 10.8226 10.135 10.84 10.135 10.8576V11.6611C10.135 11.6787 10.1316 11.6961 10.1248 11.7124C10.1181 11.7286 10.1083 11.7434 10.0958 11.7558C10.0834 11.7683 10.0686 11.7781 10.0524 11.7849C10.0361 11.7916 10.0187 11.7951 10.0011 11.7951H5.98326C5.96567 11.7951 5.94826 11.7916 5.93201 11.7849C5.91576 11.7781 5.90099 11.7683 5.88856 11.7558C5.87612 11.7434 5.86626 11.7286 5.85952 11.7124C5.85279 11.6961 5.84933 11.6787 5.84933 11.6611V10.8576C5.84933 10.822 5.86344 10.788 5.88856 10.7629C5.91367 10.7377 5.94774 10.7236 5.98326 10.7236H10.0011ZM1.42969 6.15332C1.46521 6.15332 1.49927 6.16743 1.52439 6.19255C1.54951 6.21766 1.56362 6.25173 1.56362 6.28725V11.3765C1.56362 11.4121 1.54951 11.4461 1.52439 11.4712C1.49927 11.4964 1.46521 11.5105 1.42969 11.5105H0.626116C0.590596 11.5105 0.556531 11.4964 0.531414 11.4712C0.506298 11.4461 0.492187 11.4121 0.492188 11.3765V6.28725C0.492188 6.25173 0.506298 6.21766 0.531414 6.19255C0.556531 6.16743 0.590596 6.15332 0.626116 6.15332H1.42969ZM15.3583 6.15332C15.3758 6.15332 15.3933 6.15679 15.4095 6.16352C15.4258 6.17025 15.4405 6.18011 15.453 6.19255C15.4654 6.20498 15.4753 6.21975 15.482 6.236C15.4887 6.25225 15.4922 6.26966 15.4922 6.28725V11.3765C15.4922 11.3941 15.4887 11.4115 15.482 11.4278C15.4753 11.444 15.4654 11.4588 15.453 11.4712C15.4405 11.4837 15.4258 11.4935 15.4095 11.5003C15.3933 11.507 15.3758 11.5105 15.3583 11.5105H14.5547C14.5192 11.5105 14.4851 11.4964 14.46 11.4712C14.4349 11.4461 14.4208 11.4121 14.4208 11.3765V6.28725C14.4208 6.25173 14.4349 6.21766 14.46 6.19255C14.4851 6.16743 14.5192 6.15332 14.5547 6.15332H15.3583ZM5.17969 7.22475C5.69746 7.22475 6.11719 7.64448 6.11719 8.16225C6.11719 8.68002 5.69746 9.09975 5.17969 9.09975C4.66192 9.09975 4.24219 8.68002 4.24219 8.16225C4.24219 7.64448 4.66192 7.22475 5.17969 7.22475ZM10.8047 7.22475C11.3225 7.22475 11.7422 7.64448 11.7422 8.16225C11.7422 8.68002 11.3225 9.09975 10.8047 9.09975C10.2869 9.09975 9.86719 8.68002 9.86719 8.16225C9.86719 7.64448 10.2869 7.22475 10.8047 7.22475Z" fill="black"/>
</svg>