<svg xmlns="http://www.w3.org/2000/svg" width="16" height="16" viewBox="0 0 16 16" fill="none">
  <path d="M5.92712 10.8943L2.39628 14.3992C2.17581 14.6181 1.81964 14.6167 1.60078 14.3963C1.38192 14.1758 1.38325 13.8196 1.60372 13.6008L5.15997 10.0707H2.16633C1.86961 10.0707 1.62906 9.82933 1.62906 9.53161C1.62906 9.23391 1.86961 8.99255 2.16633 8.99255H6.46438C6.76109 8.99255 7.00163 9.23391 7.00163 9.53161V13.8441C7.00163 13.9871 6.94503 14.1242 6.84428 14.2253C6.79446 14.2753 6.73526 14.315 6.67007 14.3421C6.60487 14.3692 6.53497 14.3832 6.46438 14.3832C6.39378 14.3832 6.32388 14.3692 6.25868 14.3421C6.19349 14.315 6.13429 14.2753 6.08447 14.2253C5.98365 14.1241 5.92707 13.987 5.92711 13.8441V10.8943H5.92712ZM10.0427 5.16183L13.6023 1.60225C13.8219 1.38258 14.1781 1.38258 14.3977 1.60225C14.6174 1.82192 14.6174 2.17808 14.3977 2.39775L10.8793 5.91619H13.8035C14.1002 5.91619 14.3407 6.15752 14.3407 6.45525C14.3407 6.75295 14.1002 6.99431 13.8035 6.99431H9.50541C9.20869 6.99431 8.96816 6.75295 8.96816 6.45525V2.14275C8.96816 1.99978 9.02475 1.86266 9.1255 1.76156C9.17532 1.71154 9.23452 1.67184 9.29971 1.64474C9.36491 1.61765 9.43481 1.60369 9.50541 1.60367C9.64791 1.60367 9.78455 1.66047 9.88531 1.76156C9.98612 1.8628 10.0427 1.99987 10.0427 2.14273V5.16184L10.0427 5.16183ZM1.55289 6.40625C1.48229 6.40623 1.41239 6.39227 1.3472 6.36518C1.282 6.33808 1.2228 6.29839 1.17298 6.24836C1.07217 6.14712 1.01559 6.01006 1.01563 5.86719V1.55469C1.01563 1.25697 1.25617 1.01562 1.55289 1.01562H5.85097C6.14769 1.01562 6.38822 1.25697 6.38822 1.55469C6.38822 1.85241 6.14769 2.09375 5.85097 2.09375H2.09014V5.86719C2.09014 6.01016 2.03355 6.14727 1.9328 6.24836C1.88298 6.29839 1.82377 6.33809 1.75858 6.36518C1.69338 6.39228 1.62349 6.40623 1.55289 6.40625ZM14.4471 15.0312H10.149C9.85231 15.0312 9.61178 14.7899 9.61178 14.4922C9.61178 14.1945 9.85231 13.9531 10.149 13.9531H13.9099V10.1797C13.9099 9.88197 14.1504 9.64062 14.4471 9.64062C14.7438 9.64062 14.9844 9.88197 14.9844 10.1797V14.4922C14.9844 14.7899 14.7438 15.0312 14.4471 15.0312Z" fill="#666666"/>
</svg>