<svg width="20" height="20" viewBox="0 0 20 20" fill="none" xmlns="http://www.w3.org/2000/svg">
<path d="M12.5348 6.60322L17.7834 1.35456C18.0045 1.13363 18.3625 1.13309 18.5862 1.35698C18.8084 1.57921 18.8091 1.93901 18.5884 2.15956L13.3424 7.40598H16.3304C16.6429 7.40598 16.899 7.66083 16.899 7.97532C16.899 8.29188 16.6444 8.54449 16.3304 8.54449H12.1545C12.0724 8.54449 11.9941 8.52678 11.9233 8.4949C11.8085 8.47683 11.6981 8.42313 11.6094 8.33401C11.546 8.27081 11.5005 8.19624 11.4729 8.11702C11.4244 8.03314 11.3961 7.93526 11.3961 7.83103V3.65506C11.3961 3.34262 11.6511 3.08647 11.9658 3.08647C12.282 3.08647 12.5348 3.34112 12.5348 3.65506V6.60322H12.5348Z" fill="#262626"/>
<path d="M7.40626 13.3416L2.16022 18.5876C1.93875 18.8087 1.58117 18.8091 1.35708 18.5854C1.13485 18.3632 1.13411 18.0034 1.35484 17.7826L6.6035 12.534H3.80038C3.48794 12.534 3.23179 12.2789 3.23179 11.965C3.23179 11.6481 3.48608 11.3953 3.80038 11.3953H7.97597C8.28842 11.3953 8.54495 11.6503 8.54495 11.965C8.54495 11.9721 8.54457 11.9795 8.54421 11.9866C8.54459 11.9941 8.54495 12.0015 8.54495 12.009V16.1849C8.54495 16.497 8.2899 16.7532 7.97559 16.7532C7.65905 16.7532 7.40626 16.4989 7.40626 16.1849V13.3416Z" fill="#262626"/>
</svg>
