<svg xmlns="http://www.w3.org/2000/svg" width="14" height="14" viewBox="0 0 14 14" fill="none">
  <path d="M1.98333 1.16667H4.08333C4.43333 1.16667 4.66667 0.933333 4.66667 0.583333C4.66667 0.233333 4.43333 0 4.08333 0H0.466667C0.35 0 0.233333 0.116667 0.116667 0.233333C0 0.35 0 0.466667 0 0.583333V4.08333C0 4.43333 0.233333 4.66667 0.583333 4.66667C0.933333 4.66667 1.16667 4.43333 1.16667 4.08333V1.98333L4.31667 5.13333C4.55 5.36667 4.9 5.36667 5.13333 5.13333C5.36667 4.9 5.36667 4.55 5.13333 4.31667L1.98333 1.16667ZM4.31667 8.86667L2.21667 10.9667L1.16667 12.0167V9.91667C1.16667 9.56667 0.933333 9.33333 0.583333 9.33333C0.233333 9.33333 0 9.56667 0 9.91667V13.4167C0 13.7667 0.233333 14 0.583333 14H4.08333C4.43333 14 4.66667 13.7667 4.66667 13.4167C4.66667 13.0667 4.43333 12.8333 4.08333 12.8333H1.98333L3.03333 11.7833L5.13333 9.68333C5.36667 9.45 5.36667 9.1 5.13333 8.86667C4.9 8.63333 4.55 8.63333 4.31667 8.86667ZM13.4167 9.33333C13.0667 9.33333 12.8333 9.56667 12.8333 9.91667V12.0167L11.7833 10.9667L9.68333 8.86667C9.45 8.63333 9.1 8.63333 8.86667 8.86667C8.63333 9.1 8.63333 9.45 8.86667 9.68333L10.9667 11.7833L12.0167 12.8333H9.91667C9.56667 12.8333 9.33333 13.0667 9.33333 13.4167C9.33333 13.7667 9.56667 14 9.91667 14H13.4167C13.7667 14 14 13.7667 14 13.4167V9.91667C14 9.56667 13.7667 9.33333 13.4167 9.33333ZM13.4167 0H9.91667C9.56667 0 9.33333 0.233333 9.33333 0.583333C9.33333 0.933333 9.56667 1.16667 9.91667 1.16667H12.0167L10.9667 2.21667L8.86667 4.31667C8.63333 4.55 8.63333 4.9 8.86667 5.13333C9.1 5.36667 9.45 5.36667 9.68333 5.13333L11.7833 3.03333L12.8333 1.98333V4.08333C12.8333 4.43333 13.0667 4.66667 13.4167 4.66667C13.7667 4.66667 14 4.43333 14 4.08333V0.583333C14 0.233333 13.7667 0 13.4167 0Z" fill="#666666"/>
</svg>