<?xml version="1.0" standalone="no"?><!DOCTYPE svg PUBLIC "-//W3C//DTD SVG 1.1//EN" "http://www.w3.org/Graphics/SVG/1.1/DTD/svg11.dtd"><svg t="1691077526908" class="icon" viewBox="0 0 1024 1024" version="1.1" xmlns="http://www.w3.org/2000/svg" p-id="18309" xmlns:xlink="http://www.w3.org/1999/xlink" width="200" height="200"><path d="M844.8 281.6h-112.64c-10.24 0-15.36-5.12-15.36-15.36V153.6c0-15.36 20.48-20.48 30.72-15.36l112.64 112.64c5.12 15.36-5.12 30.72-15.36 30.72z" fill="#646464" p-id="18310"></path><path d="M742.4 343.04c-61.44 0-87.04-20.48-87.04-92.16V138.24H271.36C225.28 138.24 204.8 158.72 204.8 204.8v645.12c0 51.2 20.48 66.56 66.56 66.56h512c51.2 0 71.68-20.48 71.68-66.56v-512h-112.64zM302.08 465.92h97.28V399.36H302.08v-35.84h87.04L307.2 230.4l30.72-15.36 81.92 138.24 81.92-138.24 30.72 15.36-87.04 133.12h87.04v30.72H435.2V460.8h97.28v30.72H435.2v97.28h-35.84V496.64H302.08v-30.72z m460.8 358.4h-460.8v-30.72h455.68v30.72h5.12z m0-97.28H496.64v-30.72h261.12v30.72h5.12z m0-97.28h-163.84v-30.72h163.84v30.72z" fill="#646464" p-id="18311"></path></svg>