<?xml version="1.0" standalone="no"?><!DOCTYPE svg PUBLIC "-//W3C//DTD SVG 1.1//EN" "http://www.w3.org/Graphics/SVG/1.1/DTD/svg11.dtd"><svg t="1691077392135" class="icon" viewBox="0 0 1024 1024" version="1.1" xmlns="http://www.w3.org/2000/svg" p-id="14221" xmlns:xlink="http://www.w3.org/1999/xlink" width="200" height="200"><path d="M568 42.666667a42.666667 42.666667 0 0 1 28.330667 10.752l2.794666 2.730666 200 213.333334a42.666667 42.666667 0 0 1 11.392 25.6L810.666667 298.666667v234.666666h85.333333a85.333333 85.333333 0 0 1 85.226667 81.066667L981.333333 618.666667v256a106.666667 106.666667 0 0 1-102.037333 106.56L874.666667 981.333333H168c-44.842667 0-80.384-36.416-82.56-81.002666L85.333333 896V128c0-45.077333 34.133333-82.901333 78.357334-85.226667L168 42.666667h400z m-18.496 85.333333H170.666667v768h554.666666V315.541333L549.504 128zM896 618.666667h-85.333333v277.333333h64a21.333333 21.333333 0 0 0 20.778666-16.426667l0.426667-2.410666L896 874.666667V618.666667z m-448-85.333334c21.418667 0 39.146667 15.786667 42.304 39.104L490.666667 576v128a42.666667 42.666667 0 0 1-42.666667 42.666667c-21.418667 0-39.146667-15.786667-42.304-39.104L405.333333 704v-128a42.666667 42.666667 0 0 1 42.666667-42.666667z m149.333333-85.333333c21.418667 0 39.146667 15.786667 42.304 39.104L640 490.666667v213.333333a42.666667 42.666667 0 0 1-42.666667 42.666667c-21.418667 0-39.146667-15.786667-42.304-39.104L554.666667 704V490.666667a42.666667 42.666667 0 0 1 42.666666-42.666667z m-298.666666 128c21.418667 0 39.146667 15.786667 42.304 39.104L341.333333 618.666667v85.333333a42.666667 42.666667 0 0 1-42.666666 42.666667c-21.418667 0-39.146667-15.786667-42.304-39.104L256 704v-85.333333a42.666667 42.666667 0 0 1 42.666667-42.666667z m320.768-261.973333a42.666667 42.666667 0 0 1-2.858667 57.728l-2.602667 2.346666-128 106.666667a42.666667 42.666667 0 0 1-54.784-0.128l-2.688-2.474667-37.013333-36.992-76.842667 61.482667a42.666667 42.666667 0 0 1-57.664-4.032l-2.304-2.645333a42.666667 42.666667 0 0 1 4.032-57.664l2.645334-2.304 106.666666-85.333334a42.666667 42.666667 0 0 1 54.016 0.576l2.794667 2.56 36.437333 36.437334 98.090667-81.706667a42.666667 42.666667 0 0 1 60.074667 5.482667z" fill="#222222" p-id="14222"></path></svg>