<?xml version="1.0" standalone="no"?><!DOCTYPE svg PUBLIC "-//W3C//DTD SVG 1.1//EN" "http://www.w3.org/Graphics/SVG/1.1/DTD/svg11.dtd"><svg t="1691076496901" class="icon" viewBox="0 0 1024 1024" version="1.1" xmlns="http://www.w3.org/2000/svg" p-id="8812" xmlns:xlink="http://www.w3.org/1999/xlink" width="200" height="200"><path d="M940.353416 249.439072h-49.461505c13.9712-22.079878 21.823028-49.393967 21.823028-82.913384 0-159.431106-129.229247-165.827793-165.828816-165.827793-175.273932 0-234.921427 193.465247-234.921427 193.465246S441.196932 0.697895 277.042245 0.697895c-40.971134 0-165.827793 20.188808-165.827792 165.827793 0 33.69338 8.104585 60.962443 22.206767 82.913384H83.591325c-53.575196 0-82.914408 34.304294-82.914408 87.583755v192.790887c0 63.156412 49.230238 51.27992 55.275931 51.279921v359.293039c0 53.279461 51.915393 82.913385 105.465007 82.913385h756.425895c53.54859 0 50.148144-29.66053 50.148143-82.994226V581.093635c0.864694 0 55.275931 13.684674 55.275931-55.275931l0.055259-188.795901c-0.001023-47.960315-29.367865-87.582731-82.969667-87.582731zM470.508515 940.387697H138.85293v-359.293039h331.655585v359.293039z m0-442.206424H83.591325V332.352457h386.91719v165.828816zM262.095835 249.439072c-44.548612-19.338441-74.109882-51.990095-78.33102-89.822748-0.431835-63.724347 34.925441-89.311095 81.132832-86.773296 82.860173 0 128.095423 67.448158 205.610868 176.596044H262.095835zM746.995617 73.652464c42.590004-3.508917 79.890538 15.763009 92.6307 86.800925 3.638877 37.548174-16.181541 69.818135-63.742766 88.985683H553.4219c83.724867-126.989229 122.428354-175.786609 193.573717-175.786608z m138.082892 866.735233H553.4219v-359.293039h331.656609v359.293039z m55.274907-442.206424H553.4219V332.352457h386.931516v165.828816z" fill="#070102" p-id="8813"></path></svg>