<?xml version="1.0" standalone="no"?><!DOCTYPE svg PUBLIC "-//W3C//DTD SVG 1.1//EN" "http://www.w3.org/Graphics/SVG/1.1/DTD/svg11.dtd"><svg t="1691076544256" class="icon" viewBox="0 0 1024 1024" version="1.1" xmlns="http://www.w3.org/2000/svg" p-id="9106" xmlns:xlink="http://www.w3.org/1999/xlink" width="200" height="200"><path d="M0 1024h1024V0H0z" fill="#D8D8D8" fill-opacity="0" p-id="9107"></path><path d="M742.4 614.4a25.6 25.6 0 0 1 0 51.2h-460.8a25.6 25.6 0 1 1 0-51.2h460.8zM742.4 716.8a25.6 25.6 0 0 1 0 51.2h-460.8a25.6 25.6 0 0 1 0-51.2h460.8zM742.4 819.2a25.6 25.6 0 0 1 0 51.2h-460.8a25.6 25.6 0 0 1 0-51.2h460.8z" fill="#000000" p-id="9108"></path><path d="M254.5152 998.4c-90.368 0-165.7344-68.8128-170.1888-156.0576l-0.2048-8.192v-249.8048C37.8368 572.0576 3.4304 529.2032 0.256 478.1568L0 470.4256V382.464c0-61.7984 45.824-113.5104 104.448-117.248l6.8608-0.2048h120.7808c-19.9168-16.0768-35.7888-33.3824-46.8992-52.224-28.4672-48.2304-21.504-101.376 22.7328-147.2512C241.664 30.6176 282.9312 18.6368 325.7344 29.44 377.856 42.5984 426.8544 86.6304 475.648 151.9104c9.5232 12.6976 18.6368 25.8048 27.392 39.0656l8.96 13.9776 8.96-13.9776c4.352-6.656 8.8576-13.2608 13.4144-19.7632l13.9776-19.2512C597.1456 86.6304 646.144 42.5984 698.2656 29.44c42.8032-10.8032 84.0704 1.1776 117.76 36.096 44.3392 45.9264 51.2 99.0208 22.784 147.2512-11.0592 18.8416-26.9824 36.1472-46.8992 52.224h120.7808c59.5968 0 107.6736 49.408 111.104 110.3872L1024 382.464v88.064c0 54.3744-35.5328 100.9664-84.0704 113.92v249.7024c0 88.3712-72.6016 159.744-162.048 164.0448l-8.3968 0.2048H254.464zM506.88 587.8784H166.2464v246.1696c0 41.5744 42.0352 77.312 96.0512 80.384l7.7312 0.3072 236.8512-0.0512v-326.8096z m350.8224 0H506.88v326.8096h247.04c55.0912 0 99.6352-33.792 103.4752-74.752l0.3072-5.888v-246.1696zM470.8864 348.5696H111.3088c-14.08 0-26.7776 12.4416-28.8256 29.184l-0.256 4.7104v88.0128c0 17.5104 11.4688 31.3856 25.2416 33.5872l3.84 0.3072h359.5776V348.5696z m441.8048 0h-359.5776V504.32h359.5776c14.08 0 26.7776-12.4928 28.8256-29.184l0.256-4.7104V382.464c0-17.408-11.4688-31.3856-25.2416-33.5872l-3.84-0.3072zM266.6496 124.0064c-18.432 19.0976-19.968 30.5664-10.9568 45.7216 10.6496 18.1248 35.328 38.3488 69.376 57.6 19.3024 10.9056 40.2944 20.7872 61.2352 29.3376l16.4352 6.4512 5.12 1.8944 44.1856-0.0512-5.5808-9.1648c-11.3152-18.2784-23.552-36.352-36.2496-53.2992C371.968 151.2448 334.6432 117.76 305.9712 110.5408c-14.5408-3.6864-26.0096-0.3584-39.3216 13.4656z m451.3792-13.4656c-28.672 7.2192-65.9456 40.704-104.2432 91.9552-14.848 19.8144-28.928 41.0624-41.8816 62.464h44.288l0.768-0.256c5.2736-1.8944 12.288-4.608 20.6848-8.0384 20.992-8.5504 41.984-18.432 61.2352-29.3376 34.1504-19.2512 58.7776-39.4752 69.4272-57.6 8.96-15.1552 7.4752-26.624-10.9568-45.7216-13.312-13.824-24.7808-17.152-39.3216-13.4656z" fill="#000000" p-id="9109"></path></svg>