<svg xmlns="http://www.w3.org/2000/svg" width="16" height="16" viewBox="0 0 16 16" fill="none">
  <path d="M12.3687 2.10844H13.6987C14.3283 2.10844 14.8387 2.61885 14.8387 3.24844V8.56844C14.8387 9.19803 14.3283 9.70844 13.6987 9.70844H12.3687V11.7984H11.2287V9.70844H9.89869C9.2691 9.70844 8.75869 9.19803 8.75869 8.56844V3.24844C8.75869 2.61885 9.2691 2.10844 9.89869 2.10844H11.2287V0.398438H12.3687V2.10844ZM4.76869 5.90844H6.09869C6.72828 5.90844 7.23869 6.41884 7.23869 7.04844V12.7484C7.23869 13.378 6.72828 13.8884 6.09869 13.8884H4.76869V15.5984H3.62869V13.8884H2.29869C1.6691 13.8884 1.15869 13.378 1.15869 12.7484V7.04844C1.15869 6.41884 1.6691 5.90844 2.29869 5.90844H3.62869V4.19844H4.76869V5.90844ZM2.29869 7.04844V12.7484H6.09869V7.04844H2.29869ZM9.89869 3.24844V8.56844H13.6987V3.24844H9.89869Z" fill="black"/>
</svg>