<svg width="20" height="20" viewBox="0 0 20 20" fill="none" xmlns="http://www.w3.org/2000/svg">
<path d="M15.8646 6.46188L10.5614 4.22425C10.3589 4.13875 10.144 4.12075 10 4.12075C9.856 4.12075 9.64112 4.13875 9.43975 4.22425L4.13537 6.463C3.8485 6.58337 3.6775 6.814 3.67637 7.0795C3.67637 7.345 3.84737 7.57563 4.13537 7.69713L9.43975 9.93587C9.64225 10.0214 9.856 10.0394 10 10.0394C10.144 10.0394 10.3578 10.0214 10.5603 9.937L15.8657 7.69825C16.1526 7.57675 16.3236 7.34613 16.3236 7.08063C16.3225 6.814 16.1526 6.58338 15.8646 6.46188ZM10.1699 9.00887C10.1496 9.01675 10.0889 9.0325 10 9.0325C9.91 9.0325 9.85037 9.01675 9.83125 9.00887L5.2615 7.08063L9.83237 5.15125C9.8515 5.14338 9.91112 5.12762 10 5.12762C10.0889 5.12762 10.1485 5.14338 10.1687 5.15125L14.7396 7.0795L10.1699 9.00887ZM10.1687 14.8476C10.0934 14.8791 9.90775 14.8803 9.83125 14.8476L4.52687 12.6089L4.13537 13.537L9.43975 15.7746C9.60175 15.8433 9.80087 15.8781 10 15.8781C10.1991 15.8781 10.3983 15.8444 10.5603 15.7746L15.8646 13.537L15.4731 12.6089L10.1687 14.8476ZM10.1676 12.9003C10.0923 12.9329 9.90775 12.9329 9.83125 12.9003L4.52687 10.6626L4.13537 11.5907L9.43862 13.8273C9.60175 13.897 9.80087 13.9308 10 13.9308C10.1991 13.9308 10.3983 13.897 10.5603 13.8284L15.8646 11.5907L15.4731 10.6626L10.1676 12.9003ZM10.1699 10.9551C10.0934 10.9866 9.90662 10.9866 9.83125 10.9551L4.52687 8.71638L4.13537 9.6445L9.43975 11.8832C9.60175 11.9507 9.80087 11.9856 10 11.9856C10.1991 11.9856 10.3982 11.9519 10.5614 11.8832L15.8657 9.6445L15.4743 8.71638L10.1699 10.9551ZM15.4821 1H4.51788C2.57838 1 1 2.47937 1 4.29737V15.7015C1 17.5195 2.57838 19 4.51788 19H15.4821C17.4228 19 19 17.5195 19 15.7015V4.29737C19 2.47937 17.4228 1 15.4821 1ZM17.7411 15.7015C17.7411 16.8254 16.7286 17.7411 15.4821 17.7411H4.51788C3.2725 17.7411 2.25887 16.8265 2.25887 15.7015V4.29737C2.25887 3.17237 3.2725 2.25775 4.51788 2.25775H15.4821C16.7275 2.25775 17.7411 3.17237 17.7411 4.29737V15.7015Z" fill="#333333"/>
</svg>
