<?xml version="1.0" standalone="no"?><!DOCTYPE svg PUBLIC "-//W3C//DTD SVG 1.1//EN" "http://www.w3.org/Graphics/SVG/1.1/DTD/svg11.dtd"><svg t="1691076195614" class="icon" viewBox="0 0 1024 1024" version="1.1" xmlns="http://www.w3.org/2000/svg" p-id="3270" xmlns:xlink="http://www.w3.org/1999/xlink" width="200" height="200"><path d="M917.1968 285.9008a48.5376 48.5376 0 0 0-7.2704-39.2192 47.49312 47.49312 0 0 0-38.912-20.1728h-13.1072c3.3792-13.7216 0.8192-28.4672-7.4752-40.1408a48.75264 48.75264 0 0 0-39.936-20.6848H649.6256c-37.1712 0-73.728 9.8304-105.472 28.3648a123.76064 123.76064 0 0 1-62.1568 15.872h-42.0864v-26.3168c0-15.36-7.68-29.7984-20.6848-38.7072a50.19648 50.19648 0 0 0-40.1408-7.2704v-27.136c0-25.2928-18.8416-47.5136-44.032-49.4592a47.72864 47.72864 0 0 0-51.3024 45.7728 48.5376 48.5376 0 0 0-39.2192 7.2704 47.49312 47.49312 0 0 0-20.1728 38.912v13.1072a49.11104 49.11104 0 0 0-40.1408 7.4752 48.75264 48.75264 0 0 0-20.6848 39.936V370.688c0 37.1712 9.8304 73.728 28.3648 105.472 10.6496 18.8416 16.0768 40.2432 15.872 62.0544v42.0864H181.248c-15.36 0-29.7984 7.68-38.7072 20.6848a50.19648 50.19648 0 0 0-7.2704 40.1408h-24.7808c-25.2928 0-47.5136 18.8416-49.4592 44.032a47.72864 47.72864 0 0 0 45.7728 51.3024 48.5376 48.5376 0 0 0 7.2704 39.2192 47.49312 47.49312 0 0 0 38.912 20.1728h13.1072c-3.3792 13.7216-0.8192 28.4672 7.4752 40.1408a48.75264 48.75264 0 0 0 39.936 20.6848h160.3584c37.1712 0 73.728-9.8304 105.472-28.3648 18.8416-10.6496 40.2432-16.1792 62.0544-15.872h42.0864v26.3168c0 15.36 7.68 29.7984 20.6848 38.7072 11.6736 7.9872 26.4192 10.6496 40.1408 7.2704v28.4672c0 25.2928 18.8416 47.5136 44.032 49.4592 27.3408 2.048 50.3808-19.1488 51.3024-45.7728 13.4144 3.2768 27.7504 0.7168 39.2192-7.2704a47.49312 47.49312 0 0 0 20.1728-38.912v-13.0048c13.7216 3.3792 28.4672 0.8192 40.1408-7.4752a48.75264 48.75264 0 0 0 20.6848-39.936V651.9808c0-37.1712-9.8304-73.728-28.3648-105.472a123.648 123.648 0 0 1-15.872-62.0544v-42.1888h26.3168c15.36 0 29.7984-7.68 38.7072-20.6848 7.9872-11.6736 10.6496-26.4192 7.2704-40.1408h27.136c26.3168 0 47.7184-21.4016 47.7184-47.7184 0.512-25.8048-19.968-46.7968-45.568-47.8208z m-229.5808 76.288c0 10.6496 8.704 19.1488 19.1488 19.1488h134.2464c6.144 0 11.0592 5.0176 11.0592 11.0592 0 6.144-5.0176 11.0592-11.0592 11.0592H616.6528s-18.1248 8.9088-16.4864 18.8416v25.1904c-25.7024-3.8912-47.2064-16.1792-62.5664-35.0208-12.0832-14.6432-29.9008-23.2448-48.9472-25.6h-48.8448v-138.24h40.8576c27.648 0.3072 54.784-7.0656 78.6432-20.992a163.1232 163.1232 0 0 1 83.7632-23.2448h168.1408c6.144 0 11.0592 5.0176 11.0592 11.0592 0 6.144-5.0176 11.0592-11.0592 11.0592H705.536c-9.1136 0-16.5888 7.4752-16.5888 16.5888 0 9.0112 7.3728 16.5888 16.5888 16.5888h165.4784c6.144 0 11.0592 5.0176 11.0592 11.0592 0 6.144-5.0176 11.0592-11.0592 11.0592H706.8672c-10.752 0-19.3536 8.8064-19.3536 19.3536 0 10.752 8.8064 19.3536 19.3536 19.3536h208.896c6.144 0 11.0592 5.0176 11.0592 11.0592 0 6.144-5.0176 11.0592-11.0592 11.0592h-208.896c-10.6496 0.3072-19.2512 8.9088-19.2512 19.5584z m92.0576 325.5296c-10.5472 0-19.0464 8.6016-19.0464 19.0464v164.2496c0 6.144-5.0176 11.0592-11.0592 11.0592-6.144 0-11.0592-5.0176-11.0592-11.0592V706.8672c0-10.752-8.8064-19.3536-19.3536-19.3536-10.752 0-19.3536 8.8064-19.3536 19.3536V915.456s-1.7408 11.6736-8.0896 11.6736-8.4992-11.6736-8.4992-11.6736V706.8672c0-10.752-8.8064-19.3536-19.3536-19.3536-10.752 0-19.3536 8.8064-19.3536 19.3536V840.704s-6.0416 11.6736-12.4928 11.6736-15.1552-11.6736-15.1552-11.6736V616.6528s-4.7104-18.1248-14.6432-19.6608h-25.1904c3.8912-22.528 16.1792-44.032 35.0208-59.4944 14.6432-12.0832 23.2448-29.9008 21.4016-48.9472v-52.0192H777.216v41.3696c-0.2048 27.9552 7.0656 55.5008 20.992 79.5648 15.1552 25.6 23.2448 54.9888 23.2448 84.8896V811.008c0 6.144-5.0176 11.0592-11.0592 11.0592-6.144 0-11.0592-5.0176-11.0592-11.0592V706.7648c-0.6144-10.4448-9.1136-19.0464-19.6608-19.0464zM212.7872 801.6896h104.3456c13.6192 0 23.9616-14.2336 17.2032-28.3648-3.072-6.4512-9.728-10.3424-16.896-10.3424H153.088c-6.144 0-11.0592-5.0176-11.0592-11.0592 0-6.144 5.0176-11.0592 11.0592-11.0592h164.0448c10.752 0 19.3536-8.8064 19.3536-19.3536 0-10.752-8.8064-19.3536-19.3536-19.3536h-208.896c-6.7584 0-11.9808-6.0416-10.9568-12.9024 0.9216-5.5296 6.2464-9.216 11.776-9.216h207.9744c10.752 0 19.3536-8.8064 19.3536-19.3536 0-10.752-8.8064-19.3536-19.3536-19.3536h-134.144c-6.144 0-11.0592-5.0176-11.0592-11.0592 0-6.144 5.0176-11.0592 11.0592-11.0592h224.4608s18.1248-7.0656 15.7696-16.9984v-25.1904c26.3168 3.8912 47.8208 16.1792 63.2832 35.0208a65.5872 65.5872 0 0 0 48.9472 23.7568h48.2304v143.7696H542.72c-27.648-0.3072-54.784 7.0656-78.6432 20.992a163.1232 163.1232 0 0 1-83.7632 23.2448H212.7872c-6.0416 0-10.8544-4.9152-10.8544-10.8544 0-6.3488 4.9152-11.264 10.8544-11.264z m22.016-467.0464c14.336 6.4512 28.0576-3.9936 28.0576-17.3056V153.1904c0-6.144 5.0176-11.0592 11.0592-11.0592 6.144 0 11.0592 5.0176 11.0592 11.0592v164.0448c0 10.752 8.8064 19.3536 19.3536 19.3536 10.752 0 19.3536-8.8064 19.3536-19.3536v-208.896c0-6.144 5.0176-11.0592 11.0592-11.0592 6.144 0 11.0592 5.0176 11.0592 11.0592v210.3296a16.5888 16.5888 0 1 0 33.1776 0V183.3984s6.8608-11.6736 13.2096-11.6736c6.4512 0 14.4384 11.6736 14.4384 11.6736V407.552s5.4272 18.1248 15.36 18.0224h25.1904a98.9184 98.9184 0 0 1-35.0208 61.0304c-14.6432 12.0832-23.2448 29.9008-22.1184 48.9472v50.4832H246.272v-41.3696c0.2048-27.9552-7.0656-55.5008-20.992-79.5648-15.1552-25.6-23.2448-54.9888-23.2448-84.8896V212.992c0-6.144 5.0176-11.0592 11.0592-11.0592 6.144 0 11.0592 5.0176 11.0592 11.0592v104.6528c0 7.2704 4.096 14.0288 10.6496 16.9984z m302.8992 262.4512a27.4432 27.4432 0 0 1-20.8896-10.1376 135.7312 135.7312 0 0 0-88.064-47.8208v-4.5056c0.1024-8.192 3.8912-15.7696 10.1376-20.8896 26.7264-22.4256 43.6224-53.5552 47.8208-88.064h4.5056c8.192 0.1024 15.7696 3.8912 20.8896 10.1376 22.4256 26.7264 53.5552 43.6224 88.064 47.8208v4.5056c-0.1024 8.192-3.8912 15.7696-10.1376 20.8896a135.7312 135.7312 0 0 0-47.8208 88.064h-4.5056z" p-id="3271"></path></svg>