<?xml version="1.0" standalone="no"?><!DOCTYPE svg PUBLIC "-//W3C//DTD SVG 1.1//EN" "http://www.w3.org/Graphics/SVG/1.1/DTD/svg11.dtd"><svg t="1691077474149" class="icon" viewBox="0 0 1024 1024" version="1.1" xmlns="http://www.w3.org/2000/svg" p-id="16229" xmlns:xlink="http://www.w3.org/1999/xlink" width="200" height="200"><path d="M395.636364 847.127273h-232.727273c-65.163636 0-116.363636-51.2-116.363636-116.363637s51.2-116.363636 116.363636-116.363636h125.672727c13.963636 0 27.927273 13.963636 27.927273 27.927273s-13.963636 27.927273-27.927273 27.927272H162.909091c-37.236364 0-65.163636 27.927273-65.163636 65.163637s27.927273 65.163636 65.163636 65.163636h228.072727L698.181818 698.181818h256c13.963636 0 27.927273 13.963636 27.927273 27.927273s-13.963636 18.618182-32.581818 18.618182h-242.036364l-307.2 102.4h-4.654545z" p-id="16230"></path><path d="M335.127273 702.836364c-18.618182 0-37.236364-9.309091-51.2-18.618182-13.963636-13.963636-23.272727-32.581818-18.618182-55.854546 0-18.618182 13.963636-37.236364 27.927273-51.2l358.4-279.272727c4.654545-4.654545 9.309091-4.654545 13.963636-4.654545h283.927273c13.963636 0 27.927273 13.963636 27.927272 27.927272s-13.963636 27.927273-27.927272 27.927273h-274.618182L325.818182 614.4c-4.654545 4.654545-4.654545 9.309091-9.309091 13.963636 0 4.654545 0 9.309091 4.654545 13.963637 4.654545 4.654545 13.963636 9.309091 18.618182 4.654545l181.527273-111.709091c13.963636-9.309091 27.927273-4.654545 37.236364 9.309091 9.309091 13.963636 4.654545 27.927273-9.309091 37.236364l-186.181819 111.709091c-9.309091 4.654545-18.618182 9.309091-27.927272 9.309091zM311.854545 344.436364H116.363636c-13.963636 0-23.272727-9.309091-23.272727-23.272728s9.309091-23.272727 23.272727-23.272727h195.490909c13.963636 0 23.272727 9.309091 23.272728 23.272727 4.654545 13.963636-9.309091 23.272727-23.272728 23.272728z" p-id="16231"></path><path d="M190.836364 502.690909V325.818182c0-13.963636 9.309091-23.272727 23.272727-23.272727s23.272727 9.309091 23.272727 23.272727v176.872727c0 13.963636-9.309091 23.272727-23.272727 23.272727-13.963636 4.654545-23.272727-9.309091-23.272727-23.272727z" p-id="16232"></path><path d="M195.490909 321.163636L93.090909 218.763636c-9.309091-9.309091-9.309091-27.927273 0-37.236363 9.309091-9.309091 27.927273-9.309091 37.236364 0L232.727273 283.927273c9.309091 9.309091 9.309091 27.927273 0 37.236363-9.309091 9.309091-27.927273 9.309091-37.236364 0z" p-id="16233"></path><path d="M232.727273 321.163636l102.4-102.4c9.309091-9.309091 9.309091-27.927273 0-37.236363-9.309091-9.309091-27.927273-9.309091-37.236364 0L195.490909 283.927273c-9.309091 9.309091-9.309091 27.927273 0 37.236363 9.309091 9.309091 27.927273 9.309091 37.236364 0zM311.854545 446.836364H116.363636c-13.963636 0-23.272727-9.309091-23.272727-23.272728s9.309091-23.272727 23.272727-23.272727h195.490909c13.963636 0 23.272727 9.309091 23.272728 23.272727 4.654545 13.963636-9.309091 23.272727-23.272728 23.272728z" p-id="16234"></path></svg>