<svg width="20" height="20" viewBox="0 0 20 20" fill="none" xmlns="http://www.w3.org/2000/svg">
<mask id="path-1-outside-1_254_34097" maskUnits="userSpaceOnUse" x="1" y="1" width="18" height="18" fill="black">
<rect fill="white" x="1" y="1" width="18" height="18"/>
<path d="M7.90625 11.8134C5.816 11.6857 4.0295 11.1541 2.98438 10.4122V11.8432C2.98438 12.8186 5.11231 13.6286 7.90625 13.7838V14.7665C5.816 14.6388 4.0295 14.1084 2.98438 13.3648V14.7963H2V5.44531C2 3.54237 5.08475 2 8.89062 2C12.6954 2 15.7801 3.54237 15.7801 5.44531V8.55369H14.7957V7.22056C13.5903 8.22069 11.396 8.89006 8.89006 8.89006C6.38412 8.89006 4.19038 8.22069 2.98381 7.22056V8.89006C2.98381 9.86544 5.11231 10.676 7.90569 10.8313L7.90625 11.8134ZM8.89062 17.7489C5.08475 17.7489 2 16.4276 2 14.7963H2.98438C2.98438 15.8842 5.62812 16.7645 8.89062 16.7645V17.7489ZM8.89062 7.90569C12.152 7.90569 14.7963 6.80319 14.7963 5.44531C14.7963 4.08687 12.1526 2.98437 8.89006 2.98437C5.62812 2.98437 2.98381 4.08687 2.98381 5.44531C2.98381 6.80319 5.62869 7.90569 8.89062 7.90569ZM17.4558 14.3632L16.7707 13.9638C16.8089 13.7546 16.8337 13.5408 16.8337 13.3198C16.8323 13.1034 16.8112 12.8876 16.7707 12.6751L17.4558 12.2757C17.7365 12.1104 17.8321 11.7504 17.6701 11.468L17.0851 10.4454C17.0471 10.3782 16.9962 10.3192 16.9352 10.2718C16.8742 10.2245 16.8044 10.1897 16.7299 10.1696C16.6554 10.1494 16.5776 10.1443 16.5011 10.1545C16.4245 10.1646 16.3508 10.1899 16.2841 10.2288L15.5911 10.6327C15.2673 10.3505 14.8943 10.1303 14.4909 9.983V9.48069C14.4909 9.155 14.2293 8.89006 13.9053 8.89006H12.7342C12.6569 8.89036 12.5805 8.90587 12.5092 8.93571C12.4379 8.96555 12.3732 9.00914 12.3188 9.06398C12.2644 9.11883 12.2213 9.18386 12.192 9.25535C12.1627 9.32685 12.1478 9.40342 12.1481 9.48069V9.983C11.7446 10.1303 11.3716 10.3505 11.0478 10.6327L10.3548 10.2288C10.2882 10.19 10.2145 10.1648 10.138 10.1547C10.0615 10.1446 9.98381 10.1497 9.90935 10.1699C9.83489 10.19 9.76517 10.2247 9.70424 10.272C9.6433 10.3193 9.59237 10.3782 9.55438 10.4454L8.96938 11.4691C8.89148 11.6047 8.87024 11.7655 8.91027 11.9167C8.95029 12.0678 9.04835 12.1971 9.18313 12.2763L9.86881 12.6751C9.82831 12.8872 9.80694 13.1032 9.80581 13.3198C9.80581 13.5408 9.83 13.7546 9.86881 13.9644L9.18369 14.3638C8.90244 14.5286 8.80681 14.8886 8.96881 15.1709L9.55438 16.1936C9.59237 16.2607 9.6433 16.3196 9.70424 16.3669C9.76517 16.4142 9.83489 16.4489 9.90935 16.4691C9.98381 16.4892 10.0615 16.4944 10.138 16.4843C10.2145 16.4741 10.2882 16.4489 10.3548 16.4101L11.0478 16.0068C11.3715 16.2892 11.7445 16.5094 12.1481 16.6565V17.1582C12.1481 17.4845 12.4102 17.7489 12.7342 17.7489H13.9053C14.0613 17.7481 14.2105 17.6855 14.3203 17.5748C14.4301 17.464 14.4915 17.3142 14.4909 17.1582V16.6565C14.8943 16.5092 15.2673 16.289 15.5911 16.0068L16.2841 16.4101C16.3508 16.4488 16.4245 16.4739 16.5009 16.4839C16.5774 16.4939 16.655 16.4887 16.7295 16.4686C16.8039 16.4485 16.8736 16.4138 16.9345 16.3666C16.9955 16.3194 17.0465 16.2606 17.0846 16.1936L17.6701 15.1698C17.7478 15.0342 17.7688 14.8735 17.7287 14.7225C17.6886 14.5714 17.5905 14.4423 17.4558 14.3632ZM16.7285 14.9448L16.4585 15.4044C16.4217 15.4654 16.3626 15.5097 16.2936 15.5276C16.2246 15.5456 16.1514 15.5359 16.0895 15.5006L15.3397 15.0759C14.9497 15.5077 14.4309 15.8024 13.8603 15.9162V16.5001C13.8603 16.6458 13.7388 16.7645 13.5892 16.7645H13.0497C13.0146 16.7648 12.9797 16.7582 12.9471 16.745C12.9145 16.7318 12.8848 16.7123 12.8598 16.6877C12.8347 16.663 12.8147 16.6337 12.801 16.6013C12.7873 16.5689 12.78 16.5342 12.7797 16.499V15.9162C12.2089 15.8025 11.6899 15.5078 11.2998 15.0759L10.55 15.5C10.4881 15.5355 10.4147 15.5453 10.3456 15.5273C10.2765 15.5094 10.2172 15.465 10.1804 15.4038L9.91044 14.9442C9.89279 14.9141 9.88135 14.8808 9.87678 14.8462C9.87221 14.8116 9.87461 14.7765 9.88384 14.7428C9.89306 14.7092 9.90893 14.6777 9.9305 14.6503C9.95207 14.6229 9.97891 14.6 10.0094 14.5831L10.7626 14.1556C10.6693 13.8866 10.621 13.604 10.6198 13.3192C10.6198 13.0256 10.6726 12.746 10.7632 12.4822L10.0094 12.0547C9.97903 12.0377 9.95231 12.0149 9.93085 11.9875C9.90938 11.9601 9.8936 11.9287 9.88444 11.8951C9.87527 11.8615 9.8729 11.8264 9.87746 11.7919C9.88202 11.7574 9.89342 11.7242 9.911 11.6941L10.181 11.234C10.2178 11.1729 10.2769 11.1287 10.3459 11.1107C10.4149 11.0928 10.4881 11.1025 10.55 11.1378L11.2998 11.5631C11.6898 11.1312 12.2086 10.8365 12.7792 10.7227V10.1394C12.7792 9.99312 12.9001 9.875 13.0497 9.875H13.5898C13.7388 9.875 13.8597 9.99313 13.8597 10.1405V10.7232C14.4304 10.8371 14.9491 11.1318 15.3391 11.5636L16.0895 11.1384C16.1514 11.103 16.2246 11.0933 16.2936 11.1113C16.3626 11.1293 16.4217 11.1735 16.4585 11.2346L16.7285 11.6947C16.7462 11.7248 16.7576 11.7581 16.7623 11.7926C16.7669 11.8272 16.7645 11.8623 16.7553 11.896C16.7462 11.9296 16.7304 11.9611 16.7088 11.9886C16.6873 12.016 16.6605 12.0389 16.6301 12.0558L15.8769 12.4833C15.9652 12.7466 16.0197 13.0261 16.0197 13.3198C16.0197 13.6128 15.9663 13.8924 15.8769 14.1562L16.6301 14.5837C16.6605 14.6006 16.6873 14.6235 16.7088 14.6509C16.7304 14.6784 16.7462 14.7099 16.7553 14.7435C16.7645 14.7772 16.7669 14.8123 16.7623 14.8469C16.7576 14.8814 16.7462 14.9147 16.7285 14.9448ZM13.3197 11.8432C12.9281 11.8432 12.5526 11.9988 12.2757 12.2757C11.9988 12.5526 11.8432 12.9281 11.8432 13.3198C11.8432 13.7114 11.9988 14.0869 12.2757 14.3638C12.5526 14.6407 12.9281 14.7963 13.3197 14.7963C13.7114 14.7963 14.0869 14.6407 14.3638 14.3638C14.6407 14.0869 14.7963 13.7114 14.7963 13.3198C14.7963 12.9281 14.6407 12.5526 14.3638 12.2757C14.0869 11.9988 13.7114 11.8432 13.3197 11.8432ZM13.3197 13.8119C13.1892 13.8119 13.064 13.7601 12.9717 13.6678C12.8794 13.5755 12.8276 13.4503 12.8276 13.3198C12.8276 13.1892 12.8794 13.064 12.9717 12.9717C13.064 12.8794 13.1892 12.8276 13.3197 12.8276C13.4503 12.8276 13.5755 12.8794 13.6678 12.9717C13.7601 13.064 13.8119 13.1892 13.8119 13.3198C13.8119 13.4503 13.7601 13.5755 13.6678 13.6678C13.5755 13.7601 13.4503 13.8119 13.3197 13.8119Z"/>
</mask>
<path d="M7.90625 11.8134C5.816 11.6857 4.0295 11.1541 2.98438 10.4122V11.8432C2.98438 12.8186 5.11231 13.6286 7.90625 13.7838V14.7665C5.816 14.6388 4.0295 14.1084 2.98438 13.3648V14.7963H2V5.44531C2 3.54237 5.08475 2 8.89062 2C12.6954 2 15.7801 3.54237 15.7801 5.44531V8.55369H14.7957V7.22056C13.5903 8.22069 11.396 8.89006 8.89006 8.89006C6.38412 8.89006 4.19038 8.22069 2.98381 7.22056V8.89006C2.98381 9.86544 5.11231 10.676 7.90569 10.8313L7.90625 11.8134ZM8.89062 17.7489C5.08475 17.7489 2 16.4276 2 14.7963H2.98438C2.98438 15.8842 5.62812 16.7645 8.89062 16.7645V17.7489ZM8.89062 7.90569C12.152 7.90569 14.7963 6.80319 14.7963 5.44531C14.7963 4.08687 12.1526 2.98437 8.89006 2.98437C5.62812 2.98437 2.98381 4.08687 2.98381 5.44531C2.98381 6.80319 5.62869 7.90569 8.89062 7.90569ZM17.4558 14.3632L16.7707 13.9638C16.8089 13.7546 16.8337 13.5408 16.8337 13.3198C16.8323 13.1034 16.8112 12.8876 16.7707 12.6751L17.4558 12.2757C17.7365 12.1104 17.8321 11.7504 17.6701 11.468L17.0851 10.4454C17.0471 10.3782 16.9962 10.3192 16.9352 10.2718C16.8742 10.2245 16.8044 10.1897 16.7299 10.1696C16.6554 10.1494 16.5776 10.1443 16.5011 10.1545C16.4245 10.1646 16.3508 10.1899 16.2841 10.2288L15.5911 10.6327C15.2673 10.3505 14.8943 10.1303 14.4909 9.983V9.48069C14.4909 9.155 14.2293 8.89006 13.9053 8.89006H12.7342C12.6569 8.89036 12.5805 8.90587 12.5092 8.93571C12.4379 8.96555 12.3732 9.00914 12.3188 9.06398C12.2644 9.11883 12.2213 9.18386 12.192 9.25535C12.1627 9.32685 12.1478 9.40342 12.1481 9.48069V9.983C11.7446 10.1303 11.3716 10.3505 11.0478 10.6327L10.3548 10.2288C10.2882 10.19 10.2145 10.1648 10.138 10.1547C10.0615 10.1446 9.98381 10.1497 9.90935 10.1699C9.83489 10.19 9.76517 10.2247 9.70424 10.272C9.6433 10.3193 9.59237 10.3782 9.55438 10.4454L8.96938 11.4691C8.89148 11.6047 8.87024 11.7655 8.91027 11.9167C8.95029 12.0678 9.04835 12.1971 9.18313 12.2763L9.86881 12.6751C9.82831 12.8872 9.80694 13.1032 9.80581 13.3198C9.80581 13.5408 9.83 13.7546 9.86881 13.9644L9.18369 14.3638C8.90244 14.5286 8.80681 14.8886 8.96881 15.1709L9.55438 16.1936C9.59237 16.2607 9.6433 16.3196 9.70424 16.3669C9.76517 16.4142 9.83489 16.4489 9.90935 16.4691C9.98381 16.4892 10.0615 16.4944 10.138 16.4843C10.2145 16.4741 10.2882 16.4489 10.3548 16.4101L11.0478 16.0068C11.3715 16.2892 11.7445 16.5094 12.1481 16.6565V17.1582C12.1481 17.4845 12.4102 17.7489 12.7342 17.7489H13.9053C14.0613 17.7481 14.2105 17.6855 14.3203 17.5748C14.4301 17.464 14.4915 17.3142 14.4909 17.1582V16.6565C14.8943 16.5092 15.2673 16.289 15.5911 16.0068L16.2841 16.4101C16.3508 16.4488 16.4245 16.4739 16.5009 16.4839C16.5774 16.4939 16.655 16.4887 16.7295 16.4686C16.8039 16.4485 16.8736 16.4138 16.9345 16.3666C16.9955 16.3194 17.0465 16.2606 17.0846 16.1936L17.6701 15.1698C17.7478 15.0342 17.7688 14.8735 17.7287 14.7225C17.6886 14.5714 17.5905 14.4423 17.4558 14.3632ZM16.7285 14.9448L16.4585 15.4044C16.4217 15.4654 16.3626 15.5097 16.2936 15.5276C16.2246 15.5456 16.1514 15.5359 16.0895 15.5006L15.3397 15.0759C14.9497 15.5077 14.4309 15.8024 13.8603 15.9162V16.5001C13.8603 16.6458 13.7388 16.7645 13.5892 16.7645H13.0497C13.0146 16.7648 12.9797 16.7582 12.9471 16.745C12.9145 16.7318 12.8848 16.7123 12.8598 16.6877C12.8347 16.663 12.8147 16.6337 12.801 16.6013C12.7873 16.5689 12.78 16.5342 12.7797 16.499V15.9162C12.2089 15.8025 11.6899 15.5078 11.2998 15.0759L10.55 15.5C10.4881 15.5355 10.4147 15.5453 10.3456 15.5273C10.2765 15.5094 10.2172 15.465 10.1804 15.4038L9.91044 14.9442C9.89279 14.9141 9.88135 14.8808 9.87678 14.8462C9.87221 14.8116 9.87461 14.7765 9.88384 14.7428C9.89306 14.7092 9.90893 14.6777 9.9305 14.6503C9.95207 14.6229 9.97891 14.6 10.0094 14.5831L10.7626 14.1556C10.6693 13.8866 10.621 13.604 10.6198 13.3192C10.6198 13.0256 10.6726 12.746 10.7632 12.4822L10.0094 12.0547C9.97903 12.0377 9.95231 12.0149 9.93085 11.9875C9.90938 11.9601 9.8936 11.9287 9.88444 11.8951C9.87527 11.8615 9.8729 11.8264 9.87746 11.7919C9.88202 11.7574 9.89342 11.7242 9.911 11.6941L10.181 11.234C10.2178 11.1729 10.2769 11.1287 10.3459 11.1107C10.4149 11.0928 10.4881 11.1025 10.55 11.1378L11.2998 11.5631C11.6898 11.1312 12.2086 10.8365 12.7792 10.7227V10.1394C12.7792 9.99312 12.9001 9.875 13.0497 9.875H13.5898C13.7388 9.875 13.8597 9.99313 13.8597 10.1405V10.7232C14.4304 10.8371 14.9491 11.1318 15.3391 11.5636L16.0895 11.1384C16.1514 11.103 16.2246 11.0933 16.2936 11.1113C16.3626 11.1293 16.4217 11.1735 16.4585 11.2346L16.7285 11.6947C16.7462 11.7248 16.7576 11.7581 16.7623 11.7926C16.7669 11.8272 16.7645 11.8623 16.7553 11.896C16.7462 11.9296 16.7304 11.9611 16.7088 11.9886C16.6873 12.016 16.6605 12.0389 16.6301 12.0558L15.8769 12.4833C15.9652 12.7466 16.0197 13.0261 16.0197 13.3198C16.0197 13.6128 15.9663 13.8924 15.8769 14.1562L16.6301 14.5837C16.6605 14.6006 16.6873 14.6235 16.7088 14.6509C16.7304 14.6784 16.7462 14.7099 16.7553 14.7435C16.7645 14.7772 16.7669 14.8123 16.7623 14.8469C16.7576 14.8814 16.7462 14.9147 16.7285 14.9448ZM13.3197 11.8432C12.9281 11.8432 12.5526 11.9988 12.2757 12.2757C11.9988 12.5526 11.8432 12.9281 11.8432 13.3198C11.8432 13.7114 11.9988 14.0869 12.2757 14.3638C12.5526 14.6407 12.9281 14.7963 13.3197 14.7963C13.7114 14.7963 14.0869 14.6407 14.3638 14.3638C14.6407 14.0869 14.7963 13.7114 14.7963 13.3198C14.7963 12.9281 14.6407 12.5526 14.3638 12.2757C14.0869 11.9988 13.7114 11.8432 13.3197 11.8432ZM13.3197 13.8119C13.1892 13.8119 13.064 13.7601 12.9717 13.6678C12.8794 13.5755 12.8276 13.4503 12.8276 13.3198C12.8276 13.1892 12.8794 13.064 12.9717 12.9717C13.064 12.8794 13.1892 12.8276 13.3197 12.8276C13.4503 12.8276 13.5755 12.8794 13.6678 12.9717C13.7601 13.064 13.8119 13.1892 13.8119 13.3198C13.8119 13.4503 13.7601 13.5755 13.6678 13.6678C13.5755 13.7601 13.4503 13.8119 13.3197 13.8119Z" fill="#333333"/>
<path d="M2.98438 14.6463H2V14.9463H2.98438V14.6463ZM7.90625 11.8134L7.88796 12.1128L8.20643 12.1323L8.20625 11.8132L7.90625 11.8134ZM2.98438 10.4122L3.15804 10.1676L2.68437 9.83131V10.4122H2.98438ZM7.90625 13.7838H8.20625V13.5L7.92289 13.4843L7.90625 13.7838ZM7.90625 14.7665L7.88796 15.0659L8.20625 15.0854V14.7665H7.90625ZM2.98438 13.3648L3.1583 13.1203L2.68437 12.7831V13.3648H2.98438ZM15.7801 8.55369V8.85369H16.0801V8.55369H15.7801ZM14.7957 8.55369H14.4957V8.85369H14.7957V8.55369ZM14.7957 7.22056H15.0957V6.58185L14.6042 6.98968L14.7957 7.22056ZM2.98381 7.22056L3.17526 6.98959L2.68381 6.58223V7.22056H2.98381ZM7.90569 10.8313L8.20569 10.8311L8.20552 10.5475L7.92234 10.5317L7.90569 10.8313ZM8.89062 17.7489V18.0489H9.19063V17.7489H8.89062ZM8.89062 16.7645H9.19063V16.4645H8.89062V16.7645ZM17.4558 14.3632L17.6078 14.1045L17.6069 14.104L17.4558 14.3632ZM16.7707 13.9638L16.4756 13.9099L16.4377 14.117L16.6196 14.223L16.7707 13.9638ZM16.8337 13.3198L17.1337 13.3198L17.1337 13.3178L16.8337 13.3198ZM16.7707 12.6751L16.6196 12.4159L16.4362 12.5228L16.476 12.7313L16.7707 12.6751ZM17.4558 12.2757L17.6069 12.5349L17.6081 12.5342L17.4558 12.2757ZM17.6701 11.468L17.4097 11.617L17.4099 11.6173L17.6701 11.468ZM17.0851 10.4454L16.824 10.593L16.8247 10.5943L17.0851 10.4454ZM16.2841 10.2288L16.4352 10.488L16.4353 10.4879L16.2841 10.2288ZM15.5911 10.6327L15.394 10.8589L15.5563 11.0002L15.7422 10.8919L15.5911 10.6327ZM14.4909 9.983H14.1909V10.1928L14.388 10.2648L14.4909 9.983ZM12.7342 8.89006L12.7342 8.59006L12.733 8.59006L12.7342 8.89006ZM12.1481 9.48069L12.4481 9.48069L12.4481 9.47954L12.1481 9.48069ZM12.1481 9.983L12.251 10.2648L12.4481 10.1928V9.983H12.1481ZM11.0478 10.6327L10.8968 10.8919L11.0827 11.0002L11.2449 10.8589L11.0478 10.6327ZM10.3548 10.2288L10.5059 9.96962L10.5058 9.96957L10.3548 10.2288ZM9.55438 10.4454L9.81485 10.5942L9.81547 10.5931L9.55438 10.4454ZM8.96938 11.4691L9.2295 11.6186L9.22985 11.618L8.96938 11.4691ZM9.18313 12.2763L9.03106 12.5349L9.03229 12.5356L9.18313 12.2763ZM9.86881 12.6751L10.1635 12.7314L10.2034 12.5227L10.0196 12.4158L9.86881 12.6751ZM9.80581 13.3198L9.50581 13.3182V13.3198H9.80581ZM9.86881 13.9644L10.0199 14.2236L10.2022 14.1173L10.1638 13.9098L9.86881 13.9644ZM9.18369 14.3638L9.0326 14.1046L9.03201 14.1049L9.18369 14.3638ZM8.96881 15.1709L9.22915 15.0219L9.22903 15.0217L8.96881 15.1709ZM9.55438 16.1936L9.81547 16.0458L9.81472 16.0445L9.55438 16.1936ZM10.3548 16.4101L10.2039 16.1508L10.2038 16.1509L10.3548 16.4101ZM11.0478 16.0068L11.245 15.7807L11.0829 15.6393L10.8969 15.7475L11.0478 16.0068ZM12.1481 16.6565H12.4481V16.4465L12.2508 16.3746L12.1481 16.6565ZM13.9053 17.7489L13.9053 18.0489L13.9067 18.0489L13.9053 17.7489ZM14.4909 17.1582L14.1909 17.1582L14.1909 17.1594L14.4909 17.1582ZM14.4909 16.6565L14.388 16.3747L14.1909 16.4467V16.6565H14.4909ZM15.5911 16.0068L15.742 15.7475L15.5562 15.6394L15.394 15.7806L15.5911 16.0068ZM16.2841 16.4101L16.1332 16.6694L16.1337 16.6697L16.2841 16.4101ZM17.0846 16.1936L16.8242 16.0446L16.8238 16.0453L17.0846 16.1936ZM17.6701 15.1698L17.4098 15.0207L17.4097 15.0209L17.6701 15.1698ZM16.7285 14.9448L16.4698 14.7928L16.4698 14.7928L16.7285 14.9448ZM16.4585 15.4044L16.7155 15.5591L16.7172 15.5563L16.4585 15.4044ZM16.0895 15.5006L16.2383 15.24L16.2373 15.2395L16.0895 15.5006ZM15.3397 15.0759L15.4875 14.8148L15.2782 14.6963L15.117 14.8748L15.3397 15.0759ZM13.8603 15.9162L13.8016 15.622L13.5603 15.6702V15.9162H13.8603ZM13.0497 16.7645L13.0497 16.4645L13.0472 16.4645L13.0497 16.7645ZM12.7797 16.499L12.4797 16.499L12.4798 16.5015L12.7797 16.499ZM12.7797 15.9162H13.0797V15.6701L12.8384 15.622L12.7797 15.9162ZM11.2998 15.0759L11.5225 14.8748L11.3613 14.6964L11.1521 14.8148L11.2998 15.0759ZM10.55 15.5L10.4023 15.2389L10.4008 15.2397L10.55 15.5ZM10.1804 15.4038L9.92176 15.5558L9.92327 15.5583L10.1804 15.4038ZM9.91044 14.9442L9.65162 15.096L9.65178 15.0962L9.91044 14.9442ZM10.0094 14.5831L10.1547 14.8456L10.1575 14.844L10.0094 14.5831ZM10.7626 14.1556L10.9107 14.4165L11.1279 14.2933L11.0461 14.0573L10.7626 14.1556ZM10.6198 13.3192L10.3197 13.3192L10.3198 13.3205L10.6198 13.3192ZM10.7632 12.4822L11.0469 12.5796L11.1278 12.3441L10.9112 12.2212L10.7632 12.4822ZM10.0094 12.0547L10.1574 11.7937L10.1555 11.7926L10.0094 12.0547ZM9.911 11.6941L9.65226 11.5423L9.65206 11.5426L9.911 11.6941ZM10.181 11.234L9.92397 11.0792L9.92226 11.0822L10.181 11.234ZM10.55 11.1378L10.4012 11.3983L10.402 11.3988L10.55 11.1378ZM11.2998 11.5631L11.1518 11.824L11.3612 11.9427L11.5225 11.7641L11.2998 11.5631ZM12.7792 10.7227L12.8379 11.0169L13.0792 10.9688V10.7227H12.7792ZM13.8597 10.7232H13.5597V10.9693L13.8011 11.0175L13.8597 10.7232ZM15.3391 11.5636L15.1165 11.7647L15.2777 11.9433L15.487 11.8246L15.3391 11.5636ZM16.0895 11.1384L16.2374 11.3994L16.2383 11.3989L16.0895 11.1384ZM16.4585 11.2346L16.7173 11.0827L16.7155 11.0798L16.4585 11.2346ZM16.7285 11.6947L16.4698 11.8465L16.4698 11.8467L16.7285 11.6947ZM16.6301 12.0558L16.4843 11.7936L16.482 11.7949L16.6301 12.0558ZM15.8769 12.4833L15.7288 12.2224L15.5138 12.3444L15.5925 12.5787L15.8769 12.4833ZM15.8769 14.1562L15.5928 14.0599L15.5131 14.2947L15.7288 14.4171L15.8769 14.1562ZM16.6301 14.5837L16.482 14.8446L16.4843 14.8459L16.6301 14.5837ZM13.3197 11.8432V12.1432V11.8432ZM7.92454 11.5139C5.86334 11.388 4.13966 10.8644 3.15804 10.1676L2.81071 10.6568C3.91934 11.4438 5.76866 11.9834 7.88796 12.1128L7.92454 11.5139ZM2.68437 10.4122V11.8432H3.28438V10.4122H2.68437ZM2.68437 11.8432C2.68437 12.2047 2.88261 12.5133 3.16152 12.7606C3.44102 13.0083 3.82993 13.2216 4.28854 13.4005C5.20809 13.7593 6.47199 14.0046 7.88961 14.0833L7.92289 13.4843C6.54657 13.4078 5.34954 13.1704 4.50663 12.8416C4.08402 12.6767 3.76632 12.4949 3.55952 12.3116C3.35213 12.1277 3.28438 11.9693 3.28438 11.8432H2.68437ZM7.60625 13.7838V14.7665H8.20625V13.7838H7.60625ZM7.92454 14.4671C5.86314 14.3411 4.13971 13.8186 3.1583 13.1203L2.81045 13.6092C3.91929 14.3981 5.76886 14.9365 7.88796 15.0659L7.92454 14.4671ZM2.68437 13.3648V14.7963H3.28438V13.3648H2.68437ZM2.3 14.7963V5.44531H1.7V14.7963H2.3ZM2.3 5.44531C2.3 4.66868 2.93726 3.88489 4.15227 3.27738C5.34935 2.67884 7.02416 2.3 8.89062 2.3V1.7C6.95122 1.7 5.18071 2.09235 3.88395 2.74073C2.60511 3.38014 1.7 4.31901 1.7 5.44531H2.3ZM8.89062 2.3C10.7565 2.3 12.431 2.67884 13.628 3.27738C14.8429 3.88488 15.4801 4.66867 15.4801 5.44531H16.0801C16.0801 4.31902 15.175 3.38015 13.8963 2.74073C12.5997 2.09235 10.8295 1.7 8.89062 1.7V2.3ZM15.4801 5.44531V8.55369H16.0801V5.44531H15.4801ZM15.7801 8.25369H14.7957V8.85369H15.7801V8.25369ZM15.0957 8.55369V7.22056H14.4957V8.55369H15.0957ZM14.6042 6.98968C13.472 7.92905 11.3562 8.59006 8.89006 8.59006V9.19006C11.4358 9.19006 13.7086 8.51233 14.9873 7.45144L14.6042 6.98968ZM8.89006 8.59006C6.42395 8.59006 4.30867 7.92908 3.17526 6.98959L2.79236 7.45153C4.07208 8.5123 6.3443 9.19006 8.89006 9.19006V8.59006ZM2.68381 7.22056V8.89006H3.28381V7.22056H2.68381ZM2.68381 8.89006C2.68381 9.25161 2.8821 9.56026 3.16103 9.80752C3.44056 10.0553 3.82951 10.2687 4.28816 10.4477C5.20777 10.8066 6.47168 11.052 7.88904 11.1308L7.92234 10.5317C6.54632 10.4552 5.34929 10.2177 4.50631 9.88873C4.08366 9.72377 3.7659 9.54191 3.55904 9.35853C3.35159 9.17463 3.28381 9.0162 3.28381 8.89006H2.68381ZM7.60569 10.8314L7.60625 11.8135L8.20625 11.8132L8.20569 10.8311L7.60569 10.8314ZM8.89062 17.4489C7.01832 17.4489 5.33764 17.1233 4.13626 16.6086C3.53503 16.351 3.06767 16.0519 2.75498 15.7351C2.44357 15.4196 2.3 15.1027 2.3 14.7963H1.7C1.7 15.3056 1.94203 15.7656 2.32794 16.1566C2.71257 16.5463 3.25427 16.8834 3.89996 17.1601C5.19242 17.7138 6.95706 18.0489 8.89062 18.0489V17.4489ZM2.68437 14.7963C2.68437 15.1995 2.92966 15.5359 3.26274 15.7984C3.59917 16.0636 4.06739 16.2891 4.61924 16.473C5.72607 16.8417 7.23615 17.0645 8.89062 17.0645V16.4645C7.2826 16.4645 5.83955 16.2471 4.80889 15.9037C4.29198 15.7315 3.89537 15.5331 3.63413 15.3272C3.36956 15.1187 3.28438 14.937 3.28438 14.7963H2.68437ZM8.59062 16.7645V17.7489H9.19063V16.7645H8.59062ZM8.89062 8.20569C10.5511 8.20569 12.0684 7.9256 13.1819 7.46162C13.7379 7.22991 14.2075 6.9464 14.5427 6.61635C14.8789 6.28528 15.0963 5.88937 15.0963 5.44531H14.4963C14.4963 5.6802 14.3832 5.93129 14.1217 6.18885C13.8591 6.44742 13.4638 6.69414 12.9511 6.90778C11.927 7.33452 10.4916 7.60569 8.89062 7.60569V8.20569ZM15.0963 5.44531C15.0963 5.00118 14.879 4.60516 14.5428 4.27399C14.2077 3.94384 13.7381 3.66028 13.182 3.42852C12.0686 2.96446 10.551 2.68437 8.89006 2.68437V3.28438C10.4916 3.28438 11.9272 3.55554 12.9512 3.98234C13.4639 4.19601 13.8592 4.44278 14.1217 4.70141C14.3832 4.95902 14.4963 5.21023 14.4963 5.44531H15.0963ZM8.89006 2.68437C7.22936 2.68437 5.71183 2.96446 4.59831 3.42851C4.0422 3.66027 3.5726 3.94383 3.23743 4.27397C2.90122 4.60514 2.68381 5.00116 2.68381 5.44531H3.28381C3.28381 5.21025 3.39694 4.95904 3.65848 4.70143C3.92105 4.44279 4.3164 4.19602 4.82911 3.98234C5.85324 3.55554 7.28883 3.28438 8.89006 3.28438V2.68437ZM2.68381 5.44531C2.68381 5.88939 2.90131 6.28531 3.23757 6.61638C3.57279 6.94642 4.04245 7.22992 4.59862 7.46163C5.71226 7.92561 7.22992 8.20569 8.89062 8.20569V7.60569C7.28939 7.60569 5.85365 7.33452 4.82937 6.90778C4.31657 6.69413 3.92115 6.4474 3.65852 6.18882C3.39692 5.93126 3.28381 5.68017 3.28381 5.44531H2.68381ZM17.6069 14.104L16.9218 13.7046L16.6196 14.223L17.3047 14.6224L17.6069 14.104ZM17.0658 14.0178C17.1064 13.7956 17.1337 13.5632 17.1337 13.3198H16.5337C16.5337 13.5184 16.5115 13.7136 16.4756 13.9099L17.0658 14.0178ZM17.1337 13.3178C17.1322 13.0833 17.1093 12.8493 17.0654 12.6189L16.476 12.7313C16.5131 12.9259 16.5324 13.1235 16.5337 13.3217L17.1337 13.3178ZM16.9218 12.9343L17.6069 12.5349L17.3047 12.0166L16.6196 12.4159L16.9218 12.9343ZM17.6081 12.5342C18.03 12.2856 18.1743 11.744 17.9303 11.3187L17.4099 11.6173C17.4899 11.7568 17.443 11.9351 17.3035 12.0173L17.6081 12.5342ZM17.9305 11.319L17.3455 10.2964L16.8247 10.5943L17.4097 11.617L17.9305 11.319ZM17.3463 10.2977C17.2887 10.1959 17.2115 10.1066 17.1192 10.0349L16.7512 10.5088C16.7808 10.5318 16.8055 10.5604 16.824 10.593L17.3463 10.2977ZM17.1192 10.0349C17.0268 9.96316 16.9211 9.91051 16.8082 9.87999L16.6516 10.4592C16.6878 10.469 16.7216 10.4858 16.7512 10.5088L17.1192 10.0349ZM16.8082 9.87999C16.6953 9.84947 16.5775 9.84168 16.4616 9.85708L16.5406 10.4519C16.5777 10.4469 16.6155 10.4494 16.6516 10.4592L16.8082 9.87999ZM16.4616 9.85708C16.3456 9.87248 16.2339 9.91076 16.1329 9.9697L16.4353 10.4879C16.4677 10.4691 16.5034 10.4568 16.5406 10.4519L16.4616 9.85708ZM16.1331 9.96962L15.4401 10.3735L15.7422 10.8919L16.4352 10.488L16.1331 9.96962ZM15.7882 10.4065C15.4366 10.1002 15.0318 9.86111 14.5938 9.70119L14.388 10.2648C14.7569 10.3995 15.0979 10.6009 15.394 10.8589L15.7882 10.4065ZM14.7909 9.983V9.48069H14.1909V9.983H14.7909ZM14.7909 9.48069C14.7909 8.99213 14.3978 8.59006 13.9053 8.59006V9.19006C14.0608 9.19006 14.1909 9.31787 14.1909 9.48069H14.7909ZM13.9053 8.59006H12.7342V9.19006H13.9053V8.59006ZM12.733 8.59006C12.6164 8.59051 12.5009 8.61393 12.3933 8.65899L12.6251 9.21243C12.66 9.19781 12.6975 9.1902 12.7353 9.19006L12.733 8.59006ZM12.3933 8.65899C12.2857 8.70404 12.188 8.76986 12.1059 8.85266L12.5317 9.2753C12.5584 9.24842 12.5901 9.22706 12.6251 9.21243L12.3933 8.65899ZM12.1059 8.85266C12.0237 8.93547 11.9586 9.03366 11.9144 9.14161L12.4696 9.3691C12.4839 9.33406 12.5051 9.30218 12.5317 9.2753L12.1059 8.85266ZM11.9144 9.14161C11.8702 9.24956 11.8476 9.36517 11.8481 9.48184L12.4481 9.47954C12.4479 9.44167 12.4552 9.40414 12.4696 9.3691L11.9144 9.14161ZM11.8481 9.48069V9.983H12.4481V9.48069H11.8481ZM12.0452 9.70119C11.6072 9.86111 11.2023 10.1002 10.8507 10.4065L11.2449 10.8589C11.541 10.6009 11.882 10.3995 12.251 10.2648L12.0452 9.70119ZM11.1989 10.3735L10.5059 9.96962L10.2038 10.488L10.8968 10.8919L11.1989 10.3735ZM10.5058 9.96957C10.4048 9.91077 10.2932 9.8726 10.1773 9.85727L10.0986 10.4521C10.1357 10.457 10.1715 10.4692 10.2038 10.4881L10.5058 9.96957ZM10.1773 9.85727C10.0615 9.84194 9.94379 9.84976 9.831 9.88028L9.9877 10.4595C10.0238 10.4497 10.0615 10.4472 10.0986 10.4521L10.1773 9.85727ZM9.831 9.88028C9.71821 9.91079 9.6126 9.9634 9.5203 10.035L9.88818 10.509C9.91775 10.4861 9.95157 10.4692 9.9877 10.4595L9.831 9.88028ZM9.5203 10.035C9.42799 10.1067 9.35083 10.1959 9.29328 10.2976L9.81547 10.5931C9.8339 10.5606 9.85862 10.532 9.88818 10.509L9.5203 10.035ZM9.2939 10.2965L8.7089 11.3203L9.22985 11.618L9.81485 10.5942L9.2939 10.2965ZM8.70925 11.3197C8.59198 11.5238 8.56 11.7659 8.62026 11.9935L9.20027 11.8399C9.18048 11.7651 9.19098 11.6856 9.2295 11.6186L8.70925 11.3197ZM8.62026 11.9935C8.68052 12.221 8.82815 12.4156 9.03106 12.5349L9.33519 12.0177C9.26855 11.9785 9.22006 11.9146 9.20027 11.8399L8.62026 11.9935ZM9.03229 12.5356L9.71798 12.9345L10.0196 12.4158L9.33396 12.017L9.03229 12.5356ZM9.57414 12.6188C9.53025 12.8486 9.50704 13.083 9.50582 13.3182L10.1058 13.3213C10.1068 13.1234 10.1264 12.9257 10.1635 12.7314L9.57414 12.6188ZM9.50581 13.3198C9.50581 13.5628 9.53243 13.7952 9.57382 14.0189L10.1638 13.9098C10.1276 13.7139 10.1058 13.5188 10.1058 13.3198H9.50581ZM9.71773 13.7052L9.03261 14.1046L9.33477 14.6229L10.0199 14.2236L9.71773 13.7052ZM9.03201 14.1049C8.60877 14.3529 8.46466 14.895 8.7086 15.3202L9.22903 15.0217C9.14896 14.8821 9.1961 14.7042 9.33536 14.6226L9.03201 14.1049ZM8.70847 15.32L9.29403 16.3426L9.81472 16.0445L9.22915 15.0219L8.70847 15.32ZM9.29328 16.3413C9.35083 16.443 9.42799 16.5323 9.5203 16.6039L9.88818 16.1299C9.85861 16.107 9.8339 16.0784 9.81547 16.0458L9.29328 16.3413ZM9.5203 16.6039C9.6126 16.6755 9.71821 16.7281 9.831 16.7587L9.9877 16.1795C9.95157 16.1697 9.91775 16.1529 9.88818 16.1299L9.5203 16.6039ZM9.831 16.7587C9.94379 16.7892 10.0615 16.797 10.1773 16.7817L10.0986 16.1869C10.0615 16.1918 10.0238 16.1893 9.9877 16.1795L9.831 16.7587ZM10.1773 16.7817C10.2932 16.7663 10.4048 16.7282 10.5058 16.6694L10.2038 16.1509C10.1715 16.1697 10.1357 16.1819 10.0986 16.1869L10.1773 16.7817ZM10.5057 16.6694L11.1987 16.2661L10.8969 15.7475L10.2039 16.1508L10.5057 16.6694ZM10.8506 16.2329C11.2021 16.5395 11.6071 16.7786 12.0453 16.9384L12.2508 16.3746C11.8819 16.2402 11.5409 16.0388 11.245 15.7807L10.8506 16.2329ZM11.8481 16.6565V17.1582H12.4481V16.6565H11.8481ZM11.8481 17.1582C11.8481 17.6479 12.2423 18.0489 12.7342 18.0489V17.4489C12.5781 17.4489 12.4481 17.3211 12.4481 17.1582H11.8481ZM12.7342 18.0489H13.9053V17.4489H12.7342V18.0489ZM13.9067 18.0489C14.1422 18.0477 14.3676 17.9532 14.5334 17.786L14.1073 17.3635C14.0535 17.4178 13.9803 17.4485 13.9039 17.4489L13.9067 18.0489ZM14.5334 17.786C14.6992 17.6188 14.7918 17.3926 14.7909 17.1571L14.1909 17.1594C14.1912 17.2358 14.1611 17.3093 14.1073 17.3635L14.5334 17.786ZM14.7909 17.1582V16.6565H14.1909V17.1582H14.7909ZM14.5938 16.9383C15.0318 16.7784 15.4366 16.5393 15.7882 16.233L15.394 15.7806C15.0979 16.0386 14.7569 16.24 14.388 16.3747L14.5938 16.9383ZM15.4402 16.2661L16.1332 16.6694L16.435 16.1508L15.742 15.7475L15.4402 16.2661ZM16.1337 16.6697C16.2346 16.7282 16.3462 16.7662 16.4619 16.7814L16.54 16.1865C16.5028 16.1816 16.467 16.1694 16.4346 16.1506L16.1337 16.6697ZM16.4619 16.7814C16.5776 16.7966 16.6952 16.7887 16.8078 16.7582L16.6511 16.179C16.6149 16.1888 16.5772 16.1913 16.54 16.1865L16.4619 16.7814ZM16.8078 16.7582C16.9205 16.7277 17.026 16.6752 17.1182 16.6038L16.7508 16.1294C16.7212 16.1524 16.6873 16.1692 16.6511 16.179L16.8078 16.7582ZM17.1182 16.6038C17.2105 16.5323 17.2877 16.4433 17.3454 16.3418L16.8238 16.0453C16.8052 16.0779 16.7804 16.1065 16.7508 16.1294L17.1182 16.6038ZM17.345 16.3425L17.9305 15.3188L17.4097 15.0209L16.8242 16.0446L17.345 16.3425ZM17.9304 15.3189C18.0474 15.1148 18.0791 14.8728 18.0187 14.6454L17.4388 14.7995C17.4586 14.8742 17.4482 14.9537 17.4098 15.0207L17.9304 15.3189ZM18.0187 14.6454C17.9583 14.4181 17.8106 14.2237 17.6078 14.1045L17.3038 14.6218C17.3705 14.661 17.4189 14.7248 17.4388 14.7995L18.0187 14.6454ZM16.4698 14.7928L16.1998 15.2524L16.7172 15.5563L16.9872 15.0968L16.4698 14.7928ZM16.2015 15.2496C16.2052 15.2435 16.2111 15.2391 16.2179 15.2373L16.3693 15.8179C16.5141 15.7802 16.6383 15.6873 16.7155 15.5591L16.2015 15.2496ZM16.2179 15.2373C16.2248 15.2356 16.2321 15.2365 16.2383 15.24L15.9407 15.7611C16.0707 15.8353 16.2245 15.8557 16.3693 15.8179L16.2179 15.2373ZM16.2373 15.2395L15.4875 14.8148L15.1918 15.3369L15.9417 15.7616L16.2373 15.2395ZM15.117 14.8748C14.7703 15.2588 14.309 15.5208 13.8016 15.622L13.919 16.2105C14.5529 16.084 15.1291 15.7567 15.5623 15.2769L15.117 14.8748ZM13.5603 15.9162V16.5001H14.1603V15.9162H13.5603ZM13.5603 16.5001C13.5603 16.4875 13.566 16.4775 13.5714 16.4722C13.5766 16.4671 13.5834 16.4645 13.5892 16.4645V17.0645C13.8975 17.0645 14.1603 16.8184 14.1603 16.5001H13.5603ZM13.5892 16.4645H13.0497V17.0645H13.5892V16.4645ZM13.0472 16.4645C13.0514 16.4645 13.0557 16.4653 13.0596 16.4669L12.8346 17.0231C12.9038 17.0511 12.9777 17.0651 13.0523 17.0645L13.0472 16.4645ZM13.0596 16.4669C13.0635 16.4684 13.0671 16.4708 13.0701 16.4738L12.6494 16.9016C12.7026 16.9539 12.7655 16.9952 12.8346 17.0231L13.0596 16.4669ZM13.0701 16.4738C13.0731 16.4767 13.0755 16.4803 13.0772 16.4842L12.5248 16.7184C12.5539 16.7871 12.5963 16.8493 12.6494 16.9016L13.0701 16.4738ZM13.0772 16.4842C13.0788 16.4881 13.0797 16.4923 13.0797 16.4965L12.4798 16.5015C12.4804 16.5761 12.4957 16.6498 12.5248 16.7184L13.0772 16.4842ZM13.0797 16.499V15.9162H12.4797V16.499H13.0797ZM12.8384 15.622C12.3308 15.5209 11.8693 15.2589 11.5225 14.8748L11.0772 15.277C11.5105 15.7568 12.087 16.0841 12.7211 16.2105L12.8384 15.622ZM11.1521 14.8148L10.4023 15.2389L10.6977 15.7611L11.4475 15.337L11.1521 14.8148ZM10.4008 15.2397C10.4069 15.2362 10.4143 15.2352 10.4211 15.237L10.27 15.8177C10.4151 15.8554 10.5692 15.8348 10.6992 15.7603L10.4008 15.2397ZM10.4211 15.237C10.428 15.2388 10.4339 15.2432 10.4376 15.2493L9.92327 15.5583C10.0005 15.6868 10.1249 15.7799 10.27 15.8177L10.4211 15.237ZM10.4391 15.2518L10.1691 14.7923L9.65178 15.0962L9.92178 15.5558L10.4391 15.2518ZM10.1693 14.7925C10.1718 14.797 10.1735 14.8019 10.1742 14.8069L9.57936 14.8855C9.58917 14.9598 9.61374 15.0313 9.65162 15.096L10.1693 14.7925ZM10.1742 14.8069C10.1749 14.812 10.1745 14.8172 10.1732 14.8221L9.59451 14.6635C9.5747 14.7358 9.56955 14.8112 9.57936 14.8855L10.1742 14.8069ZM10.1732 14.8221C10.1718 14.8271 10.1695 14.8317 10.1663 14.8357L9.69469 14.4648C9.64838 14.5237 9.61432 14.5913 9.59451 14.6635L10.1732 14.8221ZM10.1663 14.8357C10.1631 14.8398 10.1592 14.8431 10.1547 14.8456L9.86417 14.3206C9.79863 14.3569 9.741 14.4059 9.69469 14.4648L10.1663 14.8357ZM10.1575 14.844L10.9107 14.4165L10.6145 13.8947L9.86135 14.3222L10.1575 14.844ZM11.0461 14.0573C10.9635 13.8195 10.9209 13.5696 10.9197 13.3178L10.3198 13.3205C10.3212 13.6383 10.375 13.9537 10.4792 14.2539L11.0461 14.0573ZM10.9198 13.3192C10.9198 13.0621 10.966 12.8155 11.0469 12.5796L10.4794 12.3848C10.3793 12.6765 10.3198 12.989 10.3198 13.3192L10.9198 13.3192ZM10.9112 12.2212L10.1574 11.7937L9.86144 12.3156L10.6152 12.7431L10.9112 12.2212ZM10.1555 11.7926C10.1599 11.7951 10.1639 11.7985 10.167 11.8025L9.69467 12.1725C9.74075 12.2313 9.79812 12.2804 9.8634 12.3167L10.1555 11.7926ZM10.167 11.8025C10.1702 11.8065 10.1725 11.8112 10.1738 11.8161L9.59503 11.9741C9.61471 12.0462 9.64858 12.1136 9.69467 12.1725L10.167 11.8025ZM10.1738 11.8161C10.1752 11.821 10.1755 11.8262 10.1749 11.8312L9.58004 11.7526C9.57025 11.8267 9.57535 11.902 9.59503 11.9741L10.1738 11.8161ZM10.1749 11.8312C10.1742 11.8363 10.1725 11.8412 10.1699 11.8456L9.65206 11.5426C9.61432 11.6071 9.58984 11.6785 9.58004 11.7526L10.1749 11.8312ZM10.1697 11.846L10.4397 11.3858L9.92226 11.0822L9.65226 11.5423L10.1697 11.846ZM10.438 11.3887C10.4343 11.3948 10.4284 11.3992 10.4216 11.401L10.2702 10.8204C10.1254 10.8582 10.0012 10.9511 9.92399 11.0793L10.438 11.3887ZM10.4216 11.401C10.4147 11.4028 10.4074 11.4019 10.4012 11.3983L10.6988 10.8773C10.5688 10.8031 10.415 10.7827 10.2702 10.8204L10.4216 11.401ZM10.402 11.3988L11.1518 11.824L11.4478 11.3021L10.698 10.8769L10.402 11.3988ZM11.5225 11.7641C11.8692 11.3801 12.3305 11.1181 12.8379 11.0169L12.7205 10.4285C12.0866 10.5549 11.5104 10.8823 11.0772 11.362L11.5225 11.7641ZM13.0792 10.7227V10.1394H12.4792V10.7227H13.0792ZM13.0792 10.1394C13.0792 10.1653 13.0592 10.175 13.0497 10.175V9.575C12.7411 9.575 12.4792 9.8209 12.4792 10.1394H13.0792ZM13.0497 10.175H13.5898V9.575H13.0497V10.175ZM13.5898 10.175C13.5785 10.175 13.5597 10.1641 13.5597 10.1405H14.1597C14.1597 9.82213 13.8991 9.575 13.5898 9.575V10.175ZM13.5597 10.1405V10.7232H14.1597V10.1405H13.5597ZM13.8011 11.0175C14.3085 11.1187 14.7697 11.3807 15.1165 11.7647L15.5618 11.3626C15.1286 10.8828 14.5523 10.5555 13.9184 10.429L13.8011 11.0175ZM15.487 11.8246L16.2374 11.3994L15.9416 10.8774L15.1912 11.3026L15.487 11.8246ZM16.2383 11.3989C16.2321 11.4024 16.2248 11.4034 16.2179 11.4016L16.3693 10.821C16.2245 10.7832 16.0707 10.8037 15.9407 10.8779L16.2383 11.3989ZM16.2179 11.4016C16.2111 11.3998 16.2052 11.3954 16.2015 11.3893L16.7155 11.0798C16.6383 10.9516 16.5141 10.8587 16.3693 10.821L16.2179 11.4016ZM16.1998 11.3864L16.4698 11.8465L16.9872 11.5429L16.7172 11.0827L16.1998 11.3864ZM16.4698 11.8467C16.4672 11.8422 16.4656 11.8374 16.4649 11.8323L17.0596 11.753C17.0497 11.6788 17.0251 11.6073 16.9872 11.5427L16.4698 11.8467ZM16.4649 11.8323C16.4642 11.8272 16.4646 11.822 16.4659 11.8171L17.0448 11.9749C17.0645 11.9026 17.0695 11.8272 17.0596 11.753L16.4649 11.8323ZM16.4659 11.8171C16.4672 11.8121 16.4696 11.8075 16.4727 11.8035L16.945 12.1736C16.9912 12.1147 17.0251 12.0471 17.0448 11.9749L16.4659 11.8171ZM16.4727 11.8035C16.4759 11.7995 16.4798 11.7961 16.4843 11.7936L16.7758 12.318C16.8413 12.2816 16.8988 12.2326 16.945 12.1736L16.4727 11.8035ZM16.482 11.7949L15.7288 12.2224L16.025 12.7442L16.7781 12.3167L16.482 11.7949ZM15.5925 12.5787C15.6722 12.8165 15.7197 13.0637 15.7197 13.3198H16.3197C16.3197 12.9885 16.2581 12.6766 16.1613 12.3879L15.5925 12.5787ZM15.7197 13.3198C15.7197 13.5759 15.6731 13.8228 15.5928 14.0599L16.161 14.2525C16.2595 13.9619 16.3197 13.6498 16.3197 13.3198H15.7197ZM15.7288 14.4171L16.482 14.8446L16.7781 14.3228L16.025 13.8953L15.7288 14.4171ZM16.4843 14.8459C16.4798 14.8434 16.4759 14.84 16.4727 14.836L16.945 14.4659C16.8988 14.407 16.8413 14.3579 16.7758 14.3215L16.4843 14.8459ZM16.4727 14.836C16.4696 14.832 16.4672 14.8274 16.4659 14.8224L17.0448 14.6646C17.0251 14.5924 16.9911 14.5248 16.945 14.4659L16.4727 14.836ZM16.4659 14.8224C16.4646 14.8175 16.4642 14.8123 16.4649 14.8072L17.0596 14.8865C17.0695 14.8123 17.0645 14.7369 17.0448 14.6646L16.4659 14.8224ZM16.4649 14.8072C16.4656 14.8022 16.4672 14.7973 16.4698 14.7928L16.9872 15.0968C17.0251 15.0322 17.0497 14.9607 17.0596 14.8865L16.4649 14.8072ZM13.3197 11.5432C12.8486 11.5432 12.3967 11.7304 12.0635 12.0635L12.4878 12.4878C12.7084 12.2671 13.0077 12.1432 13.3197 12.1432L13.3197 11.5432ZM12.0635 12.0635C11.7304 12.3967 11.5432 12.8486 11.5432 13.3198H12.1432C12.1432 13.0077 12.2671 12.7084 12.4878 12.4878L12.0635 12.0635ZM11.5432 13.3198C11.5432 13.7909 11.7304 14.2428 12.0635 14.576L12.4878 14.1517C12.2671 13.9311 12.1432 13.6318 12.1432 13.3198H11.5432ZM12.0635 14.576C12.3967 14.9091 12.8486 15.0963 13.3197 15.0963V14.4963C13.0077 14.4963 12.7084 14.3724 12.4878 14.1517L12.0635 14.576ZM13.3197 15.0963C13.7909 15.0963 14.2428 14.9091 14.576 14.576L14.1517 14.1517C13.9311 14.3724 13.6318 14.4963 13.3197 14.4963V15.0963ZM14.576 14.576C14.9091 14.2428 15.0963 13.7909 15.0963 13.3198H14.4963C14.4963 13.6318 14.3724 13.9311 14.1517 14.1517L14.576 14.576ZM15.0963 13.3198C15.0963 12.8486 14.9091 12.3967 14.576 12.0635L14.1517 12.4878C14.3724 12.7084 14.4963 13.0077 14.4963 13.3198H15.0963ZM14.576 12.0635C14.2428 11.7304 13.7909 11.5432 13.3197 11.5432V12.1432C13.6318 12.1432 13.9311 12.2671 14.1517 12.4878L14.576 12.0635ZM13.3197 13.5119C13.2688 13.5119 13.2199 13.4917 13.1839 13.4556L12.7596 13.8799C12.9082 14.0285 13.1096 14.1119 13.3197 14.1119V13.5119ZM13.1839 13.4556C13.1478 13.4196 13.1276 13.3707 13.1276 13.3198H12.5276C12.5276 13.5299 12.611 13.7313 12.7596 13.8799L13.1839 13.4556ZM13.1276 13.3198C13.1276 13.2688 13.1478 13.2199 13.1839 13.1839L12.7596 12.7596C12.611 12.9082 12.5276 13.1096 12.5276 13.3198H13.1276ZM13.1839 13.1839C13.2199 13.1478 13.2688 13.1276 13.3197 13.1276V12.5276C13.1096 12.5276 12.9082 12.611 12.7596 12.7596L13.1839 13.1839ZM13.3197 13.1276C13.3707 13.1276 13.4196 13.1478 13.4556 13.1839L13.8799 12.7596C13.7313 12.611 13.5299 12.5276 13.3197 12.5276V13.1276ZM13.4556 13.1839C13.4917 13.2199 13.5119 13.2688 13.5119 13.3198H14.1119C14.1119 13.1096 14.0285 12.9082 13.8799 12.7596L13.4556 13.1839ZM13.5119 13.3198C13.5119 13.3707 13.4917 13.4196 13.4556 13.4556L13.8799 13.8799C14.0285 13.7313 14.1119 13.5299 14.1119 13.3198H13.5119ZM13.4556 13.4556C13.4196 13.4917 13.3707 13.5119 13.3197 13.5119V14.1119C13.5299 14.1119 13.7313 14.0285 13.8799 13.8799L13.4556 13.4556Z" fill="#333333" mask="url(#path-1-outside-1_254_34097)"/>
</svg>
