<svg xmlns="http://www.w3.org/2000/svg" width="16" height="16" viewBox="0 0 16 16" fill="none">
  <path d="M12.667 1H3.33368C2.47788 1 1.77783 1.70004 1.77783 2.55585V14.2221C1.77806 14.4283 1.8601 14.6261 2.00594 14.7719C2.15178 14.9177 2.34951 14.9998 2.55576 15C2.63364 15 2.78939 15 2.8664 14.9221L7.61182 12.5883C7.6897 12.5113 7.84459 12.5113 7.92247 12.5113C8.00122 12.5113 8.15611 12.5113 8.23398 12.5883L12.9785 14.9221C13.2122 15 13.3671 15 13.4449 15C13.6513 15 13.8493 14.9181 13.9953 14.7722C14.1413 14.6263 14.2235 14.4285 14.2237 14.2221V2.55585C14.2237 1.70004 13.5237 1 12.667 1ZM13.0162 2.16645V13.3671L9.08716 11.4447C8.74753 11.2828 8.37655 11.1974 8.00035 11.1944C7.66607 11.1944 7.2478 11.2775 6.91353 11.4447L2.98541 13.3671V2.16645H13.0162Z" fill="black"/>
  <path d="M9.55643 9.55631H6.44473C5.97833 9.55631 5.66681 9.23954 5.66681 8.76526C5.66681 8.29098 5.97833 7.97421 6.44561 7.97421H9.55643C10.0228 7.97421 10.3343 8.29098 10.3343 8.76526C10.3343 9.23954 10.0237 9.55631 9.55643 9.55631ZM9.55555 6.47087H6.44561C5.9792 6.47087 5.66768 6.15498 5.66768 5.67982C5.66768 5.20554 5.9792 4.88877 6.44648 4.88877H9.5573C10.0237 4.88877 10.3352 5.20554 10.3352 5.67982C10.3352 6.15498 10.0228 6.47087 9.55555 6.47087Z" fill="black"/>
</svg>