<svg width="20" height="20" viewBox="0 0 20 20" fill="none" xmlns="http://www.w3.org/2000/svg">
<path d="M11.7631 11.6008V18.7208L14.8831 16.9608L18.0031 18.7208V11.6008H11.7631ZM16.4031 16.0008L14.8831 15.1208L13.3631 16.0008V13.2008H16.4031V16.0008ZM4.80312 9.92078V11.4408H9.04312V9.92078H4.80312ZM4.80312 6.24078V7.76078H12.4031V6.24078H4.80312ZM13.8431 0.800781H3.68313C2.32312 0.800781 1.20312 1.92078 1.20312 3.28078V15.1208C1.20312 16.4808 2.32312 17.6008 3.68313 17.6008H10.4031V16.0808H3.68313C3.20312 16.0808 2.72313 15.6808 2.72313 15.1208V3.28078C2.80313 2.80078 3.20312 2.40078 3.68313 2.40078H13.8431C14.3231 2.40078 14.8031 2.80078 14.8031 3.28078V10.4808H16.3231V3.28078C16.3231 1.92078 15.2031 0.800781 13.8431 0.800781Z" fill="#262626"/>
</svg>
