<svg width="20" height="20" viewBox="0 0 20 20" fill="none" xmlns="http://www.w3.org/2000/svg">
<g clip-path="url(#clip0_45_281249)">
<path d="M12.6872 11.744C12.4998 11.744 12.3749 11.6816 12.2499 11.5566C12 11.3067 12 10.9319 12.2499 10.682L13.5619 9.37007L12.2499 8.05813C12 7.80824 12 7.4334 12.2499 7.18351C12.4998 6.93362 12.8746 6.93362 13.1245 7.18351L14.7488 8.80781C15.0612 9.12018 15.0612 9.61996 14.7488 9.93232L13.1245 11.5566C12.9996 11.6816 12.8746 11.744 12.6872 11.744Z" fill="#262626"/>
<path d="M17.493 19.9914C17.2431 19.9914 17.0557 19.9289 16.8058 19.8039L9.93377 15.4933L3.18669 19.8039C2.81185 20.0538 2.31207 20.0538 1.93723 19.8664C1.56239 19.6165 1.3125 19.2417 1.3125 18.7419V1.24946C1.3125 0.562257 1.87476 0 2.56196 0H17.5555C18.2427 0 18.8049 0.562257 18.8049 1.24946V18.7419C18.8049 19.1792 18.555 19.6165 18.1802 19.8664C17.9303 19.9289 17.6804 19.9914 17.493 19.9914ZM17.493 18.7419V1.24946H2.49949V18.7419L9.30904 14.4313C9.68388 14.1814 10.2461 14.1814 10.621 14.4313L17.493 18.7419Z" fill="#262626"/>
<path d="M14.3709 6.24555H5.62473C5.24989 6.24555 5 5.99566 5 5.62082C5 5.24599 5.24989 4.99609 5.62473 4.99609H14.3709C14.7458 4.99609 14.9957 5.24599 14.9957 5.62082C14.9957 5.99566 14.7458 6.24555 14.3709 6.24555ZM13.7462 9.99393H5.62473C5.24989 9.99393 5 9.74404 5 9.3692C5 8.99436 5.24989 8.74447 5.62473 8.74447H13.7462C14.1211 8.74447 14.3709 8.99436 14.3709 9.3692C14.3709 9.74404 14.1211 9.99393 13.7462 9.99393Z" fill="#262626"/>
</g>
<defs>
<clipPath id="clip0_45_281249">
<rect width="20" height="20" fill="white"/>
</clipPath>
</defs>
</svg>
