<svg t="1686987498342" class="icon" viewBox="0 0 1024 1024" version="1.1" xmlns="http://www.w3.org/2000/svg" p-id="8606" width="200" height="200"><path d="M169.984 204.288h665.6c14.336 0 25.6-11.264 25.6-25.6s-11.264-25.6-25.6-25.6h-665.6c-14.336 0-25.6 11.264-25.6 25.6s11.264 25.6 25.6 25.6zM761.856 606.208h-76.8v-76.8c0-14.336-11.264-25.6-25.6-25.6s-25.6 11.264-25.6 25.6v102.4c0 14.336 11.264 25.6 25.6 25.6h102.4c14.336 0 25.6-11.264 25.6-25.6 0-13.824-11.776-25.6-25.6-25.6z" p-id="8607" fill="#303133"></path><path d="M659.456 401.408c-126.976 0-230.4 103.424-230.4 230.4s103.424 230.4 230.4 230.4 230.4-103.424 230.4-230.4-103.424-230.4-230.4-230.4z m0 409.6c-98.816 0-179.2-80.384-179.2-179.2s80.384-179.2 179.2-179.2 179.2 80.384 179.2 179.2-80.896 179.2-179.2 179.2zM169.984 402.432h290.304c29.696-24.064 64.512-41.472 102.912-51.2H169.984c-14.336 0-25.6 11.264-25.6 25.6s11.264 25.6 25.6 25.6zM169.984 600.064h187.904c1.024-17.408 3.072-34.816 7.68-51.2H169.984c-14.336 0-25.6 11.264-25.6 25.6s11.264 25.6 25.6 25.6zM169.984 746.496c-14.336 0-25.6 11.264-25.6 25.6s11.264 25.6 25.6 25.6h258.56c-14.336-15.36-26.112-32.768-36.352-51.2H169.984z" p-id="8608" fill="#303133"></path></svg>