<svg xmlns="http://www.w3.org/2000/svg" width="16" height="16" viewBox="0 0 16 16" fill="none">
  <path d="M10.6727 6.30753L9.56166 5.19655L9.873 4.88523C10.0546 4.70492 10.3477 4.70492 10.5293 4.88523L10.984 5.33995C11.1645 5.52152 11.1645 5.81458 10.984 5.99622L10.6727 6.30753ZM10.4512 6.52944L9.34009 5.41842L4.92712 9.83144L4.875 10.9942L6.03777 10.9421L10.4512 6.52944ZM11.9967 12.9336H4.00333C3.70817 12.9336 3.46875 12.665 3.46875 12.334C3.46875 12.0029 3.70817 11.7344 4.00333 11.7344H11.9967C12.2918 11.7344 12.5312 12.0029 12.5312 12.334C12.5312 12.665 12.2918 12.9336 11.9967 12.9336Z" fill="black"/>
  <path d="M6.29762 2.98534L9.71387 2.99359C10.045 2.99438 10.3141 2.72659 10.3149 2.39543C10.3157 2.06428 10.0479 1.79518 9.71676 1.79438L6.30051 1.78613C5.96937 1.78534 5.70026 2.05315 5.69946 2.38429C5.69867 2.71545 5.96646 2.98454 6.29762 2.98534Z" fill="black"/>
  <path d="M12.2862 3C12.9466 3 13.4941 3.57481 13.4941 4.29806V13.2976C13.4941 14.0209 12.9466 14.5957 12.2862 14.5957H3.71383C3.05339 14.5957 2.50586 14.0209 2.50586 13.2976V4.29806C2.50586 3.57481 3.05339 3 3.71383 3C4.04498 3 4.31344 2.73155 4.31344 2.40039C4.31344 2.06923 4.045 1.80078 3.71383 1.80078C2.37767 1.80078 1.30664 2.9252 1.30664 4.29806V13.2976C1.30664 14.6705 2.37767 15.7949 3.71383 15.7949H12.2862C13.6223 15.7949 14.6934 14.6705 14.6934 13.2976V4.29806C14.6934 2.9252 13.6223 1.80078 12.2862 1.80078C11.955 1.80078 11.6866 2.06923 11.6866 2.40039C11.6866 2.73155 11.955 3 12.2862 3Z" fill="black"/>
  <path d="M5.59961 1.40897V3.66525C5.59961 3.99566 5.33106 4.26367 5 4.26367C4.66894 4.26367 4.40039 3.99566 4.40039 3.66523V1.40898C4.40039 1.07858 4.66894 0.810547 5 0.810547C5.33106 0.810547 5.59961 1.07856 5.59961 1.40897ZM11.6152 1.41678V3.67306C11.6152 4.00347 11.3467 4.27148 11.0156 4.27148C10.6846 4.27148 10.416 4.00347 10.416 3.67305V1.4168C10.416 1.08639 10.6846 0.818359 11.0156 0.818359C11.3467 0.818359 11.6152 1.08638 11.6152 1.41678Z" fill="black"/>
</svg>