<svg xmlns="http://www.w3.org/2000/svg" width="16" height="16" viewBox="0 0 16 16" fill="none">
  <path d="M3.93005 9.1088V9.12879L3.95004 9.1288L4.79559 9.12925L4.8156 9.12926V9.10925V4.922V4.902H4.7956H3.95005H3.93005V4.922V9.1088ZM5.3561 9.1088V9.12879L5.37609 9.1288L6.22164 9.12925L6.24165 9.12926V9.10925V7.54975H6.77245C7.15622 7.54975 7.44986 7.52996 7.65388 7.48906L7.65416 7.489C7.80563 7.45641 7.95384 7.38904 8.09965 7.28788L8.09968 7.28786C8.2466 7.18548 8.36696 7.04568 8.46141 6.86773C8.55694 6.68905 8.60415 6.46962 8.60415 6.2099C8.60415 5.87363 8.52231 5.59721 8.357 5.38231L8.35699 5.38229C8.19252 5.16894 7.98817 5.02944 7.74328 4.96567C7.58405 4.92256 7.24649 4.902 6.73285 4.902H5.3761H5.3561V4.922V9.1088ZM7.69249 6.22115L7.6925 6.22158C7.69493 6.33327 7.66281 6.44298 7.60055 6.53572C7.53908 6.62529 7.45468 6.69123 7.34571 6.73395C7.29205 6.75478 7.2103 6.77088 7.09935 6.78169C6.98873 6.79246 6.85038 6.79785 6.68425 6.79785H6.24165V5.64985H6.63025C6.93519 5.64985 7.13584 5.65936 7.23498 5.67786L7.2354 5.67793C7.36198 5.69878 7.47771 5.76208 7.56353 5.85743C7.64888 5.95226 7.6925 6.07283 7.69249 6.22115ZM9.05459 5.95873L9.05454 5.95884C8.92576 6.25145 8.8616 6.61258 8.8616 7.04105C8.8616 7.71127 9.04634 8.23967 9.41893 8.62456C9.79057 9.00895 10.2911 9.20035 10.9183 9.20035C11.5379 9.20035 12.0349 9.00798 12.4065 8.62138C12.7786 8.2351 12.9633 7.70083 12.9633 7.0208C12.9633 6.33539 12.7773 5.7975 12.4024 5.4103C12.0276 5.02282 11.5285 4.83 10.9066 4.83C10.5638 4.83 10.2605 4.8857 9.99657 4.99718L9.99647 4.99722C9.78975 5.08576 9.60331 5.21563 9.44858 5.37883C9.28182 5.54971 9.15093 5.74334 9.05459 5.95873ZM10.0962 8.07711L10.0962 8.0771C9.88154 7.83777 9.7728 7.4838 9.7728 7.01225C9.7728 6.53325 9.87895 6.17804 10.0877 5.94468L10.0877 5.94464C10.2964 5.70994 10.572 5.5927 10.9156 5.5927C11.2584 5.5927 11.5326 5.70863 11.739 5.94016C11.9446 6.17126 12.0494 6.52332 12.0494 7.001C12.0494 7.48401 11.9419 7.84241 11.7305 8.07985C11.518 8.31842 11.2472 8.43765 10.9156 8.43765C10.5836 8.43765 10.3114 8.31755 10.0962 8.07711ZM2.2414 2.69135C2.57521 2.35754 3.02796 2.17 3.50005 2.17H12.5C12.9721 2.17 13.4249 2.35754 13.7587 2.69135C14.0925 3.02516 14.28 3.47791 14.28 3.95V9.8C14.28 10.2721 14.0925 10.7248 13.7587 11.0587C13.4249 11.3925 12.9721 11.58 12.5 11.58H3.50005C3.02796 11.58 2.57521 11.3925 2.2414 11.0587C1.90758 10.7248 1.72005 10.2721 1.72005 9.8V3.95C1.72005 3.47791 1.90758 3.02516 2.2414 2.69135ZM12.5 1.23H3.50005C2.77866 1.23 2.08682 1.51657 1.57672 2.02667C1.06662 2.53677 0.780049 3.22861 0.780049 3.95V9.8C0.780049 10.5214 1.06662 11.2132 1.57672 11.7233C2.08682 12.2334 2.77866 12.52 3.50005 12.52H12.5C13.2214 12.52 13.9133 12.2334 14.4234 11.7233C14.9335 11.2132 15.22 10.5214 15.22 9.8V3.95C15.22 3.22861 14.9335 2.53677 14.4234 2.02667C13.9133 1.51657 13.2214 1.23 12.5 1.23ZM12.725 13.83H3.27505C3.21007 13.83 3.14775 13.8558 3.10181 13.9018C3.05586 13.9477 3.03005 14.01 3.03005 14.075V14.525C3.03005 14.59 3.05586 14.6523 3.10181 14.6982C3.14775 14.7442 3.21007 14.77 3.27505 14.77H12.725C12.79 14.77 12.8523 14.7442 12.8983 14.6982C12.9442 14.6523 12.97 14.59 12.97 14.525V14.075C12.97 14.01 12.9442 13.9477 12.8983 13.9018C12.8523 13.8558 12.79 13.83 12.725 13.83Z" fill="black" stroke="black" stroke-width="0.04"/>
</svg>