<svg width="20" height="20" viewBox="0 0 20 20" fill="none" xmlns="http://www.w3.org/2000/svg">
<path d="M15 13.75H7.5V12.5H15V13.75ZM15 7.5H7.5V8.75H15V7.5ZM15 10H7.5V11.25H15V10ZM15 15H7.5V16.25H15V15Z" fill="#262626"/>
<path d="M2.5 15.65C2.5 15.9814 2.76863 16.25 3.1 16.25H3.15C3.48137 16.25 3.75 16.5186 3.75 16.85V16.9C3.75 17.2314 3.48137 17.5 3.15 17.5H2.5H1.85C1.51863 17.5 1.25 17.2314 1.25 16.9V16.25V0.600001C1.25 0.26863 1.51863 0 1.85 0H12.5H13.15C13.4814 0 13.75 0.268629 13.75 0.6V1.25V1.9C13.75 2.23137 13.4814 2.5 13.15 2.5H13.1C12.7686 2.5 12.5 2.23137 12.5 1.9V1.85C12.5 1.51863 12.2314 1.25 11.9 1.25H3.1C2.76863 1.25 2.5 1.51863 2.5 1.85V15.65Z" fill="#262626"/>
<path d="M5.6 3.75C5.26863 3.75 5 4.01863 5 4.35V19.4C5 19.7314 5.26863 20 5.6 20H16.9C17.2314 20 17.5 19.7314 17.5 19.4V4.35C17.5 4.01863 17.2314 3.75 16.9 3.75H5.6ZM16.25 18.15C16.25 18.4814 15.9814 18.75 15.65 18.75H6.85C6.51863 18.75 6.25 18.4814 6.25 18.15V5.6C6.25 5.26863 6.51863 5 6.85 5H15.65C15.9814 5 16.25 5.26863 16.25 5.6V18.15Z" fill="#262626"/>
</svg>
