<svg xmlns="http://www.w3.org/2000/svg" width="16" height="16" viewBox="0 0 16 16" fill="none">
  <path d="M14.5177 1.13672H1.48234C1.21588 1.13672 1 1.35273 1 1.61906V10.8794C1 11.1458 1.21588 11.3618 1.48234 11.3618H7.51766V13.8985H4.35371C4.08725 13.8985 3.87137 14.1145 3.87137 14.3808C3.87137 14.6471 4.08725 14.8633 4.35371 14.8633H11.6463C11.9128 14.8633 12.1286 14.6473 12.1286 14.3809C12.1286 14.1146 11.9128 13.8986 11.6463 13.8986H8.48234V11.3618H14.5177C14.7841 11.3618 15 11.1458 15 10.8794V1.61906C15 1.35273 14.7841 1.13672 14.5177 1.13672ZM14.0353 10.3971H1.96469V2.10154H14.0352V10.3971H14.0353Z" fill="#231815"/>
  <path d="M4.14096 6.34287V8.98428C4.14096 9.25061 4.35684 9.46662 4.6233 9.46662C4.88977 9.46662 5.10564 9.25061 5.10564 8.98428V6.34287C5.49283 6.1609 5.76271 5.77016 5.76271 5.31406C5.76271 4.85797 5.49283 4.46723 5.10564 4.28525V3.51471C5.10564 3.24838 4.88977 3.03236 4.6233 3.03236C4.35684 3.03236 4.14096 3.24838 4.14096 3.51471V4.28512C3.75377 4.46709 3.48389 4.85783 3.48389 5.31393C3.48389 5.77002 3.75363 6.1609 4.14096 6.34287ZM7.5175 8.27238V8.98428C7.5175 9.25061 7.73338 9.46662 7.99984 9.46662C8.26631 9.46662 8.48219 9.25061 8.48219 8.98428V8.27238C8.86938 8.09041 9.13926 7.69967 9.13926 7.24357C9.13926 6.78748 8.86938 6.39674 8.48219 6.21477V3.51457C8.48219 3.24824 8.26631 3.03223 7.99984 3.03223C7.73338 3.03223 7.5175 3.24824 7.5175 3.51457V6.21463C7.13031 6.3966 6.86043 6.78734 6.86043 7.24344C6.86043 7.69953 7.13018 8.09041 7.5175 8.27238ZM10.894 6.34287V8.98428C10.894 9.25061 11.1099 9.46662 11.3764 9.46662C11.6429 9.46662 11.8587 9.25061 11.8587 8.98428V6.34287C12.2459 6.1609 12.5158 5.77016 12.5158 5.31406C12.5158 4.85797 12.2459 4.46723 11.8587 4.28525V3.51471C11.8587 3.24838 11.6429 3.03236 11.3764 3.03236C11.1099 3.03236 10.894 3.24838 10.894 3.51471V4.28512C10.5069 4.46709 10.237 4.85783 10.237 5.31393C10.237 5.77002 10.5069 6.1609 10.894 6.34287Z" fill="#231815"/>
</svg>