<svg width="20" height="20" viewBox="0 0 20 20" fill="none" xmlns="http://www.w3.org/2000/svg">
<path d="M19 0.625H1.75C1.375 0.625 1 1 1 1.375V14.875C1 15.25 1.375 15.625 1.75 15.625H10V19.375H11.2303V15.625H19.125C19.5 15.625 19.875 15.25 19.875 14.875V1.375C19.75 1 19.375 0.625 19 0.625ZM18.375 14.5H2.375V2H18.375V14.5Z" fill="#262626"/>
<mask id="path-2-outside-1_45_281250" maskUnits="userSpaceOnUse" x="4" y="4" width="14" height="8" fill="black">
<rect fill="white" x="4" y="4" width="14" height="8"/>
<path d="M4.56 5.288H5.496V11H4.56V5.288ZM6.61469 5.288H8.98269C10.3587 5.288 11.0547 5.872 11.0547 7.04C11.0547 8.216 10.3587 8.808 8.96669 8.808H7.55069V11H6.61469V5.288ZM7.55069 6.088V8.008H8.91069C9.32669 8.008 9.63069 7.928 9.82269 7.784C10.0147 7.632 10.1107 7.384 10.1107 7.04C10.1107 6.696 10.0067 6.456 9.81469 6.312C9.62269 6.16 9.31869 6.088 8.91069 6.088H7.55069ZM14.3929 5.176C15.2649 5.176 15.9529 5.456 16.4569 6.024C16.9369 6.56 17.1769 7.272 17.1769 8.152C17.1769 9.032 16.9369 9.736 16.4569 10.272C15.9529 10.832 15.2649 11.112 14.3929 11.112C13.5129 11.112 12.8249 10.824 12.3289 10.264C11.8489 9.72 11.6169 9.016 11.6169 8.152C11.6169 7.28 11.8489 6.576 12.3289 6.032C12.8249 5.456 13.5129 5.176 14.3929 5.176ZM14.3929 6C13.8009 6 13.3449 6.2 13.0169 6.6C12.7049 6.984 12.5529 7.496 12.5529 8.152C12.5529 8.8 12.7049 9.312 13.0169 9.696C13.3369 10.088 13.8009 10.288 14.3929 10.288C14.9849 10.288 15.4409 10.096 15.7609 9.72C16.0729 9.344 16.2329 8.824 16.2329 8.152C16.2329 7.48 16.0729 6.952 15.7609 6.568C15.4409 6.184 14.9849 6 14.3929 6Z"/>
</mask>
<path d="M4.56 5.288H5.496V11H4.56V5.288ZM6.61469 5.288H8.98269C10.3587 5.288 11.0547 5.872 11.0547 7.04C11.0547 8.216 10.3587 8.808 8.96669 8.808H7.55069V11H6.61469V5.288ZM7.55069 6.088V8.008H8.91069C9.32669 8.008 9.63069 7.928 9.82269 7.784C10.0147 7.632 10.1107 7.384 10.1107 7.04C10.1107 6.696 10.0067 6.456 9.81469 6.312C9.62269 6.16 9.31869 6.088 8.91069 6.088H7.55069ZM14.3929 5.176C15.2649 5.176 15.9529 5.456 16.4569 6.024C16.9369 6.56 17.1769 7.272 17.1769 8.152C17.1769 9.032 16.9369 9.736 16.4569 10.272C15.9529 10.832 15.2649 11.112 14.3929 11.112C13.5129 11.112 12.8249 10.824 12.3289 10.264C11.8489 9.72 11.6169 9.016 11.6169 8.152C11.6169 7.28 11.8489 6.576 12.3289 6.032C12.8249 5.456 13.5129 5.176 14.3929 5.176ZM14.3929 6C13.8009 6 13.3449 6.2 13.0169 6.6C12.7049 6.984 12.5529 7.496 12.5529 8.152C12.5529 8.8 12.7049 9.312 13.0169 9.696C13.3369 10.088 13.8009 10.288 14.3929 10.288C14.9849 10.288 15.4409 10.096 15.7609 9.72C16.0729 9.344 16.2329 8.824 16.2329 8.152C16.2329 7.48 16.0729 6.952 15.7609 6.568C15.4409 6.184 14.9849 6 14.3929 6Z" fill="#262626"/>
<path d="M4.56 5.288V4.988H4.26V5.288H4.56ZM5.496 5.288H5.796V4.988H5.496V5.288ZM5.496 11V11.3H5.796V11H5.496ZM4.56 11H4.26V11.3H4.56V11ZM4.56 5.588H5.496V4.988H4.56V5.588ZM5.196 5.288V11H5.796V5.288H5.196ZM5.496 10.7H4.56V11.3H5.496V10.7ZM4.86 11V5.288H4.26V11H4.86ZM6.61469 5.288V4.988H6.31469V5.288H6.61469ZM7.55069 8.808V8.508H7.25069V8.808H7.55069ZM7.55069 11V11.3H7.85069V11H7.55069ZM6.61469 11H6.31469V11.3H6.61469V11ZM7.55069 6.088V5.788H7.25069V6.088H7.55069ZM7.55069 8.008H7.25069V8.308H7.55069V8.008ZM9.82269 7.784L10.0027 8.02408L10.0089 8.01921L9.82269 7.784ZM9.81469 6.312L9.62841 6.54729L9.63469 6.552L9.81469 6.312ZM6.61469 5.588H8.98269V4.988H6.61469V5.588ZM8.98269 5.588C9.63531 5.588 10.0713 5.72752 10.3412 5.95527C10.6014 6.17486 10.7547 6.51733 10.7547 7.04H11.3547C11.3547 6.39466 11.16 5.86114 10.7282 5.49673C10.306 5.14048 9.70607 4.988 8.98269 4.988V5.588ZM10.7547 7.04C10.7547 7.5673 10.601 7.9138 10.3387 8.13616C10.0669 8.36652 9.62721 8.508 8.96669 8.508V9.108C9.69816 9.108 10.3024 8.95348 10.7267 8.59384C11.1604 8.2262 11.3547 7.6887 11.3547 7.04H10.7547ZM8.96669 8.508H7.55069V9.108H8.96669V8.508ZM7.25069 8.808V11H7.85069V8.808H7.25069ZM7.55069 10.7H6.61469V11.3H7.55069V10.7ZM6.91469 11V5.288H6.31469V11H6.91469ZM7.25069 6.088V8.008H7.85069V6.088H7.25069ZM7.55069 8.308H8.91069V7.708H7.55069V8.308ZM8.91069 8.308C9.35553 8.308 9.73587 8.22411 10.0027 8.024L9.64269 7.544C9.52551 7.63189 9.29784 7.708 8.91069 7.708V8.308ZM10.0089 8.01921C10.2987 7.78981 10.4107 7.43658 10.4107 7.04H9.81069C9.81069 7.33142 9.7307 7.47419 9.63648 7.54879L10.0089 8.01921ZM10.4107 7.04C10.4107 6.63596 10.286 6.29052 9.99469 6.072L9.63469 6.552C9.72733 6.62148 9.81069 6.75604 9.81069 7.04H10.4107ZM10.0009 6.07679C9.72882 5.86139 9.34088 5.788 8.91069 5.788V6.388C9.2965 6.388 9.51655 6.45861 9.62848 6.54721L10.0009 6.07679ZM8.91069 5.788H7.55069V6.388H8.91069V5.788ZM16.4569 6.024L16.2325 6.22311L16.2334 6.22414L16.4569 6.024ZM16.4569 10.272L16.6799 10.4727L16.6804 10.4721L16.4569 10.272ZM12.3289 10.264L12.1039 10.4625L12.1043 10.4629L12.3289 10.264ZM12.3289 6.032L12.5538 6.2305L12.5562 6.22776L12.3289 6.032ZM13.0169 6.6L12.7849 6.40977L12.784 6.41082L13.0169 6.6ZM13.0169 9.696L12.784 9.88518L12.7845 9.88571L13.0169 9.696ZM15.7609 9.72L15.9894 9.91445L15.9917 9.91157L15.7609 9.72ZM15.7609 6.568L15.9937 6.37881L15.9913 6.37594L15.7609 6.568ZM14.3929 5.476C15.1943 5.476 15.7948 5.72986 16.2325 6.22311L16.6813 5.82489C16.1109 5.18214 15.3354 4.876 14.3929 4.876V5.476ZM16.2334 6.22414C16.6535 6.69326 16.8769 7.32821 16.8769 8.152H17.4769C17.4769 7.21579 17.2203 6.42674 16.6804 5.82386L16.2334 6.22414ZM16.8769 8.152C16.8769 8.97498 16.6539 9.60225 16.2334 10.0719L16.6804 10.4721C17.2198 9.86975 17.4769 9.08902 17.4769 8.152H16.8769ZM16.2339 10.0713C15.7959 10.5579 15.1946 10.812 14.3929 10.812V11.412C15.3352 11.412 16.1098 11.1061 16.6799 10.4727L16.2339 10.0713ZM14.3929 10.812C13.5845 10.812 12.9837 10.5508 12.5535 10.0651L12.1043 10.4629C12.6661 11.0972 13.4413 11.412 14.3929 11.412V10.812ZM12.5538 10.0655C12.1324 9.5879 11.9169 8.95998 11.9169 8.152H11.3169C11.3169 9.07202 11.5653 9.8521 12.1039 10.4625L12.5538 10.0655ZM11.9169 8.152C11.9169 7.33561 12.1326 6.70785 12.5538 6.23049L12.1039 5.83351C11.5651 6.44415 11.3169 7.22439 11.3169 8.152H11.9169ZM12.5562 6.22776C12.9846 5.73022 13.5826 5.476 14.3929 5.476V4.876C13.4432 4.876 12.6651 5.18178 12.1015 5.83624L12.5562 6.22776ZM14.3929 5.7C13.7248 5.7 13.1781 5.93026 12.7849 6.40978L13.2489 6.79022C13.5117 6.46974 13.8769 6.3 14.3929 6.3V5.7ZM12.784 6.41082C12.4159 6.86392 12.2529 7.45035 12.2529 8.152H12.8529C12.8529 7.54165 12.9939 7.10408 13.2497 6.78918L12.784 6.41082ZM12.2529 8.152C12.2529 8.84616 12.4161 9.43238 12.784 9.88518L13.2497 9.50682C12.9936 9.19162 12.8529 8.75384 12.8529 8.152H12.2529ZM12.7845 9.88571C13.1713 10.3596 13.7276 10.588 14.3929 10.588V9.988C13.8741 9.988 13.5024 9.81642 13.2493 9.50629L12.7845 9.88571ZM14.3929 10.588C15.0554 10.588 15.6019 10.3696 15.9893 9.91444L15.5324 9.52556C15.2798 9.82235 14.9144 9.988 14.3929 9.988V10.588ZM15.9917 9.91157C16.3616 9.46583 16.5329 8.87007 16.5329 8.152H15.9329C15.9329 8.77793 15.7841 9.22217 15.53 9.52843L15.9917 9.91157ZM16.5329 8.152C16.5329 7.434 16.3617 6.83171 15.9937 6.37882L15.528 6.75718C15.7841 7.07229 15.9329 7.526 15.9329 8.152H16.5329ZM15.9913 6.37594C15.6017 5.90841 15.0521 5.7 14.3929 5.7V6.3C14.9176 6.3 15.28 6.45959 15.5304 6.76006L15.9913 6.37594Z" fill="#262626" mask="url(#path-2-outside-1_45_281250)"/>
</svg>
