<svg width="20" height="20" viewBox="0 0 20 20" fill="none" xmlns="http://www.w3.org/2000/svg">
<g clip-path="url(#clip0_558_80041)">
<path d="M10.927 19.0193C10.4618 19.0192 10.0074 18.8792 9.62293 18.6174C9.23842 18.3555 8.94158 17.9841 8.771 17.5513H4.372C1.958 17.5513 0 15.6243 0 13.2613V9.03933C0 8.10833 0.775 7.34833 1.723 7.34833H1.747C1.90134 5.50168 2.71697 3.77276 4.044 2.47933C4.76908 1.76593 5.62508 1.19922 6.565 0.810335C7.54431 0.402226 8.59506 0.193163 9.656 0.195335H10.25C12.3475 0.190418 14.3631 1.00915 15.863 2.47533C16.5858 3.1811 17.1633 4.02158 17.563 4.94933C17.8912 5.70975 18.0925 6.5188 18.159 7.34433H18.277C19.225 7.34433 20 8.10433 20 9.03433V14.4853C20 15.4163 19.225 16.1763 18.277 16.1763H16.469C15.521 16.1763 14.746 15.4163 14.746 14.4863V9.03733C14.746 8.10633 15.521 7.34633 16.469 7.34633H16.523C16.3715 5.88583 15.6975 4.52922 14.625 3.52633C13.4427 2.40641 11.8745 1.78473 10.246 1.79033H9.653C8.02422 1.78438 6.45583 2.40651 5.274 3.52733C4.20332 4.53151 3.52873 5.88671 3.373 7.34633H3.523C4.473 7.34633 5.247 8.10633 5.247 9.03633V13.6993C5.247 14.1403 4.882 14.4993 4.439 14.4993C4.22572 14.4996 4.02094 14.4158 3.86911 14.266C3.71727 14.1162 3.63063 13.9126 3.628 13.6993V9.03933C3.62723 9.01315 3.61642 8.98826 3.59781 8.96983C3.57919 8.9514 3.55419 8.94084 3.528 8.94033H1.72C1.666 8.94033 1.62 8.98633 1.62 9.03933V13.2633C1.62 14.7533 2.853 15.9603 4.369 15.9603H8.764C8.93531 15.5281 9.23236 15.1573 9.61673 14.8958C10.0011 14.6342 10.4551 14.494 10.92 14.4933C12.191 14.4933 13.227 15.5063 13.227 16.7563C13.234 18.0033 12.194 19.0203 10.927 19.0203V19.0193ZM10.927 16.0843C10.552 16.0843 10.247 16.3843 10.247 16.7553C10.247 17.1273 10.552 17.4263 10.927 17.4263C11.303 17.4263 11.607 17.1273 11.607 16.7563C11.6066 16.6675 11.5887 16.5797 11.5543 16.4978C11.5199 16.4159 11.4696 16.3416 11.4065 16.2792C11.3433 16.2168 11.2684 16.1674 11.1862 16.134C11.1039 16.1005 11.0158 16.0837 10.927 16.0843ZM16.47 8.93933C16.417 8.93933 16.37 8.98533 16.37 9.03833V14.4883C16.37 14.5413 16.417 14.5883 16.47 14.5883H18.27C18.325 14.5883 18.371 14.5413 18.371 14.4883V9.03933C18.3702 9.01315 18.3594 8.98826 18.3408 8.96983C18.3222 8.9514 18.2972 8.94084 18.271 8.94033H16.471L16.47 8.93933Z" fill="#666"/>
</g>
<defs>
<clipPath id="clip0_558_80041">
<rect width="20" height="20" />
</clipPath>
</defs>
</svg>
