<svg width="20" height="20" viewBox="0 0 20 20" fill="none" xmlns="http://www.w3.org/2000/svg">
<path d="M14.0625 2.8125H13.625C13.375 2.09375 12.6875 1.5625 11.875 1.5625H8.125C7.3125 1.5625 6.625 2.09375 6.375 2.8125H5.9375C4.21875 2.8125 2.8125 4.21875 2.8125 5.9375V15.3125C2.8125 17.0312 4.21875 18.4375 5.9375 18.4375H14.0625C15.7812 18.4375 17.1875 17.0312 17.1875 15.3125V5.9375C17.1875 4.21875 15.7812 2.8125 14.0625 2.8125ZM8.125 2.8125H11.875C12.2188 2.8125 12.5 3.09375 12.5 3.4375C12.5 3.78125 12.2188 4.0625 11.875 4.0625H8.125C7.78125 4.0625 7.5 3.78125 7.5 3.4375C7.5 3.09375 7.78125 2.8125 8.125 2.8125ZM15.9375 15.3125C15.9375 16.3438 15.0938 17.1875 14.0625 17.1875H5.9375C4.90625 17.1875 4.0625 16.3438 4.0625 15.3125V5.9375C4.0625 4.90625 4.90625 4.0625 5.9375 4.0625H6.375C6.625 4.78125 7.3125 5.3125 8.125 5.3125H11.875C12.6875 5.3125 13.375 4.78125 13.625 4.0625H14.0625C15.0938 4.0625 15.9375 4.90625 15.9375 5.9375V15.3125Z" fill="#262626"/>
<path d="M13.66 14.27H13.47V9.32C13.47 9.1 13.29 8.92 13.08 8.92H11.76C11.54 8.92 11.37 9.1 11.37 9.32V14.27H10.99V7.42C10.99 7.19 10.81 7 10.59 7H9.26C9.04 7 8.86 7.19 8.86 7.42V14.27H8.49V11.23C8.49 11.01 8.31 10.82 8.1 10.82H6.78C6.56 10.82 6.39 11 6.39 11.23V14.27H6.19C6.08 14.27 6 14.36 6 14.46C6 14.56 6.09 14.65 6.19 14.65H13.66C13.77 14.65 13.85 14.56 13.85 14.46C13.85 14.36 13.76 14.27 13.66 14.27Z" fill="#262626"/>
</svg>
