<svg width="20" height="20" viewBox="0 0 20 20" fill="none" xmlns="http://www.w3.org/2000/svg">
<path d="M19.2992 2.23438H1.96363C1.78679 2.23438 1.6172 2.30963 1.49216 2.44358C1.36712 2.57754 1.29688 2.75922 1.29688 2.94866V17.2344C1.29688 17.4238 1.36712 17.6055 1.49216 17.7395C1.6172 17.8734 1.78679 17.9487 1.96363 17.9487H19.2992C19.4761 17.9487 19.6456 17.8734 19.7707 17.7395C19.8957 17.6055 19.966 17.4238 19.966 17.2344V2.94866C19.966 2.75922 19.8957 2.57754 19.7707 2.44358C19.6456 2.30963 19.4761 2.23437 19.2992 2.23438ZM18.4658 16.3401H2.79707V3.84009H18.4658V16.3401ZM4.73599 14.5044C4.75147 14.521 4.76987 14.5342 4.79012 14.5432C4.81037 14.5522 4.83208 14.5568 4.85401 14.5568C4.87593 14.5568 4.89764 14.5522 4.91789 14.5432C4.93814 14.5342 4.95654 14.521 4.97202 14.5044L8.56582 10.6529L10.9501 13.2101C10.9813 13.2432 11.0235 13.2618 11.0675 13.2618C11.1114 13.2618 11.1536 13.2432 11.1848 13.2101L17.3736 6.5758C17.3892 6.55922 17.4015 6.53951 17.4099 6.51782C17.4183 6.49612 17.4226 6.47286 17.4226 6.44937C17.4226 6.42589 17.4183 6.40263 17.4099 6.38093C17.4015 6.35924 17.3892 6.33953 17.3736 6.32295L16.6069 5.50152C16.5914 5.48489 16.573 5.47169 16.5527 5.46269C16.5325 5.45369 16.5108 5.44906 16.4889 5.44906C16.4669 5.44906 16.4452 5.45369 16.425 5.46269C16.4047 5.47169 16.3863 5.48489 16.3708 5.50152L11.0688 11.1844L8.6845 8.63009C8.65329 8.59694 8.61111 8.57834 8.56716 8.57834C8.5232 8.57834 8.48102 8.59694 8.44981 8.63009L3.97189 13.4301C3.94095 13.4635 3.92358 13.5087 3.92358 13.5558C3.92358 13.6029 3.94095 13.6481 3.97189 13.6815L4.73599 14.5058V14.5044Z" fill="#262626"/>
</svg>
