<svg width="20" height="20" viewBox="0 0 20 20" fill="none" xmlns="http://www.w3.org/2000/svg">
<g clip-path="url(#clip0_254_34285)">
<path d="M14.9475 12.8663L15.8312 13.75L14.6312 14.9475H18.125V16.1975H14.6325L15.8325 17.3962L14.9475 18.28L12.6825 16.015C12.5653 15.8978 12.4995 15.7389 12.4995 15.5731C12.4995 15.4074 12.5653 15.2485 12.6825 15.1312L14.9475 12.8663ZM15.7288 2.5C16.7075 2.5 17.5 3.2925 17.5 4.27125V10.575H16.25V4.27125C16.25 4.13301 16.1951 4.00042 16.0973 3.90267C15.9996 3.80492 15.867 3.75 15.7288 3.75H4.27125C4.13301 3.75 4.00042 3.80492 3.90267 3.90267C3.80492 4.00042 3.75 4.13301 3.75 4.27125V15.7288C3.75 16.0163 3.98375 16.25 4.27125 16.25H10.8837V17.5H4.27125C3.80149 17.5 3.35096 17.3134 3.01879 16.9812C2.68661 16.649 2.5 16.1985 2.5 15.7288V4.27125C2.5 3.2925 3.2925 2.5 4.27125 2.5H15.7288ZM14.375 7.5V10.7138L13.1625 9.56125L10.5512 12.045L9.1175 10.6825L7.205 12.5L6.25 11.5912L9.1175 8.8625L10.5512 10.2262L12.2075 8.65125L10.995 7.5H14.375Z" fill="#333333"/>
</g>
<defs>
<clipPath id="clip0_254_34285">
<rect width="20" height="20" fill="white"/>
</clipPath>
</defs>
</svg>
