<svg xmlns="http://www.w3.org/2000/svg" width="16" height="16" viewBox="0 0 16 16" fill="none">
  <path d="M8 1C4.13413 1 1 4.13413 1 8C1 11.8659 4.13413 15 8 15C11.8659 15 15 11.8659 15 8C14.9953 4.136 11.864 1.00467 8 1ZM8 13.8333C4.77813 13.8333 2.16667 11.2219 2.16667 8C2.16667 4.77813 4.77813 2.16667 8 2.16667C11.2219 2.16667 13.8333 4.77813 13.8333 8C13.8333 9.5471 13.2188 11.0308 12.1248 12.1248C11.0308 13.2188 9.5471 13.8333 8 13.8333Z" fill="black"/>
  <path d="M5.82999 8.04676C6.56732 8.04676 7.23932 7.6361 7.23932 6.74943V5.86276C7.23932 4.9761 6.56732 4.56543 5.82999 4.56543C5.09265 4.56543 4.42065 4.9761 4.42065 5.86276V6.74943C4.42065 7.6361 5.09265 8.04676 5.82999 8.04676ZM7.00599 11.2668L10.17 4.62143H8.99399L5.82999 11.2668H7.00599ZM5.82999 7.0761C5.64332 7.0761 5.50332 6.98276 5.50332 6.7121V5.9001C5.50332 5.62943 5.64332 5.5361 5.82999 5.5361C6.01665 5.5361 6.15665 5.62943 6.15665 5.9001V6.7121C6.15665 6.98276 6.01665 7.0761 5.82999 7.0761ZM10.17 11.3228C10.9073 11.3228 11.5793 10.9121 11.5793 10.0254V9.13876C11.5793 8.2521 10.9073 7.84143 10.17 7.84143C9.43265 7.84143 8.76065 8.2521 8.76065 9.13876V10.0254C8.76065 10.9121 9.43265 11.3228 10.17 11.3228ZM10.17 10.3521C9.98332 10.3521 9.84332 10.2588 9.84332 9.9881V9.1761C9.84332 8.90543 9.98332 8.8121 10.17 8.8121C10.3567 8.8121 10.4967 8.90543 10.4967 9.1761V9.9881C10.4967 10.2588 10.3567 10.3521 10.17 10.3521Z" fill="black"/>
</svg>