<svg xmlns="http://www.w3.org/2000/svg" width="16" height="16" viewBox="0 0 16 16" fill="none">
  <g clip-path="url(#clip0_159_5850)">
    <path d="M14.4286 12.8161C14.4286 13.7054 13.7054 14.4286 12.8161 14.4286H3.18286C2.75547 14.428 2.34576 14.2579 2.04365 13.9556C1.74154 13.6533 1.57171 13.2435 1.57143 12.8161V3.18393C1.57143 2.29357 2.29464 1.57143 3.18286 1.57143H12.8161C13.7054 1.57143 14.4286 2.29464 14.4286 3.18286V12.8161ZM12.8161 0.5H3.18286C2.47149 0.500568 1.78943 0.783407 1.28642 1.28642C0.783407 1.78943 0.500568 2.47149 0.5 3.18286V12.8161C0.500567 13.5275 0.783372 14.2097 1.28635 14.7129C1.78933 15.2161 2.4714 15.4991 3.18286 15.5H12.8161C13.5276 15.4991 14.2098 15.2161 14.713 14.713C15.2161 14.2098 15.4991 13.5276 15.5 12.8161V3.18393C15.4994 2.47228 15.2165 1.78994 14.7133 1.28673C14.2101 0.78352 13.5277 0.500568 12.8161 0.5Z" fill="black"/>
    <path d="M5.64929 8.09519V3.37662C5.6493 3.30626 5.63545 3.23659 5.60853 3.17159C5.58162 3.10658 5.54216 3.04751 5.49241 2.99776C5.44266 2.948 5.3836 2.90854 5.3186 2.88161C5.2536 2.85468 5.18393 2.84082 5.11357 2.84082C5.04321 2.84082 4.97354 2.85468 4.90854 2.88161C4.84354 2.90854 4.78448 2.948 4.73473 2.99776C4.68499 3.04751 4.64553 3.10658 4.61861 3.17159C4.59169 3.23659 4.57785 3.30626 4.57786 3.37662V8.09519C4.26404 8.20498 3.99193 8.40927 3.79892 8.67997C3.60592 8.95068 3.50149 9.27452 3.5 9.60698C3.5 10.3077 3.95214 10.8991 4.57679 11.1209V12.6231C4.57679 12.7651 4.63323 12.9014 4.73369 13.0019C4.83416 13.1023 4.97042 13.1588 5.1125 13.1588C5.25458 13.1588 5.39084 13.1023 5.49131 13.0019C5.59177 12.9014 5.64821 12.7651 5.64821 12.6231V11.122C5.96217 11.0116 6.23424 10.8066 6.42705 10.5354C6.61985 10.2641 6.72394 9.93979 6.725 9.60698C6.725 8.90734 6.27393 8.31698 5.64929 8.09412M10.8864 6.93162C10.7429 6.9316 10.6053 6.87458 10.5039 6.77312C10.4024 6.67165 10.3454 6.53404 10.3454 6.39055C10.3454 6.24707 10.4024 6.10946 10.5039 6.00799C10.6053 5.90652 10.7429 5.8495 10.8864 5.84948C11.0299 5.84948 11.1676 5.90649 11.269 6.00796C11.3705 6.10943 11.4275 6.24705 11.4275 6.39055C11.4275 6.53405 11.3705 6.67168 11.269 6.77315C11.1676 6.87462 11.0299 6.93162 10.8864 6.93162ZM11.4221 4.87769V3.37662C11.4222 3.30626 11.4083 3.23659 11.3814 3.17159C11.3545 3.10658 11.315 3.04751 11.2653 2.99776C11.2155 2.948 11.1565 2.90854 11.0915 2.88161C11.0265 2.85468 10.9568 2.84082 10.8864 2.84082C10.8161 2.84082 10.7464 2.85468 10.6814 2.88161C10.6164 2.90854 10.5573 2.948 10.5076 2.99776C10.4578 3.04751 10.4184 3.10658 10.3915 3.17159C10.3646 3.23659 10.3507 3.30626 10.3507 3.37662V4.87662C10.0368 4.98695 9.76477 5.19188 9.57212 5.46319C9.37948 5.73451 9.27567 6.05887 9.275 6.39162C9.275 7.09127 9.72607 7.68269 10.3507 7.90555V12.6241C10.3507 12.6945 10.3646 12.7642 10.3915 12.8292C10.4184 12.8942 10.4578 12.9532 10.5076 13.003C10.5573 13.0527 10.6164 13.0922 10.6814 13.1191C10.7464 13.1461 10.8161 13.1599 10.8864 13.1599C10.9568 13.1599 11.0265 13.1461 11.0915 13.1191C11.1565 13.0922 11.2155 13.0527 11.2653 13.003C11.315 12.9532 11.3545 12.8942 11.3814 12.8292C11.4083 12.7642 11.4222 12.6945 11.4221 12.6241V7.90341C11.7357 7.79287 12.0074 7.58804 12.2 7.317C12.3926 7.04596 12.4967 6.72197 12.4979 6.38948C12.4979 5.68984 12.0479 5.09948 11.4221 4.87662" fill="black"/>
  </g>
  <defs>
    <clipPath id="clip0_159_5850">
      <rect width="16" height="16" fill="white"/>
    </clipPath>
  </defs>
</svg>