<svg xmlns="http://www.w3.org/2000/svg" width="30" height="30" viewBox="0 0 30 30" fill="none">
  <circle cx="15" cy="15" r="15" fill="#014CFA" fill-opacity="0.1"/>
  <path d="M1.5 15C1.5 22.4536 7.54641 28.5 15 28.5C22.4536 28.5 28.5 22.4536 28.5 15C28.5 7.54641 22.4536 1.5 15 1.5C7.54641 1.5 1.5 7.5461 1.5 15Z" fill="#4377FE"/>
  <path d="M12.9664 18.6549H17.2017V22.1499H12.9523L12.9664 18.6549ZM10.2774 13.9762C10.2774 14.5978 9.90128 15.1015 9.42763 15.1015C8.95398 15.1015 8.5791 14.5978 8.5791 13.9762C8.5791 13.3546 8.95521 12.8512 9.42885 12.8512C9.9025 12.8512 10.2786 13.3549 10.2786 13.9762M21.6052 13.9606C21.6052 14.5819 21.2287 15.0856 20.7551 15.0856C20.2814 15.0856 19.9044 14.581 19.9044 13.9606C19.9044 13.3402 20.2805 12.8353 20.7542 12.8353C21.2278 12.8353 21.6052 13.3549 21.6052 13.9606Z" fill="#F8ECEC"/>
  <path d="M12.9655 19.1561C12.9655 19.1561 13.7736 19.5739 14.9298 19.5739C16.295 19.6298 17.1867 19.1702 17.1867 19.1702V19.588C17.1867 19.588 15.6823 20.3954 15.0135 20.3954C14.3307 20.3954 12.9648 19.448 12.9648 19.448L12.9655 19.1561Z" fill="#E9CFCF"/>
  <path d="M24.849 24.2109C24.1665 23.6678 22.9471 22.1327 21.6653 21.5197C19.5893 20.5032 17.1866 20.7996 17.1866 20.7996V20.8678C17.0193 21.049 16.1974 21.8565 15.0828 21.8565C13.982 21.8565 13.1463 21.1046 12.9653 20.909L12.9513 20.8116C12.9513 20.8116 10.3008 20.5014 8.21173 21.5178C6.79079 22.2143 5.77714 23.7357 5.16406 24.2647C6.42212 25.6072 7.94351 26.6761 9.63328 27.4048C11.323 28.1335 13.1449 28.5063 14.9853 28.4999C18.8864 28.4859 22.397 26.8429 24.849 24.2109Z" fill="#172C54"/>
  <path d="M20.6153 13.0608C20.6153 14.5012 20.1792 16.4532 19.4472 17.5079C18.4382 18.9614 16.1626 19.6331 15.0982 19.6331C14.0221 19.6331 11.9747 19.0851 10.9644 17.7994C10.1033 16.7032 9.58105 14.6372 9.58105 13.0624C9.58105 9.63703 12.0471 6.85196 15.0982 6.85196C18.1492 6.85196 20.6153 9.63703 20.6153 13.0624" fill="#F8ECEC"/>
  <path d="M21.1024 10.2167C21.1024 10.2167 21.0544 8.07255 19.8313 6.54447C18.9769 5.47726 16.2537 4.70252 14.3034 4.85594C14.3034 4.85594 10.4834 5.00875 10.4039 7.54536C9.70579 7.96314 8.98844 8.68378 8.91169 9.89493C8.7588 12.3319 9.19025 12.9725 9.19025 12.9725C9.19025 12.9725 9.80333 12.9725 9.95683 13.8912C9.95683 13.8912 10.2354 14.0586 10.2626 13.8912C10.3042 13.6127 10.0119 12.276 10.5968 11.0508C10.669 10.8958 10.7411 10.7577 10.8109 10.6345C12.7262 8.50499 18.3443 8.72565 19.6606 11.0541C19.7146 11.2162 19.7535 11.3828 19.7771 11.552C19.8884 12.3466 20.0279 13.8496 20.0279 13.8496C20.0279 13.8496 20.2367 13.9887 20.3761 13.6546C20.5156 13.3065 20.4878 12.9725 20.6131 12.875C21.325 12.4022 21.1439 10.4258 21.1024 10.2167Z" fill="#172C54"/>
</svg>