<svg xmlns="http://www.w3.org/2000/svg" width="16" height="16" viewBox="0 0 16 16" fill="none">
  <g clip-path="url(#clip0_154_7343)">
    <path d="M7.98956 -0.0102539C3.57128 -0.0102539 -0.010437 3.57146 -0.010437 7.98975C-0.010437 12.408 3.57128 15.9897 7.98956 15.9897C12.4078 15.9897 15.9896 12.408 15.9896 7.98975C15.9896 3.57146 12.4078 -0.0102539 7.98956 -0.0102539ZM7.98956 14.8469C7.06335 14.8469 6.16546 14.6657 5.3208 14.3085C4.67774 14.0365 4.08646 13.6715 3.5563 13.2211C3.77374 12.6499 4.31033 12.0804 5.06028 11.6335C5.93342 11.1131 7.00544 10.8147 8.00147 10.8147C8.99488 10.8147 10.0625 11.1122 10.9305 11.6308C11.6763 12.0764 12.2107 12.6453 12.4281 13.2166C11.8966 13.6691 11.3035 14.0356 10.6583 14.3085C9.81369 14.6657 8.91578 14.8469 7.98956 14.8469ZM13.2801 12.353C12.9141 11.7113 12.3095 11.1234 11.5167 10.6498C10.4613 10.0191 9.21288 9.67184 8.00147 9.67184C6.78783 9.67184 5.53551 10.0198 4.47521 10.6517C3.67799 11.1269 3.07063 11.7159 2.70387 12.3586C2.27824 11.8452 1.93183 11.2756 1.67083 10.6585C1.31358 9.81385 1.13244 8.91594 1.13244 7.98973C1.13244 7.06351 1.31358 6.16562 1.67083 5.32096C2.01613 4.50455 2.51072 3.7711 3.14085 3.141C3.77096 2.51087 4.5044 2.0163 5.32081 1.67098C6.16546 1.31373 7.06337 1.13259 7.98958 1.13259C8.9158 1.13259 9.81369 1.31373 10.6583 1.67098C11.4748 2.01628 12.2082 2.51087 12.8383 3.141C13.4684 3.7711 13.963 4.50455 14.3083 5.32096C14.6656 6.1656 14.8467 7.06351 14.8467 7.98973C14.8467 8.91594 14.6656 9.81384 14.3083 10.6585C14.0483 11.2733 13.7035 11.841 13.2801 12.353Z" fill="#666666"/>
    <path d="M8.00149 2.7915C6.42606 2.7915 5.14435 4.07322 5.14435 5.64865C5.14435 7.22408 6.42606 8.50579 8.00149 8.50579C9.57694 8.50579 10.8586 7.22409 10.8586 5.64865C10.8586 4.0732 9.57694 2.7915 8.00149 2.7915ZM8.00149 7.36293C7.05622 7.36293 6.28721 6.59391 6.28721 5.64865C6.28721 4.70338 7.05622 3.93436 8.00149 3.93436C8.94676 3.93436 9.71578 4.70338 9.71578 5.64865C9.71578 6.59391 8.94676 7.36293 8.00149 7.36293Z" fill="#666666"/>
  </g>
  <defs>
    <clipPath id="clip0_154_7343">
      <rect width="16" height="16" fill="white"/>
    </clipPath>
  </defs>
</svg>