<svg width="20" height="20" viewBox="0 0 20 20" fill="none" xmlns="http://www.w3.org/2000/svg">
<path d="M4.79082 19.3618H15.2064C16.5408 19.3618 17.6221 18.2806 17.6221 16.9482V5.70152C17.6221 5.46595 17.5297 5.23977 17.3648 5.07154L13.1469 0.768165C13.0798 0.699709 12.988 0.661134 12.8921 0.661134C12.8814 0.661134 12.8604 0.660128 12.8281 0.658581C12.6919 0.652053 12.3547 0.635888 11.7336 0.644906H4.79082C3.45777 0.644906 2.37656 1.7262 2.37656 3.06058V16.9475C2.37656 18.2799 3.45852 19.3618 4.79082 19.3618ZM12.9921 4.217V2.14416L16.1228 5.27484H14.05C13.4646 5.27484 12.9921 4.80243 12.9921 4.217ZM14.05 6.63267H16.2642V16.9482C16.2642 17.5317 15.7917 18.0061 15.2064 18.0061H4.79082C4.20701 18.0061 3.7344 17.5318 3.7344 16.9482V3.06058C3.7344 2.47511 4.20755 2.00274 4.79082 2.00274H11.6175C11.6139 2.65178 11.6178 3.19471 11.6228 3.58081C11.6254 3.78376 11.6283 3.94338 11.6305 4.05233L11.6333 4.1768L11.6341 4.20881L11.6343 4.21695L11.6343 4.21835C11.635 5.55215 12.716 6.63267 14.05 6.63267ZM6.52652 14.7326H13.4707C13.8469 14.7326 14.15 14.4289 14.15 14.0547C14.15 13.6803 13.846 13.3769 13.47 13.3769H6.52652C6.15245 13.3769 5.84866 13.6798 5.84866 14.0547C5.84866 14.4288 6.15159 14.7326 6.52652 14.7326ZM6.52652 11.2605H13.4707C13.847 11.2605 14.15 10.9568 14.15 10.5819C14.15 10.2075 13.846 9.90406 13.47 9.90406H6.52652C6.15237 9.90406 5.84866 10.2078 5.84866 10.5819C5.84866 10.9566 6.15151 11.2605 6.52652 11.2605Z" fill="#333333" stroke="#333333" stroke-width="0.2"/>
</svg>
