<?xml version="1.0" standalone="no"?><!DOCTYPE svg PUBLIC "-//W3C//DTD SVG 1.1//EN" "http://www.w3.org/Graphics/SVG/1.1/DTD/svg11.dtd"><svg t="1691077323637" class="icon" viewBox="0 0 1024 1024" version="1.1" xmlns="http://www.w3.org/2000/svg" p-id="11014" xmlns:xlink="http://www.w3.org/1999/xlink" width="200" height="200"><path d="M78.24896 892.50304V98.36032c0-14.7968 14.7968-29.59872 29.59872-29.59872 14.7968 0 29.58848 14.80192 29.58848 29.59872V867.84h804.01408c14.7968 0 29.59872 14.80192 29.59872 29.59872 0 14.80192-14.80192 29.5936-29.59872 29.5936H107.84768c-14.80192 0-29.59872-19.72736-29.59872-34.52928z m0 0" p-id="11015"></path><path d="M107.84768 941.82912c-9.86624 0-14.80192-4.92544-24.66816-9.86112-9.86112-9.86624-14.7968-24.66304-14.7968-39.46496V98.36032c0-24.66304 19.72736-44.3904 39.46496-44.3904 19.72736 0 39.45472 19.72736 39.45472 44.3904v759.62368h789.21216c24.66304 0 39.46496 19.72736 39.46496 44.3904s-14.80192 39.45472-39.46496 39.45472H107.84768z m0-863.20128c-9.86624 0-14.80192 9.86624-14.80192 19.72736v794.14784c0 4.93568 4.93568 14.80192 9.86624 19.73248l4.93568 4.92544h828.672c9.86624 0 14.80192-9.86112 14.80192-19.72736 0-9.86624-4.93568-19.73248-14.80192-19.73248H122.63936V98.36032c0-9.86112-4.93056-19.73248-14.79168-19.73248z m0 0" p-id="11016"></path><path d="M255.8208 636.01152c-4.93568 0-9.86624 0-14.80192-4.93568-14.7968-9.86112-14.7968-24.66304-9.86112-34.52928l172.63616-221.96224c4.93568-9.86624 14.80192-9.86624 19.7376-9.86624 4.92544 0 9.86112 0 14.7968 4.93568l152.9088 98.65216 271.29344-212.10112c4.93568-4.92544 9.86624-4.92544 19.72736-4.92544 9.86624 0 14.80192 4.92544 19.73248 9.86112 4.93568 4.93568 4.93568 9.86624 4.93568 19.72736 0 4.93568-4.93568 14.80192-9.86112 14.80192L610.9696 517.632c-4.92544 4.93568-9.86112 4.93568-14.7968 4.93568-4.93568 0-9.86624 0-14.7968-4.93568L433.39264 418.97472l-157.84448 207.16544c-4.93056 4.93568-14.79168 9.87136-19.72736 9.87136z m0 0" p-id="11017"></path><path d="M255.8208 645.87776c-9.86624 0-14.80192-4.93568-24.66304-9.86624-14.80192-9.86624-19.72736-34.52928-4.93568-49.32608l172.63616-221.96736c9.86624-14.7968 34.52928-19.72736 49.3312-9.86112l147.97824 93.71648 266.35776-207.16544c19.72736-14.80192 39.45984-9.86624 54.25664 4.93568v34.52416c0 9.86624-4.93568 19.73248-14.80192 24.66304l-281.15456 221.96736c-14.7968 9.86624-29.59872 9.86624-44.3904 0L438.32832 433.77664 290.3552 626.14528c-14.80704 14.80192-24.66816 19.73248-34.5344 19.73248z m167.71072-271.29344c-4.93568 0-9.86624 0-9.86624 4.93568l-172.6464 221.96224c-4.92544 4.93568-4.92544 14.80192 4.93568 19.73248 4.93568 4.92544 14.80192 4.92544 19.73248-4.93568l162.76992-212.10112 157.83936 103.58272c4.93568 4.93568 9.86624 4.93568 14.80192 0l286.09024-221.96736c4.93568 0 4.93568-4.93568 4.93568-9.86112 0-4.93568 0-4.93568-4.93568-9.86624-4.93568-4.93568-14.7968-9.86624-19.72736 0l-276.22912 217.0368-162.77504-103.58272c0-4.93568 0-4.93568-4.92544-4.93568z m0 0" p-id="11018"></path><path d="M819.77344 515.41504c-73.60512 0-149.9392 24.53504-149.9392 70.88128v179.92192c0 46.34112 76.32896 70.88128 149.9392 70.88128 73.60512 0 149.93408-24.53504 149.93408-70.88128V586.2912c0-46.34624-76.32896-70.87616-149.93408-70.87616z m122.6752 250.8032c0 19.08224-49.07008 43.61728-122.6752 43.61728-73.60512 0-122.6752-24.53504-122.6752-43.61728v-49.07008c29.98784 19.08224 76.33408 29.98784 122.6752 29.98784s92.68736-10.9056 122.6752-29.98784v49.07008z m0-89.96352c0 19.08736-49.07008 43.61728-122.6752 43.61728-73.60512 0-122.6752-24.53504-122.6752-43.61728v-49.07008c29.98784 19.08224 76.33408 29.98784 122.6752 29.98784s92.68736-10.90048 122.6752-29.98784v49.07008z m-122.6752-46.34624c-73.60512 0-122.6752-24.53504-122.6752-43.61728 0-19.08224 49.07008-43.61728 122.6752-43.61728 73.60512 0 122.6752 24.53504 122.6752 43.61728 0 19.08736-49.07008 43.61728-122.6752 43.61728z m0 0" p-id="11019"></path></svg>