<svg width="20" height="20" viewBox="0 0 20 20" fill="none" xmlns="http://www.w3.org/2000/svg">
<path d="M9.64062 14.332H6.75313C6.35609 14.332 6.03125 14.6569 6.03125 15.0539C6.03125 15.4509 6.35609 15.7758 6.75313 15.7758H9.64062C10.0377 15.7758 10.3625 15.4509 10.3625 15.0539C10.3625 14.6569 10.0377 14.332 9.64062 14.332ZM13.25 10.7227H6.75313C6.35609 10.7227 6.03125 11.0475 6.03125 11.4445C6.03125 11.8416 6.35609 12.1664 6.75313 12.1664H13.25C13.647 12.1664 13.9719 11.8416 13.9719 11.4445C13.9719 11.0475 13.647 10.7227 13.25 10.7227ZM13.25 7.11328H6.75313C6.35609 7.11328 6.03125 7.43812 6.03125 7.83516C6.03125 8.23219 6.35609 8.55703 6.75313 8.55703H13.25C13.647 8.55703 13.9719 8.23219 13.9719 7.83516C13.9719 7.43812 13.647 7.11328 13.25 7.11328Z" fill="#262626"/>
<path d="M14.6969 1.69766H14.1916C13.9028 0.8675 13.1088 0.253906 12.1703 0.253906H7.83906C6.90063 0.253906 6.10656 0.8675 5.81781 1.69766H5.3125C3.32734 1.69766 1.70312 3.32188 1.70312 5.30703V16.1352C1.70312 18.1203 3.32734 19.7445 5.3125 19.7445H14.6969C16.682 19.7445 18.3062 18.1203 18.3062 16.1352V5.30703C18.3062 3.32188 16.682 1.69766 14.6969 1.69766ZM7.83906 1.69766H12.1703C12.5673 1.69766 12.8922 2.0225 12.8922 2.41953C12.8922 2.81656 12.5673 3.14141 12.1703 3.14141H7.83906C7.44203 3.14141 7.11719 2.81656 7.11719 2.41953C7.11719 2.0225 7.44203 1.69766 7.83906 1.69766ZM16.8625 16.1352C16.8625 17.3263 15.888 18.3008 14.6969 18.3008H5.3125C4.12141 18.3008 3.14688 17.3263 3.14688 16.1352V5.30703C3.14688 4.11594 4.12141 3.14141 5.3125 3.14141H5.81781C6.10656 3.97156 6.90063 4.58516 7.83906 4.58516H12.1703C13.1088 4.58516 13.9028 3.97156 14.1916 3.14141H14.6969C15.888 3.14141 16.8625 4.11594 16.8625 5.30703V16.1352Z" fill="#262626"/>
</svg>
