<svg xmlns="http://www.w3.org/2000/svg" width="16" height="16" viewBox="0 0 16 16" fill="none">
  <g clip-path="url(#clip0_257_7167)">
    <path d="M8.52411 7.71619V1.5809C8.52408 1.42683 8.46286 1.27908 8.3539 1.17014C8.24495 1.0612 8.09719 1 7.94311 1C7.78904 1 7.64127 1.0612 7.53232 1.17014C7.42336 1.27908 7.36214 1.42683 7.36212 1.5809V7.71619C6.82099 7.84599 6.33976 8.15519 5.9968 8.59341C5.65384 9.03164 5.46936 9.57308 5.4734 10.1295C5.47744 10.686 5.66977 11.2247 6.01906 11.6579C6.36835 12.0911 6.85403 12.3933 7.39698 12.5152C7.37651 12.5732 7.36477 12.6339 7.36212 12.6953V14.3627C7.36214 14.5168 7.42336 14.6646 7.53232 14.7735C7.64127 14.8825 7.78904 14.9437 7.94311 14.9437C8.09719 14.9437 8.24495 14.8825 8.3539 14.7735C8.46286 14.6646 8.52408 14.5168 8.52411 14.3627V12.6953C8.52242 12.6332 8.50861 12.572 8.48343 12.5152C9.02656 12.3939 9.51262 12.0924 9.86246 11.6596C10.2123 11.2268 10.4053 10.6883 10.41 10.1318C10.4147 9.57537 10.2309 9.0337 9.88843 8.59505C9.54598 8.1564 9.06509 7.84663 8.52411 7.71619ZM7.94311 11.4171C7.68457 11.4171 7.43183 11.3404 7.21685 11.1968C7.00188 11.0532 6.83433 10.849 6.73538 10.6101C6.63644 10.3713 6.61056 10.1084 6.661 9.85485C6.71144 9.60127 6.83594 9.36835 7.01876 9.18552C7.20158 9.00271 7.4345 8.8782 7.68808 8.82776C7.94166 8.77732 8.2045 8.80321 8.44337 8.90215C8.68223 9.00109 8.8864 9.16864 9.03004 9.38362C9.17368 9.59859 9.25035 9.85133 9.25035 10.1099C9.25035 10.4566 9.11262 10.7891 8.86747 11.0342C8.62231 11.2794 8.28981 11.4171 7.94311 11.4171ZM3.06277 3.90488V1.5809C3.06275 1.42683 3.00153 1.27908 2.89257 1.17014C2.78362 1.0612 2.63585 1 2.48178 1C2.32771 1 2.17994 1.0612 2.07099 1.17014C1.96203 1.27908 1.90081 1.42683 1.90079 1.5809V3.90488C1.36022 4.03062 0.878128 4.33564 0.532993 4.77027C0.187858 5.20491 0 5.74357 0 6.29857C0 6.85357 0.187858 7.39223 0.532993 7.82686C0.878128 8.2615 1.36022 8.56651 1.90079 8.69226V14.3627C1.90081 14.5168 1.96203 14.6646 2.07099 14.7735C2.17994 14.8825 2.32771 14.9437 2.48178 14.9437C2.63585 14.9437 2.78362 14.8825 2.89257 14.7735C3.00153 14.6646 3.06275 14.5168 3.06277 14.3627V8.69226C3.60334 8.56651 4.08543 8.2615 4.43056 7.82686C4.7757 7.39223 4.96356 6.85357 4.96356 6.29857C4.96356 5.74357 4.7757 5.20491 4.43056 4.77027C4.08543 4.33564 3.60334 4.03062 3.06277 3.90488ZM2.48178 7.6058C2.22323 7.6058 1.97049 7.52913 1.75552 7.38549C1.54054 7.24185 1.37299 7.03769 1.27405 6.79882C1.17511 6.55996 1.14922 6.29712 1.19966 6.04354C1.2501 5.78996 1.3746 5.55703 1.55742 5.37421C1.74024 5.19139 1.97317 5.06689 2.22675 5.01645C2.48033 4.96601 2.74317 4.9919 2.98204 5.09084C3.2209 5.18978 3.42506 5.35733 3.5687 5.57231C3.71234 5.78728 3.78901 6.04002 3.78901 6.29857C3.78903 6.64326 3.6529 6.97401 3.41025 7.21884C3.1676 7.46366 2.83808 7.60274 2.4934 7.6058H2.48178ZM16.0015 6.29857C16.0005 5.74396 15.8124 5.20592 15.4676 4.77151C15.1228 4.3371 14.6415 4.03175 14.1016 3.90488V1.5809C14.1016 1.42683 14.0404 1.27908 13.9314 1.17014C13.8225 1.0612 13.6747 1 13.5206 1C13.3666 1 13.2188 1.0612 13.1099 1.17014C13.0009 1.27908 12.9397 1.42683 12.9397 1.5809V3.90488C12.3991 4.03062 11.917 4.33564 11.5719 4.77027C11.2267 5.20491 11.0389 5.74357 11.0389 6.29857C11.0389 6.85357 11.2267 7.39223 11.5719 7.82686C11.917 8.2615 12.3991 8.56651 12.9397 8.69226V14.3627C12.9397 14.5168 13.0009 14.6646 13.1099 14.7735C13.2188 14.8825 13.3666 14.9437 13.5206 14.9437C13.6747 14.9437 13.8225 14.8825 13.9314 14.7735C14.0404 14.6646 14.1016 14.5168 14.1016 14.3627V8.69226C14.641 8.56444 15.1217 8.25883 15.4664 7.82463C15.811 7.39043 15.9995 6.8529 16.0015 6.29857ZM13.5323 7.6058C13.2737 7.6058 13.021 7.52913 12.806 7.38549C12.591 7.24185 12.4235 7.03769 12.3245 6.79882C12.2256 6.55996 12.1997 6.29712 12.2501 6.04354C12.3006 5.78996 12.4251 5.55703 12.6079 5.37421C12.7907 5.19139 13.0237 5.06689 13.2772 5.01645C13.5308 4.96601 13.7937 4.9919 14.0325 5.09084C14.2714 5.18978 14.4755 5.35733 14.6192 5.57231C14.7628 5.78728 14.8395 6.04002 14.8395 6.29857C14.8395 6.64527 14.7018 6.97777 14.4566 7.22292C14.2115 7.46807 13.879 7.6058 13.5323 7.6058Z" fill="black"/>
  </g>
  <defs>
    <clipPath id="clip0_257_7167">
      <rect width="16" height="16" fill="white"/>
    </clipPath>
  </defs>
</svg>