<?xml version="1.0" standalone="no"?><!DOCTYPE svg PUBLIC "-//W3C//DTD SVG 1.1//EN" "http://www.w3.org/Graphics/SVG/1.1/DTD/svg11.dtd"><svg t="1691077234689" class="icon" viewBox="0 0 1024 1024" version="1.1" xmlns="http://www.w3.org/2000/svg" p-id="9821" xmlns:xlink="http://www.w3.org/1999/xlink" width="200" height="200"><path d="M232 513.6H72c-22.1 0-40 17.9-40 40v240c0 22.1 17.9 40 40 40h160c22.1 0 40-17.9 40-40v-240c0-22.1-17.9-40-40-40zM592 353.6H432c-22.1 0-40 17.9-40 40v400c0 22.1 17.9 40 40 40h160c22.1 0 40-17.9 40-40v-400c0-22.1-17.9-40-40-40zM952 193.6H792c-22.1 0-40 17.9-40 40v560c0 22.1 17.9 40 40 40h160c22.1 0 40-17.9 40-40v-560c0-22.1-17.9-40-40-40z" fill="#C5D0D7" p-id="9822"></path></svg>