<svg xmlns="http://www.w3.org/2000/svg" width="16" height="16" viewBox="0 0 16 16" fill="none">
  <path d="M5.08407 4.49414C4.76191 4.49414 4.50073 4.75531 4.50073 5.07748V8.57748C4.50073 8.89964 4.76191 9.16082 5.08407 9.16082C5.40623 9.16082 5.6674 8.89964 5.6674 8.57748V5.07748C5.6674 4.75531 5.40623 4.49414 5.08407 4.49414ZM10.9174 4.49417C10.5952 4.49417 10.3341 4.75533 10.3341 5.0775V7.99413C10.3341 8.3163 10.5952 8.57748 10.9174 8.57748C11.2396 8.57748 11.5007 8.3163 11.5007 7.99413V5.0775C11.5007 4.75533 11.2396 4.49417 10.9174 4.49417ZM7.4174 6.24415C7.4174 5.92198 7.67857 5.66081 8.00074 5.66081C8.32291 5.66081 8.58407 5.92198 8.58407 6.24415V7.99415C8.58407 8.31632 8.32291 8.57748 8.00074 8.57748C7.67857 8.57748 7.4174 8.31632 7.4174 7.99415V6.24415Z" fill="black"/>
  <path d="M3.33406 1.57812H12.6674C13.9561 1.57812 15.0007 2.6228 15.0007 3.91146V7.4163C15.0007 7.73847 14.7396 7.99963 14.4174 7.99963C14.0952 7.99963 13.8341 7.73847 13.8341 7.4163V3.91146C13.8341 3.26713 13.3117 2.74479 12.6674 2.74479H3.33406C2.68973 2.74479 2.16739 3.26713 2.16739 3.91146V10.3281C2.16739 10.9725 2.68973 11.4948 3.33406 11.4948H7.41667C7.73884 11.4948 8 11.756 8 12.0781C8 12.4003 7.73884 12.6615 7.41667 12.6615H5.75764L4.6361 14.604C4.47501 14.883 4.11825 14.9786 3.83924 14.8176C3.56023 14.6565 3.46464 14.2997 3.62573 14.0207L4.41049 12.6615H3.33406C2.0454 12.6615 1.00073 11.6168 1.00073 10.3281V3.91146C1.00073 2.6228 2.0454 1.57812 3.33406 1.57812Z" fill="black"/>
  <path d="M12.1009 9.00222V9.48302H9.89087C9.73671 9.48302 9.60087 9.5913 9.60087 9.7373V13.5944C9.60087 13.7404 9.73671 13.8487 9.89087 13.8487H14.8909C15.045 13.8487 15.1809 13.7404 15.1809 13.5944V9.7373C15.1809 9.5913 15.045 9.48302 14.8909 9.48302H12.6809L12.6809 9.00221C12.8113 8.92353 12.8996 8.79151 12.8996 8.63909C12.8996 8.38954 12.6658 8.1973 12.3909 8.1973C12.1159 8.1973 11.8821 8.38954 11.8821 8.63909L11.8821 8.63947L11.8822 8.64612L11.8822 8.6465C11.885 8.79583 11.9725 8.92483 12.1009 9.00222ZM11.3831 12.7587L11.4092 12.7283L11.3831 12.7587C11.3929 12.767 11.4041 12.7734 11.4161 12.7776C11.428 12.7819 11.4407 12.784 11.4534 12.784H13.3284C13.341 12.784 13.3537 12.7819 13.3657 12.7776C13.3776 12.7734 13.3889 12.767 13.3986 12.7587L13.3726 12.7283L13.3986 12.7587C13.4083 12.7503 13.4164 12.7401 13.4221 12.7283C13.4278 12.7166 13.4309 12.7037 13.4309 12.6904V12.369C13.4309 12.3558 13.4278 12.3429 13.4221 12.3311C13.4164 12.3193 13.4083 12.3091 13.3986 12.3008C13.3889 12.2924 13.3776 12.2861 13.3657 12.2818C13.3537 12.2776 13.341 12.2754 13.3284 12.2754H11.4534C11.428 12.2754 11.4027 12.284 11.3831 12.3007C11.3634 12.3177 11.3509 12.342 11.3509 12.369V12.6904C11.3509 12.7037 11.3539 12.7166 11.3596 12.7283C11.3653 12.7401 11.3734 12.7503 11.3831 12.7587ZM8.88314 10.4726L8.88314 10.4726C8.86342 10.4895 8.85087 10.5139 8.85087 10.5409V12.5766C8.85087 12.6036 8.86342 12.6279 8.88314 12.6448C8.90267 12.6616 8.92801 12.6702 8.95337 12.6702H9.32837C9.35373 12.6702 9.37907 12.6616 9.39859 12.6448C9.41831 12.6279 9.43087 12.6036 9.43087 12.5766V10.5409C9.43087 10.5139 9.41831 10.4895 9.39859 10.4726C9.37907 10.4559 9.35373 10.4473 9.32837 10.4473H8.95337C8.92801 10.4473 8.90267 10.4559 8.88314 10.4726ZM10.2434 10.0452H14.5384V13.2866H10.2434V10.0452ZM15.8657 10.4537C15.8537 10.4494 15.841 10.4473 15.8284 10.4473H15.4534C15.428 10.4473 15.4027 10.4559 15.3831 10.4726C15.3634 10.4895 15.3509 10.5139 15.3509 10.5409V12.5766C15.3509 12.6036 15.3634 12.6279 15.3831 12.6448C15.4027 12.6616 15.428 12.6702 15.4534 12.6702H15.8284C15.841 12.6702 15.8537 12.668 15.8657 12.6638C15.8776 12.6595 15.8889 12.6532 15.8986 12.6448C15.9083 12.6365 15.9164 12.6262 15.9221 12.6145C15.9278 12.6027 15.9309 12.5898 15.9309 12.5766V10.5409C15.9309 10.5277 15.9278 10.5148 15.9221 10.503C15.9164 10.4912 15.9083 10.481 15.8986 10.4726C15.8889 10.4643 15.8776 10.4579 15.8657 10.4537ZM11.5559 11.2909C11.5559 11.0561 11.3361 10.8759 11.0784 10.8759C10.8207 10.8759 10.6009 11.0561 10.6009 11.2909C10.6009 11.5256 10.8207 11.7059 11.0784 11.7059C11.3361 11.7059 11.5559 11.5256 11.5559 11.2909ZM14.1809 11.2909C14.1809 11.0561 13.9611 10.8759 13.7034 10.8759C13.4457 10.8759 13.2259 11.0561 13.2259 11.2909C13.2259 11.5256 13.4457 11.7059 13.7034 11.7059C13.9611 11.7059 14.1809 11.5256 14.1809 11.2909Z" fill="black" stroke="black" stroke-width="0.08"/>
</svg>