<svg xmlns="http://www.w3.org/2000/svg" width="16" height="16" viewBox="0 0 16 16" fill="none">
  <g clip-path="url(#clip0_156_7873)">
    <path d="M12.4398 9.77318L12.3755 9.818L12.4398 9.77318C11.7318 8.75703 10.7486 7.97827 9.59678 7.5211C9.59677 7.5211 9.59676 7.5211 9.59675 7.52109L9.53667 7.49722L9.58767 7.45741C10.5013 6.74423 11.0261 5.6778 11.0261 4.53183C11.0261 2.47925 9.34484 0.810272 7.27951 0.810272C5.21408 0.810272 3.53286 2.47916 3.53286 4.53183C3.53286 5.6778 4.0576 6.74423 4.97134 7.45733C4.97134 7.45733 4.97135 7.45733 4.97135 7.45733L5.02234 7.49713L4.96226 7.52101C3.81047 7.97818 2.8273 8.75721 2.11918 9.77343C1.39389 10.8143 1.01047 12.0347 1.01047 13.302V14.5548C1.01047 14.8805 1.27725 15.1444 1.60404 15.1444H12.9549C13.2817 15.1444 13.5485 14.8806 13.5485 14.5549V13.3021C13.5485 12.0345 13.165 10.8141 12.4398 9.77318ZM14.3768 13.188L14.3782 13.265L14.4552 13.265L15.4707 13.2649C15.7974 13.2649 16.0641 13.0012 16.0641 12.6756V11.7065C16.0642 9.83873 15.0326 8.14755 13.3722 7.29332L13.3291 7.27114L13.3618 7.23539C13.8843 6.66302 14.1724 5.92557 14.1724 5.15895C14.1724 3.46938 12.8033 2.0925 11.1106 2.06355L10.9667 2.06109L11.0427 2.18334L11.0737 2.23346L11.0733 2.23367L11.0783 2.24008C11.3275 2.56611 11.5204 2.92597 11.6524 3.31086L11.6647 3.34676L11.7004 3.35938C12.4719 3.63155 12.9853 4.34791 12.9853 5.15895C12.9853 5.90773 12.5409 6.59268 11.8525 6.90313L11.8525 6.90312L11.8511 6.90376L11.8508 6.90391L11.8504 6.90406L11.8503 6.90411C11.6108 6.99433 11.4485 7.20586 11.4485 7.44884C11.4485 7.69822 11.6226 7.91658 11.8708 8.0012L11.8707 8.00154L11.878 8.00327L11.9964 8.03134C11.9966 8.03139 11.9967 8.03143 11.9969 8.03147C13.693 8.45713 14.8771 9.96844 14.8771 11.7065V12.0863H14.3536H14.2597L14.2765 12.1787C14.337 12.511 14.3707 12.8494 14.3768 13.188ZM2.19779 13.302C2.19779 10.5189 4.47736 8.25348 7.2802 8.25348C10.0823 8.25348 12.3613 10.5188 12.3614 13.302V13.9654H2.19779V13.302ZM4.72018 4.53192C4.72018 3.13034 5.86793 1.98915 7.27959 1.98915C8.69117 1.98915 9.83892 3.13034 9.83892 4.53192C9.83892 5.93341 8.69117 7.07461 7.27959 7.07461C5.86793 7.07461 4.72018 5.93341 4.72018 4.53192Z" fill="black" stroke="black" stroke-width="0.1568"/>
  </g>
  <defs>
    <clipPath id="clip0_156_7873">
      <rect width="16" height="16" fill="white" transform="translate(0.199951)"/>
    </clipPath>
  </defs>
</svg>