<svg width="16" height="16" viewBox="0 0 16 16" fill="none" xmlns="http://www.w3.org/2000/svg">
<g clip-path="url(#clip0_7_12132)">
<path d="M14.5712 0.859253H1.42836C1.11229 0.859253 0.856934 1.11461 0.856934 1.43068V14.5735C0.856934 14.8896 1.11229 15.145 1.42836 15.145H14.5712C14.8873 15.145 15.1426 14.8896 15.1426 14.5735V1.43068C15.1426 1.11461 14.8873 0.859253 14.5712 0.859253ZM13.8569 9.14497H8.28551V6.85925H13.8569V9.14497ZM13.8569 13.8593H2.14265V2.14497H13.8569V5.7164H7.71408C7.39801 5.7164 7.14265 5.97175 7.14265 6.28783V9.7164C7.14265 10.0325 7.39801 10.2878 7.71408 10.2878H13.8569V13.8593ZM9.21408 8.00211C9.21408 8.19155 9.28933 8.37323 9.42329 8.50719C9.55724 8.64114 9.73892 8.7164 9.92836 8.7164C10.1178 8.7164 10.2995 8.64114 10.4334 8.50719C10.5674 8.37323 10.6426 8.19155 10.6426 8.00211C10.6426 7.81267 10.5674 7.63099 10.4334 7.49704C10.2995 7.36308 10.1178 7.28783 9.92836 7.28783C9.73892 7.28783 9.55724 7.36308 9.42329 7.49704C9.28933 7.63099 9.21408 7.81267 9.21408 8.00211Z" fill="#165DFF"/>
</g>
<defs>
<clipPath id="clip0_7_12132">
<rect width="16" height="16" fill="white"/>
</clipPath>
</defs>
</svg>
