<svg width="24" height="24" viewBox="0 0 24 24" fill="none" xmlns="http://www.w3.org/2000/svg">
<g clip-path="url(#clip0_558_80044)">
<path d="M2.91224 14.9796C3.71749 18.1005 6.08257 20.6243 9.23741 21.6769C10.2106 22.0413 11.2993 22.1611 12.2605 22.1611C13.8279 22.1611 15.2811 21.7997 16.6143 20.9535C18.9077 19.8641 20.5935 17.814 21.4374 15.4091C21.5911 15.0875 21.4241 14.6492 21.0008 14.5024C20.6769 14.3481 20.2348 14.5188 20.0914 14.9489C19.3884 17.058 17.9854 18.8077 16.0047 19.7398L16.0046 19.7397L15.9985 19.7429C14.0145 20.7933 11.7965 20.9112 9.69062 20.2095C6.65163 19.1572 4.43313 16.4708 4.08014 13.3212C4.07773 13.161 4.00917 13.0331 3.89779 12.9461C3.78974 12.8617 3.65091 12.8227 3.5139 12.8126C3.24249 12.7925 2.92005 12.8819 2.70572 13.0634C2.38055 13.3388 1.87151 13.8816 0.968271 14.8978L0.955354 14.9123L0.946659 14.9297C0.806291 15.2104 0.800487 15.6394 1.09316 15.9321L1.11002 15.949L1.13136 15.9596C1.4121 16.1 1.84111 16.1058 2.13377 15.8131L2.14073 15.8062C2.40979 15.5371 2.68677 15.2601 2.91224 14.9796ZM20.8789 12.5098L20.91 12.5253H20.9447H21.1826L21.1883 12.5253C21.3079 12.5253 21.4778 12.5254 21.6384 12.3682C22.3569 11.7691 22.9566 11.169 23.5558 10.45L23.5667 10.4369L23.5743 10.4217C23.7147 10.1409 23.7205 9.71193 23.4278 9.41926L23.411 9.40239L23.3896 9.39173C23.1089 9.25136 22.6799 9.24555 22.3872 9.53822C22.2041 9.72138 22.0518 9.90412 21.904 10.0814L21.9024 10.0834C21.8091 10.1953 21.7176 10.305 21.6199 10.4139C20.8324 7.27182 18.5756 4.61318 15.4 3.55465C10.3295 1.86448 4.77206 4.51945 3.07999 9.59568C3.01334 9.79562 3.0049 9.98788 3.08796 10.154C3.17103 10.3201 3.3299 10.4287 3.52984 10.4954C3.73286 10.5631 3.95071 10.5685 4.12674 10.4903C4.30548 10.4108 4.42734 10.2498 4.43653 10.0264C5.96492 5.83182 10.6323 3.50611 14.9479 5.02241L14.9485 5.02263C17.9846 6.07358 20.0876 8.75785 20.4408 11.911C20.4423 12.0536 20.4801 12.1741 20.5622 12.2768C20.6418 12.3763 20.754 12.4473 20.8789 12.5098Z" fill="#666" stroke="#666" stroke-width="0.294"/>
<path d="M9.64168 10.6919H14.9949C15.1423 10.6919 15.3132 10.6204 15.4461 10.5041C15.5809 10.3861 15.6877 10.2123 15.6877 9.9991C15.6877 9.79839 15.6204 9.62352 15.4955 9.49857C15.3705 9.37363 15.1956 9.3063 14.9949 9.3063H9.64168C9.42848 9.3063 9.25463 9.41316 9.13669 9.54795C9.02038 9.68088 8.94887 9.8517 8.94887 9.9991C8.94887 10.1465 9.02038 10.3173 9.13669 10.4503C9.25463 10.585 9.42848 10.6919 9.64168 10.6919ZM9.64168 13.3091H14.9949C15.1423 13.3091 15.3132 13.2376 15.4461 13.1212C15.5809 13.0033 15.6877 12.8295 15.6877 12.6163C15.6877 12.4155 15.6204 12.2407 15.4955 12.1157C15.3705 11.9908 15.1957 11.9234 14.9949 11.9234H9.64168C9.42848 11.9234 9.25463 12.0303 9.13669 12.1651C9.02038 12.298 8.94887 12.4688 8.94887 12.6163C8.94887 12.7637 9.02038 12.9345 9.13669 13.0674C9.25463 13.2022 9.42848 13.3091 9.64168 13.3091ZM9.64168 15.9262H14.9949C15.1423 15.9262 15.3132 15.8547 15.4461 15.7384C15.5809 15.6204 15.6877 15.4466 15.6877 15.2334C15.6877 15.0327 15.6204 14.8578 15.4955 14.7329C15.3705 14.6079 15.1956 14.5406 14.9949 14.5406H9.64168C9.44097 14.5406 9.26609 14.6079 9.14115 14.7329C9.01621 14.8578 8.94887 15.0327 8.94887 15.2334C8.94887 15.4341 9.01621 15.609 9.14115 15.7339C9.26609 15.8589 9.44097 15.9262 9.64168 15.9262Z" fill="black" stroke="black" stroke-width="0.196"/>
</g>
<defs>
<clipPath id="clip0_558_80044">
<rect width="24" height="24" fill="white"/>
</clipPath>
</defs>
</svg>
