<svg xmlns="http://www.w3.org/2000/svg" width="16" height="16" viewBox="0 0 16 16" fill="none">
  <g clip-path="url(#clip0_156_7880)">
    <path d="M8.55127 11.0564L8.55589 11.0426V11.028V10.0931H10.0497C10.2099 10.0931 10.3504 10.0393 10.4511 9.93864C10.5518 9.83797 10.6056 9.69747 10.6056 9.53727C10.6056 9.37706 10.5518 9.23657 10.4511 9.13589C10.3504 9.03522 10.2099 8.98143 10.0497 8.98143H8.55589V8.41609H10.0497C10.2099 8.41609 10.3504 8.36229 10.4511 8.26162C10.5518 8.16095 10.6056 8.02045 10.6056 7.86025C10.6056 7.70004 10.5518 7.55955 10.4511 7.45888C10.3504 7.3582 10.2099 7.30441 10.0497 7.30441H8.55589V7.05902L10.2997 5.31519C10.5212 5.09371 10.5212 4.75722 10.2997 4.53574C10.0782 4.31426 9.74174 4.31426 9.52026 4.53574L7.95346 6.10253L6.38667 4.53574C6.16519 4.31426 5.8287 4.31426 5.60721 4.53574C5.38573 4.75722 5.38573 5.09371 5.60721 5.31519L7.44421 7.15219V7.30441H5.85719C5.69699 7.30441 5.55649 7.3582 5.45582 7.45888C5.35515 7.55955 5.30135 7.70004 5.30135 7.86025C5.30135 8.02045 5.35515 8.16095 5.45582 8.26162C5.55649 8.36229 5.69699 8.41609 5.85719 8.41609H7.44421V8.98143H5.85719C5.69699 8.98143 5.55649 9.03522 5.45582 9.13589C5.35515 9.23657 5.30135 9.37706 5.30135 9.53727C5.30135 9.69747 5.35515 9.83797 5.45582 9.93864C5.55649 10.0393 5.69699 10.0931 5.85719 10.0931H7.44421V11.028C7.44421 11.1882 7.498 11.3287 7.59867 11.4293C7.69935 11.53 7.83984 11.5838 8.00005 11.5838C8.12408 11.5838 8.23884 11.522 8.33154 11.4293C8.42467 11.3362 8.50111 11.2069 8.55127 11.0564ZM9.39756 15.4968H9.41217L9.42602 15.4922C9.57513 15.4425 9.71063 15.3646 9.79565 15.2512C9.88421 15.1331 9.91102 14.9856 9.85561 14.8194C9.80591 14.6703 9.72797 14.5348 9.61461 14.4497C9.49735 14.3618 9.35103 14.3347 9.18623 14.3886C8.82691 14.4778 8.37455 14.4783 8.00005 14.4783C4.41621 14.4783 1.56831 11.6304 1.56831 8.04658C1.56831 4.46108 4.41787 1.52168 8.00005 1.52168C11.5839 1.52168 14.4318 4.36958 14.4318 7.95342C14.4318 8.3251 14.4315 8.59406 14.3421 8.95324C14.2361 9.27813 14.448 9.61754 14.7867 9.62706C15.1101 9.72579 15.4442 9.512 15.4502 9.17388C15.5435 8.70319 15.5435 8.32538 15.5435 7.95538V7.95342C15.5435 3.80433 12.1491 0.41 8.00005 0.41C3.85096 0.41 0.456631 3.80433 0.456631 7.95342C0.456631 12.1025 3.85096 15.4968 8.00005 15.4968H8.00278H8.00551H8.00824H8.01097H8.01369H8.01642H8.01915H8.02188H8.02461H8.02734H8.03007H8.0328H8.03553H8.03826H8.04099H8.04372H8.04645H8.04918H8.05191H8.05464H8.05737H8.0601H8.06283H8.06556H8.06829H8.07101H8.07374H8.07647H8.0792H8.08193H8.08466H8.08739H8.09012H8.09285H8.09558H8.09831H8.10104H8.10377H8.1065H8.10923H8.11196H8.11469H8.11742H8.12015H8.12288H8.12561H8.12833H8.13106H8.13379H8.13652H8.13925H8.14198H8.14471H8.14744H8.15017H8.1529H8.15563H8.15836H8.16109H8.16382H8.16655H8.16928H8.17201H8.17474H8.17747H8.1802H8.18293H8.18565H8.18838H8.19111H8.19384H8.19657H8.1993H8.20203H8.20476H8.20749H8.21022H8.21295H8.21568H8.21841H8.22114H8.22387H8.2266H8.22933H8.23206H8.23479H8.23752H8.24025H8.24297H8.2457H8.24843H8.25116H8.25389H8.25662H8.25935H8.26208H8.26481H8.26754H8.27027H8.273H8.27573H8.27846H8.28119H8.28392H8.28665H8.28938H8.29211H8.29484H8.29756H8.30029H8.30302H8.30575H8.30848H8.31121H8.31394H8.31667H8.3194H8.32213H8.32486H8.32759H8.33032H8.33305H8.33578H8.33851H8.34124H8.34397H8.3467H8.34943H8.35216H8.35489H8.35761H8.36034H8.36307H8.3658H8.36853H8.37126H8.37399H8.37672H8.37945H8.38218H8.38491H8.38764H8.39037H8.3931H8.39583H8.39856H8.40129H8.40402H8.40675H8.40948H8.41221H8.41493H8.41766H8.42039H8.42312H8.42585H8.42858H8.43131H8.43404H8.43677H8.4395H8.44223H8.44496H8.44769H8.45042H8.45315H8.45588H8.45861H8.46134H8.46407H8.4668H8.46953H8.47225H8.47498H8.47771H8.48044H8.48317H8.4859H8.48863H8.49136H8.49409H8.49682H8.49955H8.50228H8.50501H8.50774H8.51047H8.5132H8.51593H8.51866H8.52139H8.52412H8.52684H8.52957H8.5323H8.53503H8.53776H8.54049H8.54322H8.54595H8.54868H8.55141H8.55414H8.55687H8.5596H8.56233H8.56506H8.56779H8.57052H8.57325H8.57598H8.57871H8.58144H8.58417H8.58689H8.58962H8.59235H8.59508H8.59781H8.60054H8.60327H8.606H8.60873H8.61146H8.61419H8.61692H8.61965H8.62238H8.62511H8.62784H8.63057H8.6333H8.63603H8.63876H8.64149H8.64421H8.64694H8.64967H8.6524H8.65513H8.65786H8.66059H8.66332H8.66605H8.66878H8.67151H8.67424H8.67697H8.6797H8.68243H8.68516H8.68789H8.69062H8.69335H8.69608H8.6988H8.70153H8.70426H8.70699H8.70972H8.71245H8.71518H8.71791H8.72064H8.72337H8.7261H8.72883H8.73156H8.73429H8.73702H8.73975H8.74248H8.74521H8.74794H8.75067H8.7534H8.75613H8.75885H8.76158H8.76431H8.76704H8.76977H8.7725H8.77523H8.77796H8.78069H8.78342H8.78615H8.78888H8.79161H8.79434H8.79707H8.7998H8.80253H8.80526H8.80799H8.81072H8.81345H8.81617H8.8189H8.82163H8.82436H8.82709H8.82982H8.83255H8.83528H8.83801H8.84074H8.84347H8.8462H8.84893H8.85166H8.85439H8.85712H8.85985H8.86258H8.86531H8.86804H8.87076H8.87349H8.87622H8.87895H8.88168H8.88441H8.88714H8.88987H8.8926H8.89533H8.89806H8.90079H8.90352H8.90625H8.90898H8.91171H8.91444H8.91717H8.9199H8.92263H8.92536H8.92809H8.93081H8.93354H8.93627H8.939H8.94173H8.94446H8.94719H8.94992H8.95265H8.95538H8.95811H8.96084H8.96357H8.9663H8.96903H8.97176H8.97449H8.97722H8.97995H8.98268H8.9854H8.98813H8.99086H8.99359H8.99632H8.99905H9.00178H9.00451H9.00724H9.00997H9.0127H9.01543H9.01816H9.02089H9.02362H9.02635H9.02908H9.03181H9.03454H9.03727H9.04H9.04272H9.04545H9.04818H9.05091H9.05364H9.05637H9.0591H9.06183H9.06456H9.06729H9.07002H9.07275H9.07548H9.07821H9.08094H9.08367H9.0864H9.08913H9.09186H9.09459H9.09732H9.10005H9.10277H9.1055H9.10823H9.11096H9.11369H9.11642H9.11915H9.12188H9.12461H9.12734H9.13007H9.1328H9.13553H9.13826H9.14099H9.14372H9.14645H9.14918H9.15191H9.15464H9.15736H9.16009H9.16282H9.16555H9.16828H9.17101H9.17374H9.17647H9.1792H9.18193H9.18466H9.18739H9.19012H9.19285H9.19558H9.19831H9.20104H9.20377H9.2065H9.20923H9.21196H9.21469H9.21741H9.22014H9.22287H9.2256H9.22833H9.23106H9.23379H9.23652H9.23925H9.24198H9.24471H9.24744H9.25017H9.2529H9.25563H9.25836H9.26109H9.26382H9.26655H9.26928H9.27201H9.27473H9.27746H9.28019H9.28292H9.28565H9.28838H9.29111H9.29384H9.29657H9.2993H9.30203H9.30476H9.30749H9.31022H9.31295H9.31568H9.31841H9.32114H9.32387H9.3266H9.32932H9.33205H9.33478H9.33751H9.34024H9.34297H9.3457H9.34843H9.35116H9.35389H9.35662H9.35935H9.36208H9.36481H9.36754H9.37027H9.373H9.37573H9.37846H9.38119H9.38391H9.38665H9.38937H9.3921H9.39483H9.39756ZM14.9876 12.1491H13.2143V10.3758C13.2143 10.2156 13.1605 10.0751 13.0598 9.9744C12.9591 9.87373 12.8186 9.81994 12.6584 9.81994C12.4982 9.81994 12.3577 9.87373 12.2571 9.9744C12.1564 10.0751 12.1026 10.2156 12.1026 10.3758V12.1491H10.3292C10.169 12.1491 10.0285 12.2029 9.92787 12.3036C9.8272 12.4043 9.7734 12.5448 9.7734 12.705C9.7734 12.8652 9.8272 13.0057 9.92787 13.1063C10.0285 13.207 10.169 13.2608 10.3292 13.2608H12.1026V15.0342C12.1026 15.1944 12.1564 15.3349 12.2571 15.4355C12.3577 15.5362 12.4982 15.59 12.6584 15.59C12.726 15.59 12.7938 15.5653 12.8535 15.5321C12.9144 15.4983 12.9733 15.4521 13.0249 15.4006C13.0764 15.3491 13.1226 15.2901 13.1564 15.2293C13.1895 15.1696 13.2143 15.1017 13.2143 15.0342V13.2608H14.9876C15.1069 13.2608 15.2437 13.2032 15.3497 13.1104C15.4574 13.0162 15.5435 12.8766 15.5435 12.705C15.5435 12.5448 15.4897 12.4043 15.389 12.3036C15.2883 12.2029 15.1478 12.1491 14.9876 12.1491Z" fill="black" stroke="black" stroke-width="0.18"/>
  </g>
  <defs>
    <clipPath id="clip0_156_7880">
      <rect width="16" height="16" fill="white"/>
    </clipPath>
  </defs>
</svg>