<svg xmlns="http://www.w3.org/2000/svg" width="16" height="16" viewBox="0 0 16 16" fill="none">
  <path d="M15.0392 11.2723C14.7752 10.7047 14.3998 10.196 13.9353 9.77621C13.4682 9.35167 12.9274 9.01618 12.3395 8.78631C12.657 8.50866 12.9116 8.1664 13.0862 7.78242C13.2608 7.39844 13.3514 6.98161 13.3519 6.5598C13.3518 5.76307 13.0353 4.999 12.4719 4.43565C11.9085 3.8723 11.1444 3.55582 10.3477 3.55582C9.55099 3.55582 8.7869 3.8723 8.22351 4.43565C7.66012 4.999 7.34359 5.76307 7.34353 6.5598C7.34383 6.98164 7.43432 7.39854 7.60893 7.78255C7.78354 8.16655 8.03823 8.50879 8.35593 8.78631C7.76721 9.01448 7.22606 9.35016 6.76009 9.77621C6.29631 10.1965 5.92103 10.7052 5.65621 11.2723C5.38655 11.8509 5.24728 12.4817 5.24825 13.1201C5.25356 13.2652 5.31495 13.4026 5.41949 13.5034C5.52404 13.6042 5.6636 13.6605 5.80882 13.6605C5.95404 13.6605 6.0936 13.6042 6.19815 13.5034C6.30269 13.4026 6.36408 13.2652 6.36938 13.1201C6.47317 12.1374 6.93701 11.2279 7.67151 10.5669C8.40601 9.90589 9.35919 9.54014 10.3473 9.54014C11.3355 9.54014 12.2887 9.90589 13.0232 10.5669C13.7577 11.2279 14.2215 12.1374 14.3253 13.1201C14.3306 13.2652 14.392 13.4026 14.4965 13.5034C14.6011 13.6042 14.7406 13.6605 14.8859 13.6605C15.0311 13.6605 15.1706 13.6042 15.2752 13.5034C15.3797 13.4026 15.4411 13.2652 15.4464 13.1201C15.4465 12.4818 15.3073 11.8512 15.0385 11.2723H15.0392ZM8.46541 6.56055C8.45991 6.18698 8.56565 5.82022 8.76919 5.50693C8.97272 5.19363 9.26486 4.94797 9.60842 4.80118C9.95198 4.65439 10.3314 4.61312 10.6985 4.68261C11.0656 4.75211 11.4037 4.92923 11.6699 5.19144C11.936 5.45365 12.1181 5.7891 12.193 6.15511C12.268 6.52112 12.2323 6.90115 12.0907 7.24686C11.949 7.59256 11.7077 7.8883 11.3975 8.09647C11.0872 8.30464 10.7221 8.41581 10.3485 8.41585C9.85317 8.41806 9.37712 8.22418 9.0243 7.87656C8.67148 7.52893 8.47056 7.05582 8.46541 6.56055Z" fill="black"/>
  <path d="M6.11066 5.80988H3.30821C3.23287 5.81263 3.15775 5.80017 3.08733 5.77324C3.01691 5.74631 2.95265 5.70547 2.89837 5.65314C2.8441 5.60082 2.80093 5.53809 2.77144 5.4687C2.74196 5.39932 2.72676 5.3247 2.72676 5.24931C2.72676 5.17392 2.74196 5.0993 2.77144 5.02992C2.80093 4.96054 2.8441 4.89781 2.89837 4.84548C2.95265 4.79316 3.01691 4.75231 3.08733 4.72538C3.15775 4.69845 3.23287 4.68599 3.30821 4.68875H6.11066C6.25578 4.69405 6.39319 4.75544 6.49399 4.85998C6.59478 4.96453 6.6511 5.10409 6.6511 5.24931C6.6511 5.39453 6.59478 5.53409 6.49399 5.63864C6.39319 5.74318 6.25578 5.80457 6.11066 5.80988ZM6.11066 9.73346H3.30821C3.23287 9.73622 3.15775 9.72376 3.08733 9.69683C3.01691 9.6699 2.95265 9.62905 2.89837 9.57673C2.8441 9.5244 2.80093 9.46167 2.77144 9.39229C2.74196 9.3229 2.72676 9.24829 2.72676 9.1729C2.72676 9.09751 2.74196 9.02289 2.77144 8.95351C2.80093 8.88412 2.8441 8.82139 2.89837 8.76907C2.95265 8.71674 3.01691 8.67589 3.08733 8.64896C3.15775 8.62203 3.23287 8.60957 3.30821 8.61233H6.11066C6.25578 8.61764 6.39319 8.67902 6.49399 8.78357C6.59478 8.88811 6.6511 9.02768 6.6511 9.1729C6.6511 9.31812 6.59478 9.45768 6.49399 9.56222C6.39319 9.66677 6.25578 9.72815 6.11066 9.73346Z" fill="black"/>
  <path d="M4.28985 14.9582H2.20058C1.80711 14.9501 1.42605 14.819 1.11094 14.5832C0.93227 14.4636 0.784299 14.3035 0.679025 14.116C0.57375 13.9285 0.514132 13.7189 0.505005 13.5041V2.48623C0.513784 2.27101 0.573236 2.06091 0.678526 1.873C0.783816 1.6851 0.931971 1.52469 1.11094 1.40484C1.42616 1.16929 1.80715 1.03818 2.20058 1.02988H14.2743C14.4687 1.02366 14.6614 1.06716 14.8342 1.15627C15.0071 1.24538 15.1543 1.37715 15.2619 1.53908C15.4338 1.82418 15.5178 2.15363 15.5034 2.48623V3.86383C15.4982 4.00247 15.4395 4.1337 15.3396 4.22995C15.2397 4.3262 15.1063 4.37998 14.9676 4.37998C14.8289 4.37998 14.6955 4.3262 14.5956 4.22995C14.4957 4.1337 14.437 4.00247 14.4318 3.86383V2.48623C14.4423 2.3646 14.4192 2.24241 14.365 2.13302C14.3568 2.11952 14.3463 2.10452 14.2713 2.10452H2.19758C2.03303 2.11351 1.87475 2.17061 1.74237 2.26875C1.62539 2.35424 1.57364 2.44123 1.57364 2.48623V13.5056C1.57364 13.5506 1.62689 13.6375 1.74237 13.723C1.87428 13.8221 2.03284 13.8793 2.19758 13.8873H4.28685C4.42549 13.8925 4.55673 13.9512 4.65298 14.0511C4.74922 14.151 4.803 14.2844 4.803 14.4231C4.803 14.5618 4.74922 14.6952 4.65298 14.7951C4.55673 14.895 4.42549 14.9537 4.28685 14.9589L4.28985 14.9582Z" fill="black"/>
</svg>