<?xml version="1.0" standalone="no"?><!DOCTYPE svg PUBLIC "-//W3C//DTD SVG 1.1//EN" "http://www.w3.org/Graphics/SVG/1.1/DTD/svg11.dtd"><svg t="1691077165433" class="icon" viewBox="0 0 1024 1024" version="1.1" xmlns="http://www.w3.org/2000/svg" p-id="7763" xmlns:xlink="http://www.w3.org/1999/xlink" width="200" height="200"><path d="M111.469714 493.421714c58.075429-59.830857 184.612571-103.277714 336.603429-112.054857l3.510857-27.355428C200.850286 368.932571 5.851429 469.869714 5.851429 592.896m19.748571 65.974857c60.416 100.790857 256.585143 174.226286 488.740571 174.226286 177.590857 0 333.238857-42.276571 423.789715-108.251429-85.869714 82.066286-257.755429 136.923429-456.265143 136.923429-221.915429 0-409.892571-69.632-481.865143-166.765714m0 0c26.624 139.410286 245.028571 247.661714 509.659429 247.661714 283.209143 0 513.024-123.172571 513.024-276.333714v-61.001143h-1.024c2.340571-2.340571 2.340571-7.460571 2.340571-12.434286 0-125.659429-203.190857-228.937143-463.140571-240.201143v3.803429l3.364571 24.868571c137.069714 8.777143 254.244571 44.763429 318.025143 95.817143 33.792 27.355429 53.394286 57.197714 53.394286 90.843429 0 13.604571-3.364571 26.185143-9.216 38.619428-9.216 18.578286-24.429714 35.986286-45.202286 52.224-73.142857 57.197714-213.577143 95.817143-374.930286 95.817143s-301.787429-38.619429-375.076571-95.817143c-20.918857-16.237714-35.986286-33.645714-45.202286-52.224m769.609143 13.750857c10.386286 0 19.748571-4.973714 26.624-12.434285 7.021714-7.460571 10.386286-16.237714 10.386286-27.355429 0-22.381714-16.237714-39.789714-37.156572-39.789714-19.748571 0-37.156571 17.408-37.156571 39.789714 0 11.264 3.364571 19.894857 10.386285 27.355429 7.168 7.460571 16.530286 12.434286 26.916572 12.434285z m-628.004572-84.699428c0 26.038857 18.578286 51.053714 51.053715 70.948571 51.053714 31.012571 134.729143 52.224 228.790857 52.224s177.737143-21.211429 228.790857-52.224c32.475429-19.894857 51.053714-44.763429 51.053714-70.948571 0-58.514286-92.891429-108.251429-217.088-120.685715l17.408 129.462858c0 27.355429-66.267429 41.106286-80.018285 41.106285-14.043429 0-80.164571-13.604571-80.164572-39.789714l17.408-130.779429c-124.342857 12.434286-217.234286 62.171429-217.234286 120.685715z m107.812572-202.752c11.556571 0 20.918857-4.973714 28.964571-12.434286h104.594286l-4.681143 33.645714-3.510857 27.355429-1.170286 11.264-3.510857 22.381714L438.857143 548.132571c0 9.947429 47.689143 26.185143 68.461714 26.185143s68.461714-16.237714 68.461714-27.355428l-17.408-131.949715-3.364571-22.381714-1.170286-11.264-3.510857-24.868571v-2.486857l-4.681143-32.475429h116.150857c8.192 7.460571 17.408 12.434286 28.964572 12.434286 23.259429 0 43.008-21.211429 43.008-46.08s-19.748571-46.08-43.008-46.08c-11.556571 0-20.772571 4.973714-28.964572 12.434285h-125.366857l-2.340571-17.408c2.340571-1.170286 3.364571-1.170286 5.851428-2.633142 2.340571-1.170286 3.364571-1.170286 5.851429-2.486858 26.624-14.921143 44.032-43.593143 44.032-78.409142 0-48.420571-37.156571-88.356571-82.505143-88.356572-45.202286 0-82.505143 39.789714-82.505143 88.356572 0 33.645714 18.578286 63.488 44.178286 78.409142 2.340571 1.170286 3.364571 2.486857 5.851429 2.486858 2.340571 1.170286 3.510857 1.170286 5.851428 2.633142l-2.340571 17.408h-113.810286c-8.192-7.460571-17.408-12.434286-28.964571-12.434285-23.259429 0-43.008 21.211429-43.008 46.08 0 23.844571 19.748571 45.056 42.861714 45.056zM560.859429 144.969143s-4.681143-11.264-24.429715-29.842286c-10.386286-11.264-28.964571-22.381714-28.964571-22.381714 52.224 2.486857 53.394286 52.224 53.394286 52.224z m0 0" p-id="7764"></path></svg>