<svg xmlns="http://www.w3.org/2000/svg" width="20" height="20" viewBox="0 0 20 20" fill="none">
  <circle cx="10" cy="10" r="10" fill="#B8CCFF"/>
  <mask id="mask0_666_2375" style="mask-type:alpha" maskUnits="userSpaceOnUse" x="0" y="0" width="20" height="20">
    <circle cx="10" cy="10" r="10" fill="#EFF3F8"/>
  </mask>
  <g mask="url(#mask0_666_2375)">
    <mask id="mask1_666_2375" style="mask-type:alpha" maskUnits="userSpaceOnUse" x="3" y="3" width="15" height="19">
      <rect x="3" y="3" width="14.5439" height="18.556" fill="#D9D9D9"/>
    </mask>
    <g mask="url(#mask1_666_2375)">
      <path fill-rule="evenodd" clip-rule="evenodd" d="M8.69629 11.0377H11.4582V13.771H8.69629V11.0377Z" fill="#FDD9C5"/>
      <path fill-rule="evenodd" clip-rule="evenodd" d="M5.22018 14.657L5.44915 14.7L5.62088 14.8288L5.74967 15.0005L5.7926 15.2294V21.8123L5.74967 22.0412L5.62088 22.2129L5.44915 22.3417L5.22018 22.3847H4.50466L4.27569 22.3417L4.10397 22.2129L3.97517 22.0412L3.93224 21.8123V18.1631L3.84638 17.8769L3.6031 17.2902L3.50293 16.7034V15.8019L3.54586 15.5013L3.66034 15.2294L3.83207 14.9862L4.07535 14.8144L4.34725 14.7L5.22018 14.657ZM15.5237 14.657L15.8242 14.7L16.0961 14.8144L16.3251 14.9862L16.4968 15.2008L16.6256 15.4727L16.6685 15.7732L16.6399 16.9896L16.5827 17.2615L16.3394 17.8196L16.2392 18.3777V21.8123L16.1963 22.0269L16.0818 22.2129L15.9101 22.3274L15.6668 22.3847H14.9513L14.7366 22.3417L14.5506 22.2273L14.4361 22.0555L14.3789 21.8123V15.2294L14.4218 15.0148L14.5363 14.8288L14.708 14.7143L14.9227 14.657H15.5237Z" fill="#014CFA"/>
      <path fill-rule="evenodd" clip-rule="evenodd" d="M5.79298 18.3802V21.8147L5.75005 22.0436L5.62125 22.2154L5.44953 22.3442L5.22056 22.3871H4.50504L4.27607 22.3442L4.10434 22.2154L3.97555 22.0436L3.93262 21.8147V18.3802H5.79298ZM16.2396 18.3802V21.8147L16.1967 22.0293L16.0822 22.2154L15.9105 22.3299L15.6672 22.3871H14.9517L14.737 22.3442L14.551 22.2297L14.4365 22.058L14.3793 21.8147V18.3802H16.2396Z" fill="#FFE6D9"/>
      <path fill-rule="evenodd" clip-rule="evenodd" d="M9.77157 13.8008L12.6909 13.7722L12.8626 14.6594L12.9485 15.3606L12.9342 15.9473L12.8483 16.4196L12.7052 16.806L12.4906 17.1208L12.233 17.3784L11.8895 17.5787L11.4888 17.7362L10.9736 17.822L10.344 17.8506L9.57122 17.7791L8.64104 17.593L8.25466 17.4643L7.93983 17.2782L7.69655 17.0492L7.49621 16.7487L7.3531 16.3767L7.26724 15.9187L7.25293 15.3463L7.32448 14.6594L7.4819 13.7722L9.77157 13.8008Z" fill="#014CFA"/>
      <path fill-rule="evenodd" clip-rule="evenodd" d="M10.4141 13.7889L11.4015 12.8444L11.5017 12.8015L11.6019 12.8301L12.6895 13.7603L12.1027 14.347L11.6877 14.6475L11.3443 14.8479L11.0581 14.948L10.8005 14.9767L10.7146 14.8336L10.4141 13.8891H9.75583L9.441 14.8336L9.35514 14.9767L9.11186 14.948L8.81134 14.8479L8.4822 14.6475L8.0672 14.347L7.48047 13.7603L8.56806 12.8301L8.65393 12.8015L8.76841 12.8444L9.75583 13.7889H10.4141Z" fill="#8DADF7"/>
      <path fill-rule="evenodd" clip-rule="evenodd" d="M12.6766 13.7999L15.1809 14.4582L15.367 14.587L15.4815 14.7587L15.5387 14.9877L15.3097 17.2345L15.2382 18.7514L15.1952 19.1521L15.0092 19.7102L14.6658 20.4972L14.1076 21.5705L13.7785 21.6278L11.6319 21.6993H8.54088L6.56604 21.6421L6.07948 21.5705L5.50706 20.4972L5.16361 19.7102L4.99189 19.1521L4.93465 18.7514L4.86309 17.12L4.64844 14.9877L4.69137 14.7587L4.82016 14.587L4.99189 14.4582L7.51053 13.7999L7.75381 14.2006L8.02571 14.5298L8.34054 14.8017L8.6983 15.0163L9.09899 15.1737L9.55692 15.2739L10.0864 15.3169L10.6159 15.2739L11.0738 15.1881L11.4745 15.0306L11.818 14.816L12.1328 14.5584L12.4047 14.2436L12.6766 13.7999Z" fill="#014CFA"/>
      <path fill-rule="evenodd" clip-rule="evenodd" d="M13.5205 7.50251L13.4918 7.98907L13.3917 8.46131L13.2343 8.89062L13.0339 9.30563L12.7763 9.69201L12.4758 10.0355L12.1323 10.336L11.746 10.5936L11.331 10.7939L10.9016 10.9513L10.4294 11.0515L9.94285 11.0801L9.45629 11.0515L8.98405 10.9513L8.55473 10.7939L8.13973 10.5936L7.75335 10.336L7.4099 10.0355L7.10938 9.69201L6.85179 9.30563L6.65144 8.89062L6.49403 8.46131L6.39386 7.98907L6.36523 7.50251L6.39386 7.01595L6.49403 6.54371L6.65144 6.1144L6.85179 5.69939L7.10938 5.31301L7.4099 4.96956L7.75335 4.66904L8.13973 4.41145L8.55473 4.21111L8.98405 4.05369L9.45629 3.95352L9.94285 3.9249L10.4294 3.95352L10.9016 4.05369L11.331 4.21111L11.746 4.41145L12.1323 4.66904L12.4758 4.96956L12.7763 5.31301L13.0339 5.69939L13.2343 6.1144L13.3917 6.54371L13.4918 7.01595L13.5205 7.50251Z" fill="#372727"/>
      <path fill-rule="evenodd" clip-rule="evenodd" d="M7.00936 8.36124L7.3385 8.40417L7.62471 8.53296L7.86798 8.719L8.05402 8.96228L8.18281 9.24848L8.22575 9.57763L8.18281 9.90677L8.05402 10.193L7.86798 10.4363L7.62471 10.6223L7.3385 10.7511L7.00936 10.794L6.68022 10.7511L6.39401 10.6223L6.15073 10.4363L5.96469 10.193L5.8359 9.90677L5.79297 9.57763L5.8359 9.24848L5.96469 8.96228L6.15073 8.719L6.39401 8.53296L6.68022 8.40417L7.00936 8.36124Z" fill="#372727"/>
      <path fill-rule="evenodd" clip-rule="evenodd" d="M7.9102 7.72565V9.171H7.03726L6.80829 9.11376L6.63657 8.99928L6.50778 8.81324L6.46484 8.59859L6.50778 8.0691L6.63657 7.89737L6.80829 7.76858L7.03726 7.72565H7.9102ZM13.1335 7.72565L13.3482 7.76858L13.5342 7.88306L13.6487 8.05479L13.7059 8.29807L13.663 8.81324L13.5485 8.98497L13.3768 9.11376L13.1335 9.171H12.2606V7.72565H13.1335Z" fill="#FBBC9A"/>
      <path fill-rule="evenodd" clip-rule="evenodd" d="M9.79876 12.1984L9.51255 12.1411L9.1691 11.9837L8.49651 11.5115L7.70944 10.7387L7.55202 10.4096L7.48047 9.75127V6.15935L7.5234 5.93038L7.65219 5.74434L7.83823 5.62986L8.05289 5.57262H12.1171L12.3317 5.61555L12.5177 5.74434L12.6322 5.91607L12.6895 6.15935V9.75127L12.6752 10.1377L12.5464 10.6099L12.2602 10.9677L11.7164 11.4685L11.0581 11.9408L10.7289 12.1125L10.4427 12.1984H9.79876Z" fill="#FFE6D9"/>
      <path fill-rule="evenodd" clip-rule="evenodd" d="M13.6632 6.28365L13.6203 6.61279L13.4915 6.899L13.3055 7.14228L13.0622 7.32831L12.776 7.45711L12.4469 7.50004L12.1177 7.45711L11.8315 7.32831L11.5882 7.14228L11.4022 6.899L11.2734 6.61279L11.2305 6.28365L11.2734 5.95451L11.4022 5.6683L11.5882 5.42502L11.8315 5.23899L12.1177 5.11019L12.4469 5.06726L12.776 5.11019L13.0622 5.23899L13.3055 5.42502L13.4915 5.6683L13.6203 5.95451L13.6632 6.28365Z" fill="#372727"/>
      <path fill-rule="evenodd" clip-rule="evenodd" d="M9.94225 4.4995L9.51293 4.52812L8.71155 4.74277L8.35379 4.92881L7.91016 5.24364L7.53809 5.61571L7.22326 6.05934L7.03722 6.4171L6.82257 7.21848L6.79395 7.6478L7.36636 7.66211L7.88154 7.57624L8.3681 7.41883L8.69724 7.2471L8.99776 7.03245L9.26965 6.74624L9.49862 6.40279L9.68466 6.04503L9.81345 5.61571L9.89931 5.10054L9.94225 4.4995Z" fill="#372727"/>
      <path fill-rule="evenodd" clip-rule="evenodd" d="M12.6611 5.07292L12.5466 5.67396L12.2604 6.17483L11.8168 6.56121L11.5449 6.67569L10.9438 6.79018L10.3428 6.67569L10.0709 6.56121L9.62726 6.17483L9.34105 5.67396L9.22656 5.07292L9.34105 4.47188L9.62726 3.97102L10.0709 3.58463L10.3428 3.47015L10.9438 3.35567L11.5449 3.47015L11.8168 3.58463L12.2604 3.97102L12.5466 4.47188L12.6611 5.07292Z" fill="#372727"/>
      <path fill-rule="evenodd" clip-rule="evenodd" d="M9.19779 10.3509H10.9294L11.0295 10.3938L11.0725 10.5369L10.958 10.7802L10.8149 10.9662L10.6145 11.095L10.3712 11.1666L10.0707 11.2095L9.7559 11.1666L9.51262 11.095L9.31228 10.9662L9.16917 10.7802L9.05469 10.5369L9.069 10.4367L9.19779 10.3509Z" fill="#D58F8F"/>
      <path fill-rule="evenodd" clip-rule="evenodd" d="M10.0716 10.823L10.5295 10.8517L10.83 10.9518L10.6297 11.0806L10.3864 11.1665L10.0716 11.2094L9.74245 11.1665L9.49917 11.0806L9.29883 10.9518L9.59935 10.8517L10.0716 10.823Z" fill="#DA6767"/>
      <path d="M6.90899 8.64826L6.93761 6.08669L7.02348 5.686L7.33831 4.97047L7.65314 4.54116L8.03952 4.1834L8.48314 3.88288L9.22729 3.56805L10.0859 3.46788L10.9445 3.56805L11.6887 3.88288L12.1323 4.1834L12.5187 4.54116L12.8335 4.97047L13.1484 5.686L13.2342 6.08669L13.2628 8.64826H13.4918L13.4489 6.05807L13.363 5.62875L13.0196 4.85599L12.4901 4.19771L11.8032 3.69684L10.9875 3.3677L10.5582 3.28184L10.0859 3.25322L9.61367 3.28184L9.18436 3.3677L8.36866 3.69684L7.68176 4.19771L7.15227 4.85599L6.80882 5.62875L6.72296 6.05807L6.69434 6.50169V8.64826H6.90899Z" fill="#111B31"/>
      <path d="M10.085 12.51L10.915 12.3955L11.6448 12.095L12.0741 11.7801L12.4319 11.4224L12.7467 10.9931L13.0472 10.2632L13.1331 9.86255L13.1617 7.28667H13.3048L13.2762 9.87686L13.1903 10.2919L12.8612 11.0646L12.3603 11.7086L11.7164 12.2095L10.9436 12.5386L10.5286 12.6245L10.085 12.6531V12.51Z" fill="#111B31"/>
      <path fill-rule="evenodd" clip-rule="evenodd" d="M9.87091 12.3669H10.4433L10.6007 12.4241L10.6437 12.4957L10.658 12.7246L10.6437 12.8105L10.5292 12.925L9.87091 12.9393L9.71349 12.882L9.65625 12.7246L9.67056 12.4957L9.78504 12.3812L9.87091 12.3669Z" fill="#111B31"/>
      <path fill-rule="evenodd" clip-rule="evenodd" d="M13.2335 6.93352H13.7343L14.135 7.03369L14.4212 7.3199L14.4928 7.50594L14.5214 7.72059L14.4928 8.93698L14.2924 9.28043L13.949 9.48078L13.2335 9.5094L13.119 9.48078L12.9759 9.33767L12.9473 7.21973L13.0331 7.01938L13.2335 6.93352Z" fill="#111B31"/>
      <path fill-rule="evenodd" clip-rule="evenodd" d="M6.93736 6.93352H6.43649L6.0358 7.03369L5.74959 7.3199L5.67804 7.50594L5.64941 7.72059L5.67804 8.93698L5.87838 9.28043L6.22183 9.48078L6.93736 9.5094L7.05184 9.48078L7.19494 9.33767L7.22356 7.21973L7.1377 7.01938L6.93736 6.93352Z" fill="#111B31"/>
      <path fill-rule="evenodd" clip-rule="evenodd" d="M6.65039 7.36275H6.86505V8.9369H6.65039V7.36275Z" fill="white" fill-opacity="0.3"/>
      <path fill-rule="evenodd" clip-rule="evenodd" d="M13.2344 7.36275H13.449V8.9369H13.2344V7.36275Z" fill="white" fill-opacity="0.3"/>
      <path fill-rule="evenodd" clip-rule="evenodd" d="M11.8018 17.3763H14.5207V18.0919H11.8018V17.3763Z" fill="#A3BCF5"/>
      <path d="M10.1576 14.1697L10.1862 14.2556L11.2309 14.3843L11.4026 14.5131L11.4598 14.7135L11.2452 15.2287L11.0878 15.3718L10.8874 15.3575L10.4295 14.9568L11.1164 16.8314L11.1021 16.903L11.0305 16.9459L10.4295 17.1033L10.3007 17.0461L10.0288 15.3145L9.58515 18.6918L9.5136 18.7633L8.78377 18.6059L8.6979 18.4771L9.71395 14.9425L9.29894 15.3575L9.11291 15.3861L8.94118 15.2573L8.71221 14.8709L8.68359 14.6562L8.78377 14.4845L8.89825 14.413L10.1576 14.1697Z" fill="#111B31"/>
      <path d="M9.74219 14.4279L9.78512 14.5853L9.8996 14.7141L10.0713 14.757L10.2287 14.7141L10.3432 14.5853L10.3862 14.4279L10.3432 14.2705L10.2287 14.1417L10.0713 14.0987L9.8996 14.1417L9.78512 14.2705L9.74219 14.4279Z" fill="white"/>
      <circle cx="8.94051" cy="8.50662" r="0.286209" fill="#111B31"/>
      <circle cx="11.2305" cy="8.50662" r="0.286209" fill="#111B31"/>
    </g>
  </g>
</svg>