<svg width="16" height="16" viewBox="0 0 16 16" fill="none" xmlns="http://www.w3.org/2000/svg">
<path d="M14.714 13.0006H2.4283V1.8577C2.4283 1.77913 2.36401 1.71484 2.28544 1.71484H1.28544C1.20687 1.71484 1.14259 1.77913 1.14259 1.8577V14.1434C1.14259 14.222 1.20687 14.2863 1.28544 14.2863H14.714C14.7926 14.2863 14.8569 14.222 14.8569 14.1434V13.1434C14.8569 13.0648 14.7926 13.0006 14.714 13.0006ZM4.31759 10.2452C4.37294 10.3006 4.46223 10.3006 4.51937 10.2452L6.98902 7.78806L9.26759 10.0809C9.32294 10.1363 9.41402 10.1363 9.46937 10.0809L14.3872 5.16484C14.4426 5.10949 14.4426 5.01842 14.3872 4.96306L13.6801 4.25592C13.6532 4.22933 13.617 4.21442 13.5792 4.21442C13.5414 4.21442 13.5052 4.22933 13.4783 4.25592L9.37116 8.36127L7.09616 6.07199C7.06931 6.0454 7.03305 6.03049 6.99527 6.03049C6.95748 6.03049 6.92122 6.0454 6.89437 6.07199L3.61223 9.33449C3.58564 9.36134 3.57073 9.39759 3.57073 9.43538C3.57073 9.47316 3.58564 9.50942 3.61223 9.53627L4.31759 10.2452Z" fill="#165DFF"/>
</svg>
