<svg width="18" height="18" viewBox="0 0 18 18" fill="none" xmlns="http://www.w3.org/2000/svg">
<path d="M3.82178 14.3599H5.60749C5.70571 14.3599 5.78606 14.2796 5.78606 14.1814V3.82422C5.78606 3.726 5.70571 3.64565 5.60749 3.64565H3.82178C3.72356 3.64565 3.64321 3.726 3.64321 3.82422V14.1814C3.64321 14.2796 3.72356 14.3599 3.82178 14.3599ZM8.10749 8.10993H9.89321C9.99142 8.10993 10.0718 8.02958 10.0718 7.93136V3.82422C10.0718 3.726 9.99142 3.64565 9.89321 3.64565H8.10749C8.00928 3.64565 7.92892 3.726 7.92892 3.82422V7.93136C7.92892 8.02958 8.00928 8.10993 8.10749 8.10993ZM12.3932 9.71708H14.1789C14.2771 9.71708 14.3575 9.63672 14.3575 9.53851V3.82422C14.3575 3.726 14.2771 3.64565 14.1789 3.64565H12.3932C12.295 3.64565 12.2146 3.726 12.2146 3.82422V9.53851C12.2146 9.63672 12.295 9.71708 12.3932 9.71708ZM17.2146 0.0742188H0.786063C0.390974 0.0742188 0.0717773 0.393415 0.0717773 0.788505V17.2171C0.0717773 17.6122 0.390974 17.9314 0.786063 17.9314H17.2146C17.6097 17.9314 17.9289 17.6122 17.9289 17.2171V0.788505C17.9289 0.393415 17.6097 0.0742188 17.2146 0.0742188ZM16.3218 16.3242H1.67892V1.68136H16.3218V16.3242Z" fill="black" fill-opacity="0.85"/>
</svg>
