<svg xmlns="http://www.w3.org/2000/svg" width="16" height="16" viewBox="0 0 16 16" fill="none">
  <path d="M7.60045 15.6595C5.42467 15.6595 3.19956 14.9136 0.984953 13.4415L1.61227 12.5159C3.63666 13.8602 5.65266 14.5413 7.60255 14.5413C7.75997 14.5413 7.91739 14.5368 8.07481 14.5282C10.6966 14.3834 12.6533 12.8118 13.4294 11.3184C13.5635 11.06 13.5574 10.7465 13.4155 10.6043C13.3956 10.5852 13.3721 10.5702 13.3464 10.5603C13.3207 10.5504 13.2932 10.5457 13.2657 10.5466C13.1775 10.5466 13.045 10.5849 12.7325 10.8687C11.3811 12.1344 9.75289 12.7766 7.89167 12.7766C6.94375 12.7766 5.92158 12.6095 4.85089 12.28L5.19195 11.2151C6.15378 11.5102 7.05972 11.6611 7.88722 11.6611L8.38019 11.6587L8.01578 11.3764C7.00069 10.5956 5.89063 10.1997 4.7155 10.1997C3.66998 10.1997 2.53159 10.5145 1.32944 11.1337L0.804688 10.1467C1.12588 9.98045 1.45472 9.82942 1.79013 9.69413L1.95358 9.62827L1.86883 9.47296C1.35305 8.52551 1.08349 7.46368 1.08489 6.38493C1.08489 4.67957 1.7408 3.07705 2.92827 1.87227C4.11573 0.667492 5.69594 0.00292969 7.37534 0.00292969C9.05475 0.00292969 10.6344 0.666445 11.8227 1.87149C13.011 3.07654 13.666 4.67879 13.666 6.38415C13.6666 7.36708 13.4431 8.33721 13.0125 9.22082L12.8858 9.4803L13.1725 9.44619C13.361 9.42395 13.5521 9.44553 13.7309 9.50924C13.9097 9.57295 14.0714 9.67708 14.2034 9.81351C14.6948 10.3057 14.7835 11.1361 14.4203 11.8337C13.9108 12.8142 13.0626 13.7227 12.0328 14.3886C10.8831 15.1329 9.53538 15.5671 8.13539 15.6443C7.95726 15.6544 7.77886 15.6595 7.60044 15.6595L7.60045 15.6595ZM4.72363 9.08255C6.43319 9.08255 8.01289 9.76471 9.41995 11.1127L9.49866 11.1883L9.59705 11.1405C11.3898 10.2732 12.5481 8.40644 12.5481 6.38493C12.5481 3.4824 10.2278 1.12087 7.37561 1.12087C4.52345 1.12087 2.20336 3.48215 2.20336 6.38415C2.20136 7.37578 2.47682 8.34819 2.99859 9.19144L3.05709 9.28563L3.16623 9.26123C3.67722 9.14461 4.19951 9.08469 4.72363 9.08255ZM7.46219 8.75593C7.38877 8.75612 7.31605 8.74175 7.24823 8.71365C7.18041 8.68556 7.11883 8.64428 7.06706 8.59223L5.04109 6.56596C4.93647 6.46093 4.87753 6.31884 4.87711 6.17059C4.87692 6.09711 4.89131 6.02432 4.91946 5.95645C4.94761 5.88858 4.98895 5.82697 5.04109 5.7752L7.06733 3.74896C7.17213 3.64418 7.31425 3.58532 7.46245 3.58532C7.61064 3.58532 7.75277 3.64418 7.85756 3.74896L9.88433 5.77495C9.93633 5.82685 9.97758 5.8885 10.0057 5.95637C10.0339 6.02423 10.0484 6.09698 10.0484 6.17045C10.0484 6.24392 10.0339 6.31667 10.0057 6.38454C9.97758 6.45241 9.93633 6.51406 9.88433 6.56596L7.85836 8.59221C7.80646 8.64438 7.74471 8.68572 7.6767 8.71382C7.60869 8.74192 7.53578 8.75625 7.46219 8.75593ZM6.22645 6.17034L7.46219 7.40685L8.69792 6.17007L7.46219 4.9346L6.22645 6.17034Z" fill="black"/>
</svg>