<svg width="20" height="20" viewBox="0 0 20 20" fill="none" xmlns="http://www.w3.org/2000/svg">
<path d="M17.5464 5.31403V5.31657H17.5964C17.7543 5.31657 17.8975 5.23186 17.9761 5.09751C18.0551 4.96253 18.0551 4.79336 17.9761 4.65838C17.8974 4.52388 17.7516 4.43932 17.5964 4.43932H15.9035L18.4581 1.88476C18.4582 1.88468 18.4583 1.88459 18.4584 1.88451C18.5704 1.77513 18.6132 1.61174 18.5706 1.46003C18.5313 1.30711 18.4092 1.19056 18.259 1.14805L18.259 1.14803L18.2577 1.14771C18.107 1.1093 17.9438 1.15019 17.8341 1.25986L15.2791 3.81488V2.12327C15.2791 1.88103 15.0827 1.68465 14.8405 1.68465C14.5979 1.68465 14.4031 1.88262 14.4031 2.12327V4.87541C14.4031 5.11766 14.5995 5.31403 14.8418 5.31403H17.5464Z" fill="#333333" stroke="#333333" stroke-width="0.1"/>
<path d="M11.1134 1.52417C11.1134 1.38023 11.077 1.25441 10.9875 1.16531C10.898 1.07629 10.7723 1.04062 10.6299 1.04062H5.4025C3.70116 1.04062 2.36875 2.22174 2.36875 3.69083V16.4444C2.36875 17.9135 3.70116 19.0946 5.4025 19.0946H15.6058C17.3072 19.0946 18.6396 17.9135 18.6396 16.4444V12.3638C18.6396 12.2199 18.6032 12.094 18.5136 12.0049C18.4241 11.9159 18.2985 11.8802 18.156 11.8802C18.0121 11.8802 17.8863 11.9167 17.7972 12.0062C17.7082 12.0957 17.6725 12.2214 17.6725 12.3638V16.4469C17.6725 17.3932 16.7206 18.1326 15.6058 18.1326H5.4025C4.29019 18.1326 3.33584 17.3931 3.33584 16.4469V3.69337C3.33584 2.7471 4.28773 2.00772 5.4025 2.00772H10.6299C10.7738 2.00772 10.8997 1.97128 10.9888 1.88173C11.0778 1.79227 11.1134 1.66659 11.1134 1.52417Z" fill="#333333" stroke="#333333" stroke-width="0.2"/>
<path d="M7.10601 14.4773L7.10592 14.4772C6.8741 14.1771 6.79395 13.7932 6.88941 13.4254M7.10601 14.4773L7.03463 13.463M7.10601 14.4773C7.3353 14.7735 7.68011 14.9442 8.05213 14.9442H14.2984C14.6692 14.9442 15.0141 14.7734 15.2433 14.4759C15.4753 14.1769 15.5553 13.7929 15.4598 13.4254C15.0825 11.9684 14.0313 10.8324 12.7008 10.3324M7.10601 14.4773L12.7008 10.3324M6.88941 13.4254C6.88942 13.4254 6.88943 13.4253 6.88945 13.4253L7.03463 13.463M6.88941 13.4254C6.8894 13.4254 6.88939 13.4255 6.88939 13.4255L7.03463 13.463M6.88941 13.4254C7.26561 11.9673 8.31766 10.8313 9.64819 10.3322M7.03463 13.463C7.40944 12.0102 8.4774 10.8892 9.81697 10.4311C9.75951 10.4 9.70322 10.367 9.64819 10.3322M9.64819 10.3322C8.84601 9.82495 8.31213 8.9297 8.31213 7.91172C8.31213 6.33258 9.59683 5.04922 11.1746 5.04922C12.7524 5.04922 14.0371 6.33258 14.0371 7.91172C14.0371 8.92981 13.5031 9.82515 12.7008 10.3324M9.64819 10.3322C9.70894 10.3094 9.77027 10.288 9.83215 10.2679C9.01423 9.80043 8.46213 8.91928 8.46213 7.91172C8.46213 6.41547 9.67963 5.19922 11.1746 5.19922C12.6696 5.19922 13.8871 6.41547 13.8871 7.91172C13.8871 8.91934 13.335 9.80053 12.517 10.268L12.7008 10.3324M7.67349 14.039L7.67318 14.0386C7.57644 13.9138 7.54414 13.7566 7.58351 13.6059L7.58361 13.6055C8.01454 11.9372 9.49386 10.7742 11.1746 10.7742C12.8566 10.7742 14.3347 11.9359 14.7656 13.6067L14.7657 13.6071C14.8051 13.7577 14.7729 13.9135 14.6762 14.0384C14.5811 14.1606 14.4442 14.228 14.2971 14.228H8.05213C7.90459 14.228 7.7669 14.1603 7.67349 14.039ZM9.02838 7.91172C9.02838 6.72961 9.99117 5.76672 11.1746 5.76672C12.3581 5.76672 13.3209 6.72842 13.3209 7.91172C13.3209 9.07696 12.3858 10.0289 11.2267 10.0555H11.1226C9.96344 10.0289 9.02838 9.07696 9.02838 7.91172Z" fill="#333333" stroke="#333333" stroke-width="0.3"/>
</svg>
