<svg xmlns="http://www.w3.org/2000/svg" width="16" height="16" viewBox="0 0 16 16" fill="none">
  <path d="M13.5183 10.523V10.5225C13.5183 9.69166 13.0994 8.92908 12.4131 8.47245C12.7031 8.1395 12.8679 7.71802 12.8679 7.27577C12.8679 6.26982 12.0499 5.45187 11.044 5.45187C10.038 5.45187 9.22008 6.26982 9.22008 7.27577C9.22008 7.71756 9.38211 8.14155 9.67445 8.47263C8.98577 8.92948 8.56966 9.69453 8.56966 10.5225C8.56966 10.8107 8.80419 11.0483 9.09538 11.0483C9.38352 11.0483 9.62111 10.8137 9.62111 10.5225C9.62111 9.73846 10.2572 9.10235 11.0413 9.10235C11.8254 9.10235 12.4615 9.73846 12.4615 10.5225C12.4615 10.8107 12.696 11.0483 12.9872 11.0483C13.2781 11.0483 13.5153 10.8111 13.5183 10.523ZM0.449756 13.1459C0.449756 14.1519 1.26771 14.9698 2.27365 14.9698H14.0086C15.0145 14.9698 15.8325 14.1519 15.8325 13.1459V3.3569C15.8325 2.35096 15.0145 1.53301 14.0086 1.53301H2.27365C1.26771 1.53301 0.449756 2.35096 0.449756 3.3569V13.1459ZM1.50121 3.3569C1.50121 2.9304 1.84962 2.58446 2.27365 2.58446H14.0086C14.4351 2.58446 14.781 2.93287 14.781 3.3569V13.1459C14.781 13.5724 14.4326 13.9184 14.0086 13.9184H2.27365C1.84715 13.9184 1.50121 13.5699 1.50121 13.1459V3.3569ZM10.2688 7.27846C10.2688 6.85195 10.6173 6.50601 11.0413 6.50601C11.4653 6.50601 11.8137 6.85195 11.8137 7.27846C11.8137 7.70507 11.4679 8.0509 11.0413 8.0509C10.6147 8.0509 10.2688 7.70507 10.2688 7.27846ZM3.49992 6.51674H6.41072C6.71517 6.51674 6.96064 6.27127 6.96064 5.96682C6.96064 5.66237 6.71517 5.41691 6.41072 5.41691H3.49992C3.19547 5.41691 2.95001 5.66237 2.95001 5.96682C2.95001 6.27127 3.19547 6.51674 3.49992 6.51674ZM3.49992 8.7986H6.41072C6.71517 8.7986 6.96064 8.55313 6.96064 8.24868C6.96064 7.94423 6.71517 7.69877 6.41072 7.69877H3.49992C3.19547 7.69877 2.95001 7.94423 2.95001 8.24868C2.95001 8.55313 3.19547 8.7986 3.49992 8.7986ZM3.49992 11.0563H6.41072C6.71517 11.0563 6.96064 10.8108 6.96064 10.5064C6.96064 10.2019 6.71517 9.95646 6.41072 9.95646H3.49992C3.19547 9.95646 2.95001 10.2019 2.95001 10.5064C2.95001 10.8108 3.19547 11.0563 3.49992 11.0563Z" fill="black" stroke="black" stroke-width="0.1"/>
</svg>