<svg width="20" height="20" viewBox="0 0 20 20" fill="none" xmlns="http://www.w3.org/2000/svg">
<path d="M11.25 8.61523H16.2949V9.48828H11.25V8.61523Z" fill="#666"/>
<path d="M12.871 14.978L12.864 14.9664L12.8543 14.957L12.8094 14.9141L12.7804 14.8863H12.7402H2.82812C2.48827 14.8863 2.22695 14.6259 2.22695 14.2891V5.12305C2.22695 4.77801 2.49621 4.48086 2.82812 4.48086H16.9512C17.2908 4.48086 17.5523 4.74114 17.5523 5.08008V10.5781V10.6195L17.5816 10.6488L17.6246 10.6918L17.6334 10.7006L17.644 10.7069C17.8552 10.8333 18.0658 10.9997 18.2303 11.2067L18.2306 11.2072L18.4064 11.4259L18.5844 11.6474V11.3633V4.9043C18.5844 4.10651 17.9259 3.45078 17.125 3.45078H2.60938C1.80843 3.45078 1.15 4.10651 1.15 4.9043V14.5059C1.15 15.3036 1.80843 15.9594 2.60938 15.9594H13.3555H13.5564L13.4353 15.7991L13.3024 15.6233L13.3025 15.6233L13.3009 15.6214C13.1316 15.4082 13.0017 15.1964 12.871 14.978Z" fill="black" stroke="black" stroke-width="0.2"/>
<path d="M18.0156 13.7031L17.9731 13.7294C18.0666 13.8812 18.0667 14.0698 17.9731 14.2217C17.8865 14.3614 17.7385 14.4441 17.5742 14.4441C17.5618 14.4441 17.5543 14.444 17.5473 14.4429L17.5474 14.4422H17.5391H15.7188C15.4632 14.4422 15.2529 14.234 15.2492 13.9782V12.0391H15.2493L15.2491 12.0355C15.2367 11.8627 15.3214 11.6968 15.4697 11.605C15.544 11.559 15.6286 11.5344 15.7168 11.5344C15.8031 11.5344 15.8897 11.5591 15.9639 11.605C16.1123 11.6969 16.1969 11.8608 16.1845 12.0355L16.1844 12.0355V12.0391V13.459V13.509H16.2344H17.5391C17.547 13.509 17.5547 13.5083 17.5602 13.5079L17.5608 13.5078C17.567 13.5073 17.5708 13.507 17.5742 13.507C17.7385 13.507 17.8865 13.5898 17.9731 13.7295L18.0156 13.7031ZM18.0156 13.7031C17.9199 13.5488 17.7559 13.457 17.5742 13.457C17.5684 13.457 17.5625 13.4575 17.5566 13.458C17.5508 13.4585 17.5449 13.459 17.5391 13.459H16.2844L17.5391 14.4922C17.5508 14.4941 17.5625 14.4941 17.5742 14.4941C17.7559 14.4941 17.9199 14.4023 18.0156 14.248C18.1191 14.0801 18.1191 13.8711 18.0156 13.7031ZM11.252 10.4852H11.202V10.5352V11.4082V11.4582H11.252H12.7422H12.7922V11.4082V10.5352V10.4852H12.7422H11.252ZM11.252 6.68828H11.202V6.73828V7.61133V7.66133H11.252H16.2969H16.3469V7.61133V6.73828V6.68828H16.2969H11.252ZM8.42233 9.60939C8.87515 9.17686 9.15937 8.56608 9.15937 7.89062C9.15937 6.57785 8.09597 5.51445 6.7832 5.51445C5.47043 5.51445 4.40703 6.57785 4.40703 7.89062C4.40703 8.56789 4.6894 9.177 5.14393 9.60946C3.88203 10.2192 3.0125 11.5102 3.0125 13.0059V13.0559H3.0625H3.99219H4.04219V13.0059C4.04219 11.4925 5.2698 10.2648 6.7832 10.2648C8.2966 10.2648 9.52422 11.4925 9.52422 13.0059V13.0559H9.57422H10.5039H10.5538L10.5539 13.0059C10.5559 11.5101 9.68433 10.219 8.42233 9.60939ZM12.9109 13.5229L12.9109 13.5229C12.895 15.1422 14.1904 16.4734 15.8098 16.4973L15.8102 16.4973C17.4491 16.5092 18.7861 15.1901 18.8 13.5532V13.5528C18.802 11.9334 17.4926 10.6162 15.8713 10.6082C14.252 10.6003 12.9288 11.9016 12.9109 13.5229ZM6.7832 6.54414C7.52707 6.54414 8.12969 7.14675 8.12969 7.89062C8.12969 8.6344 7.52716 9.23516 6.7832 9.23516C6.03938 9.23516 5.43679 8.63261 5.43672 7.8888C5.4386 7.14676 6.04131 6.54414 6.7832 6.54414Z" fill="black" stroke="black" stroke-width="0.1"/>
</svg>
