<svg width="20" height="20" viewBox="0 0 20 20" fill="none" xmlns="http://www.w3.org/2000/svg">
<path d="M19.214 12.5413L17.752 11.2913C17.8212 10.8672 17.8569 10.4342 17.8569 10.0011C17.8569 9.56808 17.8212 9.13505 17.752 8.71094L19.214 7.46094C19.3243 7.36653 19.4033 7.24079 19.4403 7.10044C19.4774 6.96009 19.4709 6.81178 19.4216 6.67522L19.4015 6.61719C18.999 5.49225 18.3963 4.44941 17.6225 3.53906L17.5823 3.49219C17.4885 3.38181 17.3634 3.30247 17.2235 3.26462C17.0836 3.22676 16.9356 3.23217 16.7989 3.28013L14.9841 3.92522C14.3145 3.37612 13.5667 2.94308 12.7587 2.63951L12.4082 0.742187C12.3818 0.599425 12.3125 0.468086 12.2097 0.36562C12.1068 0.263154 11.9752 0.194412 11.8323 0.168527L11.7721 0.157366C10.6091 -0.0524554 9.38592 -0.0524554 8.22297 0.157366L8.16271 0.168527C8.01984 0.194412 7.88824 0.263154 7.78537 0.36562C7.68251 0.468086 7.61325 0.599425 7.58681 0.742187L7.23414 2.64844C6.43255 2.95207 5.68607 3.38488 5.02431 3.92969L3.19619 3.28013C3.05951 3.23179 2.91135 3.22618 2.7714 3.26406C2.63146 3.30194 2.50635 3.38151 2.41271 3.49219L2.37253 3.53906C1.59964 4.45005 0.997028 5.49272 0.59351 6.61719L0.573421 6.67522C0.472975 6.95424 0.555564 7.26674 0.78101 7.46094L2.26092 8.72433C2.19172 9.14397 2.15824 9.57254 2.15824 9.99888C2.15824 10.4275 2.19172 10.856 2.26092 11.2734L0.78101 12.5368C0.670733 12.6312 0.591806 12.757 0.554725 12.8973C0.517643 13.0377 0.524164 13.186 0.573421 13.3225L0.59351 13.3806C0.997528 14.5056 1.59574 15.5435 2.37253 16.4587L2.41271 16.5056C2.50658 16.616 2.63169 16.6953 2.77155 16.7332C2.91141 16.771 3.05946 16.7656 3.19619 16.7176L5.02431 16.0681C5.68949 16.615 6.4328 17.048 7.23414 17.3493L7.58681 19.2556C7.61325 19.3983 7.68251 19.5297 7.78537 19.6321C7.88824 19.7346 8.01984 19.8034 8.16271 19.8292L8.22297 19.8404C9.39661 20.0513 10.5984 20.0513 11.7721 19.8404L11.8323 19.8292C11.9752 19.8034 12.1068 19.7346 12.2097 19.6321C12.3125 19.5297 12.3818 19.3983 12.4082 19.2556L12.7587 17.3583C13.5664 17.0555 14.3184 16.621 14.9841 16.0725L16.7989 16.7176C16.9356 16.766 17.0837 16.7716 17.2237 16.7337C17.3636 16.6958 17.4887 16.6163 17.5823 16.5056L17.6225 16.4587C18.3993 15.5413 18.9975 14.5056 19.4015 13.3806L19.4216 13.3225C19.5221 13.048 19.4395 12.7355 19.214 12.5413ZM16.1672 8.97433C16.223 9.31138 16.252 9.65737 16.252 10.0033C16.252 10.3493 16.223 10.6953 16.1672 11.0324L16.0198 11.9275L17.6873 13.3538C17.4345 13.9361 17.1154 14.4874 16.7364 14.9967L14.6649 14.2623L13.964 14.8382C13.4306 15.2757 12.8368 15.6194 12.194 15.8605L11.3435 16.1797L10.944 18.3449C10.3135 18.4163 9.67706 18.4163 9.04663 18.3449L8.64708 16.1752L7.80333 15.8516C7.16717 15.6105 6.57565 15.2667 6.04664 14.8315L5.34574 14.2533L3.26092 14.9944C2.88146 14.4833 2.56449 13.9319 2.31003 13.3516L3.9953 11.9118L3.85021 11.019C3.79664 10.6864 3.76762 10.3426 3.76762 10.0033C3.76762 9.66183 3.7944 9.32031 3.85021 8.98772L3.9953 8.09487L2.31003 6.65513C2.56226 6.07254 2.88146 5.52344 3.26092 5.01228L5.34574 5.75335L6.04664 5.17522C6.57565 4.73996 7.16717 4.39621 7.80333 4.15513L8.64931 3.83594L9.04887 1.66629C9.6761 1.59487 10.3167 1.59487 10.9462 1.66629L11.3457 3.83147L12.1962 4.15067C12.8368 4.39174 13.4328 4.73549 13.9663 5.17299L14.6672 5.74888L16.7386 5.01451C17.1181 5.52567 17.435 6.07701 17.6895 6.65737L16.0221 8.0837L16.1672 8.97433ZM9.99976 5.85156C7.83012 5.85156 6.07119 7.61049 6.07119 9.78013C6.07119 11.9498 7.83012 13.7087 9.99976 13.7087C12.1694 13.7087 13.9283 11.9498 13.9283 9.78013C13.9283 7.61049 12.1694 5.85156 9.99976 5.85156ZM11.7676 11.548C11.5357 11.7805 11.2602 11.9649 10.9568 12.0906C10.6534 12.2162 10.3281 12.2806 9.99976 12.2801C9.33235 12.2801 8.70512 12.019 8.2319 11.548C7.99937 11.3161 7.81497 11.0406 7.68932 10.7372C7.56367 10.4338 7.49925 10.1085 7.49976 9.78013C7.49976 9.11272 7.76092 8.48549 8.2319 8.01228C8.70512 7.53906 9.33235 7.28013 9.99976 7.28013C10.6672 7.28013 11.2944 7.53906 11.7676 8.01228C12.0002 8.24415 12.1846 8.51971 12.3102 8.8231C12.4359 9.1265 12.5003 9.45175 12.4998 9.78013C12.4998 10.4475 12.2386 11.0748 11.7676 11.548Z" fill="black" fill-opacity="0.85"/>
</svg>
