<svg width="20" height="20" viewBox="0 0 20 20" fill="none" xmlns="http://www.w3.org/2000/svg">
<path d="M13.5155 11.1099C12.8039 11.1109 12.2273 11.6874 12.2264 12.3989C12.2273 13.1105 12.8039 13.6871 13.5154 13.688C14.2269 13.6871 14.8034 13.1105 14.8041 12.399C14.8034 11.6875 14.2269 11.1109 13.5155 11.1099M13.5155 14.9353C12.1154 14.9336 10.9809 13.799 10.9792 12.3991C10.9792 11.0007 12.1172 9.86273 13.5155 9.86273C14.9134 9.86273 16.0517 11.0007 16.0517 12.399C16.0517 13.7977 14.9134 14.9353 13.5155 14.9353M15.051 16.688C15.0569 16.6922 15.0737 16.6981 15.0908 16.6981H15.0929L16.32 16.0201C16.2907 15.951 16.1551 15.617 16.1551 15.2692C16.1558 14.2273 16.9718 13.3762 17.9996 13.3191C18.0192 13.2377 18.1 12.7778 18.1 12.4325C18.1 12.0872 18.0192 11.6276 18.0045 11.546C16.972 11.4887 16.1562 10.6381 16.1551 9.59658C16.1551 9.24709 16.2911 8.91309 16.32 8.84443L15.113 8.17396L15.1079 8.17354C15.1079 8.17354 15.1078 8.17354 15.1078 8.17354C15.0907 8.17354 15.0747 8.1782 15.0611 8.18633C14.6884 8.55838 14.2286 8.84395 13.7151 9.00986C14.2424 8.82225 13.8913 8.95492 13.5686 8.95492C13.2438 8.95492 12.8889 8.81973 12.5147 8.55313C12.0769 8.23979 11.7244 7.83484 11.4804 7.36457C12.052 8.16299 12.0357 8.15848 12.0184 8.15846H12.0146L10.7645 8.84566C10.7938 8.91514 10.929 9.24873 10.929 9.5965C10.9277 10.6382 10.1117 11.4889 9.08404 11.5458C9.06441 11.6272 8.98449 12.0871 8.98449 12.4324C8.98449 12.7777 9.06441 13.2377 9.07949 13.3193C10.1123 13.3764 10.9284 14.2274 10.9294 15.2692C10.9294 15.6183 10.7925 15.9535 10.7632 16.0209L11.9472 16.6826H11.9497C11.9673 16.6826 11.9832 16.6763 11.9895 16.6725C12.3657 16.28 12.8321 15.977 13.3556 15.7964C12.8224 15.997 13.1827 15.8555 13.5146 15.8555C13.8503 15.8555 14.2135 15.9996 14.5952 16.2833C14.8514 16.4733 15.0288 16.6641 15.051 16.688M15.4403 18.5488C15.2038 18.5484 14.9744 18.4509 14.8263 18.2876C14.6241 18.0663 13.985 17.4903 13.4611 17.4903C12.9412 17.4903 12.2917 18.07 12.105 18.2721C11.9573 18.4333 11.7296 18.5291 11.4957 18.5291C11.3843 18.5291 11.2793 18.5078 11.1835 18.4655L11.1667 18.4584L9.57547 17.5686L9.55957 17.5569C9.36576 17.4167 9.24109 17.1912 9.24109 16.9366C9.24109 16.8274 9.26404 16.7235 9.30535 16.6296C9.30428 16.6319 9.44992 16.2963 9.44992 15.9891C9.44873 15.058 8.6943 14.3036 7.76338 14.3024H7.69629C7.43012 14.3024 7.21289 14.0655 7.14383 13.6997C7.13797 13.6704 7.00779 12.9757 7.00779 12.4287C7.00779 11.8808 7.13754 11.1865 7.1434 11.1563C7.21414 10.786 7.4351 10.5478 7.70674 10.5541H7.76283C8.69426 10.5529 9.44898 9.79807 9.4499 8.8667C9.4499 8.56025 9.30424 8.22461 9.30297 8.22084C9.26389 8.13225 9.24115 8.02896 9.24115 7.92035C9.24115 7.6652 9.36668 7.43936 9.55934 7.30121L9.57793 7.28836L11.2575 6.36551L11.2751 6.35838C11.3692 6.31779 11.4726 6.2977 11.5823 6.2977C11.8158 6.2977 12.0439 6.39102 12.1933 6.54883C12.3921 6.75684 13.0203 7.29799 13.5284 7.29799C14.0323 7.29799 14.6572 6.76729 14.8551 6.56307C15.0037 6.40861 15.2301 6.31697 15.4611 6.31697C15.5729 6.31697 15.6784 6.33791 15.775 6.37975L15.7918 6.38686L17.4136 7.28838L17.4299 7.29967C17.7199 7.50141 17.8304 7.89859 17.6864 8.22209C17.6856 8.22459 17.54 8.56027 17.54 8.8666C17.5412 9.79773 18.2955 10.5523 19.2265 10.5537H19.2831C19.5539 10.5478 19.7761 10.7856 19.8465 11.1564C19.8519 11.1857 19.9821 11.8808 19.9821 12.4279C19.9821 12.9753 19.8519 13.6709 19.8456 13.7002C19.7762 14.0702 19.5539 14.3083 19.2831 14.3021H19.2266C18.2955 14.3035 17.5412 15.058 17.54 15.989C17.54 16.2955 17.6856 16.632 17.6869 16.6349C17.7261 16.7237 17.7488 16.8272 17.7488 16.9361C17.7488 17.1911 17.6236 17.4169 17.4313 17.5554L17.4131 17.5686L15.7629 18.4802L15.7462 18.4873C15.6571 18.5262 15.5534 18.5488 15.4444 18.5488C15.4428 18.5488 15.4412 18.5488 15.4396 18.5488L15.4403 18.5488ZM19.2522 6.44084C19.2522 6.44088 19.2522 6.44094 19.2522 6.44098C19.2522 6.90328 18.8774 7.27803 18.4152 7.27803C17.9529 7.27803 17.5781 6.90326 17.5781 6.44098C17.5781 6.44094 17.5781 6.44088 17.5781 6.44084V3.09387C17.5781 2.86285 17.3914 2.67408 17.1608 2.67408H2.09135C1.86367 2.67408 1.67408 2.8624 1.67408 3.09387V13.136C1.67408 13.367 1.86074 13.5558 2.09137 13.5558H5.85936C5.85939 13.5558 5.85945 13.5558 5.85949 13.5558C6.3218 13.5558 6.69654 13.9305 6.69654 14.3928C6.69654 14.8551 6.32178 15.2299 5.85949 15.2299C5.85945 15.2299 5.85939 15.2299 5.85936 15.2299H0.839551C0.838809 15.2299 0.83793 15.2299 0.837051 15.2299C0.374766 15.2299 0 14.8551 0 14.3929V1.83705C0 1.37461 0.37584 1 0.839551 1H18.4126C18.4134 1 18.4143 1 18.4151 1C18.8774 1 19.2522 1.37477 19.2522 1.83705L19.2522 6.44084ZM3.76672 17.7411C3.76672 17.2786 4.14424 16.904 4.60756 16.904H7.94822C7.94826 16.904 7.94832 16.904 7.94836 16.904C8.41066 16.904 8.78541 17.2788 8.78541 17.7411C8.78541 18.2034 8.41064 18.5781 7.94836 18.5781C7.94832 18.5781 7.94826 18.5781 7.94822 18.5781H4.60795C4.60672 18.5781 4.60523 18.5781 4.60375 18.5781C4.14145 18.5781 3.7667 18.2034 3.7667 17.7411L3.76672 17.7411Z" fill="#040000"/>
</svg>
