<svg width="20" height="20" viewBox="0 0 20 20" fill="none" xmlns="http://www.w3.org/2000/svg">
<path d="M18.2028 1.73633C19.1161 1.73633 19.8636 2.44466 19.9278 3.34133L19.9311 3.46549V8.31133C19.9299 8.50541 19.8548 8.69173 19.7212 8.83249C19.5876 8.97325 19.4054 9.0579 19.2117 9.06924C19.0179 9.08059 18.8271 9.01779 18.678 8.89359C18.5288 8.76939 18.4325 8.5931 18.4086 8.40049L18.4036 8.31133V6.41133H1.59781V15.7013C1.59781 15.793 1.66031 15.8713 1.74531 15.8947L1.79948 15.9022H19.1678C19.3619 15.9034 19.5482 15.9785 19.689 16.1121C19.8297 16.2457 19.9144 16.4279 19.9257 16.6216C19.9371 16.8154 19.8743 17.0062 19.7501 17.1553C19.6259 17.3045 19.4496 17.4008 19.257 17.4247L19.1678 17.4297H1.79948C1.36232 17.4297 0.941354 17.2642 0.621303 16.9664C0.301251 16.6687 0.10587 16.2607 0.0744792 15.8247L0.0703125 15.7022V3.46549C0.0703125 2.55216 0.778646 1.80299 1.67531 1.74049L1.79948 1.73633H18.2028ZM12.8561 8.47716C13.1728 8.70216 13.2661 9.12633 13.0861 9.46049L13.0361 9.54216L11.4811 11.7255H19.1678C19.5595 11.7255 19.882 12.0205 19.9261 12.4005L19.9311 12.4897C19.9311 12.8813 19.6361 13.2038 19.2561 13.248L19.1678 13.2538H10.0011C9.86852 13.254 9.73815 13.2196 9.62284 13.154C9.50753 13.0885 9.41126 12.9941 9.3435 12.8801C9.27574 12.7661 9.23881 12.6364 9.23635 12.5038C9.23389 12.3712 9.26599 12.2403 9.32948 12.1238L9.37865 12.0463L11.7911 8.65633C11.9087 8.49146 12.0869 8.37998 12.2866 8.34639C12.4863 8.31279 12.6911 8.35983 12.8561 8.47716ZM18.2028 3.26383H1.79948C1.75542 3.26371 1.71254 3.27808 1.67745 3.30474C1.64236 3.33139 1.61701 3.36885 1.60531 3.41133L1.59781 3.46549V4.88383H18.4036V3.46549C18.4038 3.42143 18.3894 3.37855 18.3627 3.34346C18.3361 3.30838 18.2986 3.28303 18.2561 3.27133L18.2028 3.26383Z" fill="#666"/>
</svg>
