<?xml version="1.0" standalone="no"?><!DOCTYPE svg PUBLIC "-//W3C//DTD SVG 1.1//EN" "http://www.w3.org/Graphics/SVG/1.1/DTD/svg11.dtd"><svg t="1691076637635" class="icon" viewBox="0 0 1024 1024" version="1.1" xmlns="http://www.w3.org/2000/svg" p-id="11321" xmlns:xlink="http://www.w3.org/1999/xlink" width="200" height="200"><path d="M437.504947 545.410213 380.508044 516.553612l2.148896-23.535525c0.818627-1.637254-8.697911-3.581493-8.697911-5.423404l0-68.150695c0-34.586989-24.149495-62.727291-57.815529-62.727291-33.666034 0-57.815529 28.140302-57.815529 62.727291l0 68.150695c0 1.841911 7.265314 3.78615 8.083941 5.423404l15.553912 23.535525-60.680723 28.8566c-3.888478 1.944239-10.02818 5.935045-10.02818 10.335165l0 51.164185c0 25.172779 30.800839 30.186869 55.25732 30.186869l132.822224 0c24.45648 0 44.205856-5.01409 44.205856-30.186869l0-51.164185C443.644649 551.345258 441.291096 547.354452 437.504947 545.410213zM419.08584 606.909563c0 12.381733-7.469971 7.674628-19.647047 7.674628L266.616568 614.584191c-12.074748 0-32.745078 4.707105-32.745078-7.674628l0-43.898871 66.513441-30.903168c2.762866-1.330269 7.469971-3.888478 8.390926-6.856001 0.920955-2.967523-4.707105-6.242031-6.139702-9.004897l-21.693614-31.517138 0-65.2855c0-21.795943 14.018987-39.601079 35.303288-39.601079 21.284301 0 35.303288 17.702808 35.303288 39.601079l0 65.2855-6.242031 31.517138c-1.432597 2.762866 3.274508 6.037374 4.297792 9.004897 0.920955 2.967523 4.297792 5.423404 7.060658 6.856001l62.420306 30.903168L419.08584 606.909563z" fill="#272636" p-id="11322"></path><path d="M521.004897 441.649246c0 6.344359 5.01409 11.256121 11.256121 11.256121l265.644449 0c6.242031 0 11.256121-4.911762 11.256121-11.256121 0-6.344359-5.01409-11.256121-11.256121-11.256121L532.261017 430.393125C526.018987 430.393125 521.004897 435.202558 521.004897 441.649246z" fill="#272636" p-id="11323"></path><path d="M797.905466 522.488658 532.261017 522.488658c-6.242031 0-11.256121 4.911762-11.256121 11.256121 0 6.344359 5.01409 11.256121 11.256121 11.256121l265.644449 0c6.242031 0 11.256121-4.911762 11.256121-11.256121C809.161587 527.298091 804.147497 522.488658 797.905466 522.488658z" fill="#272636" p-id="11324"></path><path d="M797.905466 614.584191 532.261017 614.584191c-6.242031 0-11.256121 4.911762-11.256121 11.256121s5.01409 11.256121 11.256121 11.256121l265.644449 0c6.242031 0 11.256121-4.911762 11.256121-11.256121S804.147497 614.584191 797.905466 614.584191z" fill="#272636" p-id="11325"></path><path d="M897.573299 290.203258 535.740182 290.203258l0-92.197861c0-6.344359 2.762866-22.409913-3.479165-22.409913L133.794344 175.595483c-6.242031 0-14.530629 15.963226-14.530629 22.409913l0 647.431598c0 6.344359 8.288598-0.61397 14.530629-0.61397L366.182073 844.823024c6.242031 0 7.776956 7.060658 7.776956 0.61397l0-92.709503 45.024483 0 0 92.709503c0 6.344359 7.367643-0.61397 13.609673-0.61397l166.078945 0c6.242031 0 6.651344 7.060658 6.651344 0.61397l0-92.709503 46.047767 0 0 92.709503c0 6.344359 7.572299-0.61397 13.712002-0.61397l232.490057 0c6.242031 0 7.572299 7.060658 7.572299 0.61397L905.145598 300.231438C905.145598 293.784751 903.713001 290.203258 897.573299 290.203258zM882.633357 822.310782l-208.749875 0L673.883482 743.210952c0-6.344359-2.558209-12.995703-8.80024-12.995703l-66.411112 0c-6.242031 0-17.907465 6.651344-17.907465 12.995703l0 79.09983-137.120016 0L443.644649 743.210952c0-6.344359-4.809433-12.995703-10.949136-12.995703L366.182073 730.215249c-6.242031 0-14.735285 6.651344-14.735285 12.995703l0 79.09983-209.773159 0 0-624.203058 371.451984 0 0 102.123713c0 6.344359 12.893375 13.507345 19.033077 13.507345l350.372339 0L882.531028 822.310782z" fill="#272636" p-id="11326"></path></svg>