<svg width="20" height="20" viewBox="0 0 20 20" fill="none" xmlns="http://www.w3.org/2000/svg">
<g clip-path="url(#clip0_254_34071)">
<path d="M15.2981 12.215L15.2177 12.271L15.2981 12.215C14.413 10.9448 13.1841 9.97138 11.7443 9.39992C11.7443 9.39991 11.7442 9.39991 11.7442 9.3999L11.6691 9.37006L11.7329 9.3203C12.8749 8.42882 13.5309 7.09578 13.5309 5.66333C13.5309 3.09759 11.4293 1.01137 8.84767 1.01137C6.26589 1.01137 4.16436 3.09748 4.16436 5.66333C4.16436 7.09578 4.8203 8.42883 5.96248 9.3202L6.02621 9.36995L5.95112 9.39979C5.9511 9.3998 5.95109 9.3998 5.95108 9.39981C4.51136 9.97127 3.28241 10.9451 2.39727 12.2153C1.49065 13.5164 1.01137 15.0419 1.01137 16.626V18.1921C1.01137 18.5992 1.34485 18.929 1.75334 18.929H15.9419C16.3504 18.929 16.6839 18.5993 16.6839 18.1922V16.6261C16.6839 15.0417 16.2046 13.5161 15.2981 12.215ZM17.7193 16.4835L17.721 16.5798L17.8173 16.5798L19.0866 16.5797C19.4951 16.5797 19.8285 16.25 19.8285 15.843V14.6316C19.8286 12.297 18.5391 10.183 16.4636 9.1152C16.4636 9.11519 16.4636 9.11519 16.4635 9.11518L16.4097 9.08746L16.4505 9.04278C16.4505 9.04277 16.4505 9.04277 16.4505 9.04276C17.1036 8.3273 17.4638 7.40549 17.4638 6.44722C17.4638 4.33525 15.7524 2.61416 13.6365 2.57797L13.4566 2.5749L13.5516 2.72771L13.5904 2.79036L13.59 2.79063L13.5961 2.79864C13.9077 3.20617 14.1489 3.65599 14.3137 4.13712L14.3291 4.18198L14.3738 4.19776C15.3381 4.53797 15.9799 5.43342 15.9799 6.44722C15.9799 7.3832 15.4244 8.23939 14.5639 8.62745L14.5639 8.62744L14.5622 8.62823L14.5618 8.62842L14.5613 8.62861L14.5612 8.62867C14.2617 8.74145 14.0589 9.00586 14.0589 9.30958C14.0589 9.62131 14.2765 9.89426 14.5868 10L14.5867 10.0005L14.5958 10.0026L14.7438 10.0377C14.744 10.0378 14.7442 10.0378 14.7444 10.0379C16.8646 10.5699 18.3446 12.4591 18.3446 14.6316V15.1064H17.6903H17.5729L17.5939 15.2219C17.6695 15.6373 17.7117 16.0603 17.7193 16.4835ZM2.49553 16.626C2.49553 13.1471 5.34499 10.3154 8.84854 10.3154C12.3512 10.3154 15.1999 13.1471 15.2 16.626V17.4553H2.49553V16.626ZM5.64852 5.66343C5.64852 3.91146 7.0832 2.48497 8.84778 2.48497C10.6123 2.48497 12.0469 3.91146 12.0469 5.66343C12.0469 7.4153 10.6123 8.84179 8.84778 8.84179C7.0832 8.84179 5.64852 7.4153 5.64852 5.66343Z" fill="#333" stroke="#333" stroke-width="0.196"/>
</g>
<defs>
<clipPath id="clip0_254_34071">
<rect width="20" height="20" fill="white"/>
</clipPath>
</defs>
</svg>
