<?xml version="1.0" standalone="no"?><!DOCTYPE svg PUBLIC "-//W3C//DTD SVG 1.1//EN" "http://www.w3.org/Graphics/SVG/1.1/DTD/svg11.dtd"><svg t="1691077196331" class="icon" viewBox="0 0 1024 1024" version="1.1" xmlns="http://www.w3.org/2000/svg" p-id="8764" xmlns:xlink="http://www.w3.org/1999/xlink" width="200" height="200"><path d="M894.68 382.87q-3.01 10.01-12.01 32.01l-1 1q-21 48.01-74.01 142.03-26.01 47.01-49.01 85.02v-1l-26.01 48h125.03L618.62 1024l54.01-228.04h-99.02l35.01-150.03q-50.01 13-100.02 30l-6 2q-8 3-18 3-15.01 0-31.01-5-20-6-42.01-20-26-16.01-54.01-43.01l-16-16q-17.01-20.01-22.01-34.01-7-20 9-26.5t120.02-20.5l11-2q67.01-9 108.02-14H457.58q-116.02 0-146.03-5-25-4-51.5-30.5t-47.01-64.51q-20.51-38.01-26.51-76.02l-3-6q-1-7 1-13t12-7q12-2 34.01 4 65.01 20 333.06 77.01l-91.02-30q-106.02-35.01-175.03-61.01-96.02-36.01-106.02-49.01-13-14.01-28.01-53.01-17-42.01-27-86.02-11-50.01-8-85.02l1-5q2-5 7-8t13-1l73.01 34.01q90.02 42.01 170.04 78.01 113.02 49.01 191.03 79.02 32.01 13 92.02 34 86.02 31.01 120.03 46.01 56.01 25.01 79.01 49.01 27.01 28.01 20.01 62.01z" fill="#666666" p-id="8765"></path></svg>