<svg xmlns="http://www.w3.org/2000/svg" width="16" height="16" viewBox="0 0 16 16" fill="none">
  <g clip-path="url(#clip0_156_7883)">
    <path d="M0.589192 7.98364L0.588911 7.98392C-0.015887 8.58872 -0.015887 9.59565 0.588911 10.2005L1.84854 11.4601L5.82121 15.4327C6.12711 15.7387 6.53265 15.8379 6.92947 15.8379C7.33465 15.8379 7.73484 15.6369 8.0335 15.3401L8.60996 14.9558L8.61062 14.9568L8.61911 14.9483C8.83633 14.7311 8.83633 14.4024 8.61911 14.1852C8.40189 13.9679 8.07321 13.9679 7.85599 14.1852L7.37578 14.6654C7.10176 14.8459 6.84702 14.8354 6.68122 14.6696L3.04166 11.0301L10.9656 3.10608L14.6386 6.71225C14.6387 6.71231 14.6387 6.71237 14.6388 6.71243C14.7218 6.79553 14.7664 6.92406 14.7664 7.0574C14.7664 7.19084 14.7217 7.31946 14.6386 7.40255L14.0572 7.98392C13.84 8.20114 13.84 8.52981 14.0572 8.74703C14.2745 8.96425 14.6031 8.96425 14.8203 8.74703L15.4017 8.16567C16.0065 7.56087 16.0065 6.55394 15.4017 5.94914L10.1694 0.716841C9.56466 0.11208 8.55781 0.112043 7.953 0.716727C7.95296 0.716765 7.95292 0.716803 7.95289 0.716841L0.589192 7.98364ZM9.3098 1.48034L10.1955 2.34997L2.27854 10.267L1.44892 9.43734C1.36582 9.35424 1.32115 9.22562 1.32115 9.09219C1.32115 8.95875 1.36582 8.83013 1.44892 8.74704L1.4492 8.74675L8.61502 1.4841C8.88897 1.30366 9.14364 1.31418 9.30941 1.47996L9.3098 1.48034ZM6.63879 12.0959L6.66563 12.1496L6.67433 12.1452L6.68122 12.1383L7.65016 11.1694C7.86738 10.9522 7.86738 10.6235 7.65016 10.4063C7.43294 10.1891 7.10427 10.1891 6.88705 10.4063L5.91811 11.3752C5.70088 11.5924 5.70088 11.9211 5.91811 12.1383C5.97985 12.2001 6.06762 12.2271 6.14446 12.2399C6.22204 12.2528 6.29877 12.2528 6.34695 12.2528H6.34811C6.38072 12.2528 6.41736 12.2449 6.45089 12.2354C6.48534 12.2255 6.5207 12.2126 6.55207 12.2001C6.58357 12.1875 6.6118 12.1749 6.63214 12.1655L6.65636 12.1541L6.66307 12.1508L6.66489 12.1499L6.6654 12.1497L6.66555 12.1496L6.6656 12.1496L6.66561 12.1496L6.63879 12.0959ZM15.2624 12.3266H13.3845V10.4487C13.3845 10.2897 13.3313 10.1526 13.2337 10.055C13.1362 9.95749 12.999 9.90424 12.84 9.90424C12.6811 9.90424 12.5439 9.95749 12.4464 10.055C12.3488 10.1526 12.2956 10.2897 12.2956 10.4487V12.3266H10.4177C10.2587 12.3266 10.1216 12.3799 10.024 12.4774C9.92646 12.575 9.8732 12.7121 9.8732 12.8711C9.8732 13.03 9.92646 13.1672 10.024 13.2647C10.1216 13.3623 10.2587 13.4155 10.4177 13.4155H12.2956V15.2934C12.2956 15.4524 12.3488 15.5896 12.4464 15.6871C12.5439 15.7846 12.6811 15.8379 12.84 15.8379C12.999 15.8379 13.1362 15.7846 13.2337 15.6871C13.3313 15.5896 13.3845 15.4524 13.3845 15.2934V13.4155H15.2624C15.4214 13.4155 15.5585 13.3623 15.6561 13.2647C15.7536 13.1672 15.8069 13.03 15.8069 12.8711C15.8069 12.7121 15.7536 12.575 15.6561 12.4774C15.5585 12.3799 15.4214 12.3266 15.2624 12.3266Z" fill="black" stroke="black" stroke-width="0.12"/>
  </g>
  <defs>
    <clipPath id="clip0_156_7883">
      <rect width="16" height="16" fill="white"/>
    </clipPath>
  </defs>
</svg>