<svg width="20" height="20" viewBox="0 0 20 20" fill="none" xmlns="http://www.w3.org/2000/svg">
<path d="M18.2132 1.07422H1.7846C1.38951 1.07422 1.07031 1.39342 1.07031 1.7885V18.2171C1.07031 18.6122 1.38951 18.9314 1.7846 18.9314H18.2132C18.6083 18.9314 18.9275 18.6122 18.9275 18.2171V1.7885C18.9275 1.39342 18.6083 1.07422 18.2132 1.07422ZM17.3203 17.3242H2.67746V2.68136H17.3203V17.3242ZM9.55246 7.50279H13.6596C13.7578 7.50279 13.8382 7.42243 13.8382 7.32422V6.25279C13.8382 6.15458 13.7578 6.07422 13.6596 6.07422H9.55246C9.45424 6.07422 9.37388 6.15458 9.37388 6.25279V7.32422C9.37388 7.42243 9.45424 7.50279 9.55246 7.50279ZM9.55246 10.7171H13.6596C13.7578 10.7171 13.8382 10.6367 13.8382 10.5385V9.46708C13.8382 9.36886 13.7578 9.28851 13.6596 9.28851H9.55246C9.45424 9.28851 9.37388 9.36886 9.37388 9.46708V10.5385C9.37388 10.6367 9.45424 10.7171 9.55246 10.7171ZM9.55246 13.9314H13.6596C13.7578 13.9314 13.8382 13.851 13.8382 13.7528V12.6814C13.8382 12.5831 13.7578 12.5028 13.6596 12.5028H9.55246C9.45424 12.5028 9.37388 12.5831 9.37388 12.6814V13.7528C9.37388 13.851 9.45424 13.9314 9.55246 13.9314ZM6.1596 6.78851C6.1596 7.02531 6.25367 7.25241 6.42111 7.41985C6.58855 7.58729 6.81566 7.68136 7.05246 7.68136C7.28926 7.68136 7.51636 7.58729 7.6838 7.41985C7.85124 7.25241 7.94531 7.02531 7.94531 6.78851C7.94531 6.5517 7.85124 6.3246 7.6838 6.15716C7.51636 5.98972 7.28926 5.89565 7.05246 5.89565C6.81566 5.89565 6.58855 5.98972 6.42111 6.15716C6.25367 6.3246 6.1596 6.5517 6.1596 6.78851V6.78851ZM6.1596 10.0028C6.1596 10.2396 6.25367 10.4667 6.42111 10.6341C6.58855 10.8016 6.81566 10.8956 7.05246 10.8956C7.28926 10.8956 7.51636 10.8016 7.6838 10.6341C7.85124 10.4667 7.94531 10.2396 7.94531 10.0028C7.94531 9.76599 7.85124 9.53889 7.6838 9.37145C7.51636 9.204 7.28926 9.10993 7.05246 9.10993C6.81566 9.10993 6.58855 9.204 6.42111 9.37145C6.25367 9.53889 6.1596 9.76599 6.1596 10.0028ZM6.1596 13.2171C6.1596 13.4539 6.25367 13.681 6.42111 13.8484C6.58855 14.0159 6.81566 14.1099 7.05246 14.1099C7.28926 14.1099 7.51636 14.0159 7.6838 13.8484C7.85124 13.681 7.94531 13.4539 7.94531 13.2171C7.94531 12.9803 7.85124 12.7532 7.6838 12.5857C7.51636 12.4183 7.28926 12.3242 7.05246 12.3242C6.81566 12.3242 6.58855 12.4183 6.42111 12.5857C6.25367 12.7532 6.1596 12.9803 6.1596 13.2171V13.2171Z" fill="#262626"/>
</svg>
