<svg xmlns="http://www.w3.org/2000/svg" width="16" height="16" viewBox="0 0 16 16" fill="none">
  <g clip-path="url(#clip0_257_6894)">
    <path d="M3.20536 9.3816C2.91289 9.3816 2.68257 9.6302 2.70816 9.92632C2.7301 10.1859 2.95676 10.3797 3.21998 10.3797H5.77177C6.03134 10.3797 6.258 10.1859 6.28359 9.92632C6.30919 9.6302 6.07887 9.3816 5.7864 9.3816H3.20536ZM3.20536 5.24682H8.72937C9.01087 5.24682 9.23753 5.0165 9.23022 4.73135C9.22291 4.46447 8.98527 4.24512 8.7184 4.24512H3.21633C2.9531 4.24512 2.71913 4.45716 2.70451 4.72038C2.69719 4.86296 2.75203 4.99822 2.85074 5.10059C2.94579 5.19198 3.07009 5.24682 3.20536 5.24682ZM7.51562 7.26486C7.51562 6.99067 7.29261 6.76401 7.01477 6.76401H3.21633C2.95676 6.76401 2.7301 6.95777 2.70816 7.21733C2.68257 7.51346 2.91655 7.76206 3.20902 7.76206H7.01842C7.29261 7.76937 7.51562 7.5427 7.51562 7.26486Z" fill="black"/>
    <path d="M8.06763 13.9807H2.34621C1.91482 13.9807 1.5602 13.626 1.5602 13.1946V2.65846C1.5602 2.22707 1.91482 1.87245 2.34621 1.87245H10.5756C11.0069 1.87245 11.3616 2.22707 11.3616 2.65846V6.63969C11.3616 6.91754 11.5699 7.15517 11.8441 7.18076C12.1585 7.21001 12.4218 6.96141 12.4218 6.65066V2.65846C12.4218 1.63847 11.5919 0.808594 10.5756 0.808594H2.34621C1.35913 0.808594 0.551182 1.57632 0.5 2.55975V13.297C0.551182 14.2768 1.36278 15.0445 2.34621 15.0445H8.05666C8.32354 15.0445 8.55752 14.8544 8.59408 14.5912C8.6416 14.2622 8.38569 13.9807 8.06763 13.9807Z" fill="black"/>
    <path d="M10.2021 10.4166C10.1957 10.3571 10.1674 10.302 10.1227 10.2622L9.66543 9.85794C9.93119 9.46043 10.3107 9.15238 10.7544 8.97407C11.347 8.73465 11.9986 8.74063 12.5868 8.99003C13.175 9.23943 13.6315 9.70431 13.8713 10.2969C13.8908 10.3455 13.9198 10.3898 13.9564 10.4272C13.9931 10.4647 14.0368 10.4945 14.0851 10.515C14.1333 10.5355 14.1851 10.5463 14.2375 10.5467C14.2899 10.5471 14.3419 10.5372 14.3904 10.5176C14.4391 10.498 14.4834 10.4691 14.5208 10.4324C14.5582 10.3957 14.588 10.352 14.6085 10.3038C14.629 10.2556 14.6398 10.2038 14.6403 10.1513C14.6407 10.0989 14.6308 10.047 14.6111 9.9984C14.4552 9.60904 14.2236 9.2545 13.9297 8.9553C13.6357 8.65611 13.2854 8.41821 12.8988 8.2554C12.5132 8.09059 12.0987 8.00382 11.6793 8.00012C11.26 7.99642 10.844 8.07586 10.4555 8.23385C9.89749 8.45854 9.41499 8.83751 9.06447 9.32642L8.598 8.91382C8.56193 8.88167 8.51697 8.86122 8.46904 8.85514C8.42112 8.84906 8.37247 8.85765 8.32952 8.87977C8.28657 8.9019 8.25134 8.93651 8.22846 8.97906C8.20558 9.02161 8.19613 9.0701 8.20135 9.11812L8.35818 10.6105C8.36481 10.6736 8.39624 10.7315 8.44555 10.7715C8.49486 10.8115 8.55802 10.8302 8.62114 10.8236L9.98905 10.68C10.0203 10.6767 10.0507 10.6673 10.0783 10.6522C10.106 10.6372 10.1304 10.6169 10.1502 10.5924C10.17 10.568 10.1847 10.5399 10.1937 10.5097C10.2026 10.4795 10.2055 10.4479 10.2021 10.4166ZM14.718 11.5068L13.3561 11.6983C13.31 11.7047 13.2668 11.7244 13.2318 11.755C13.1967 11.7856 13.1713 11.8257 13.1587 11.8705C13.1461 11.9153 13.1468 11.9628 13.1607 12.0072C13.1747 12.0516 13.2013 12.091 13.2372 12.1205L13.6674 12.4748C13.3661 12.955 12.9032 13.3119 12.3621 13.4811C11.821 13.6503 11.2373 13.6208 10.7161 13.3978C10.4263 13.2758 10.1635 13.0975 9.94311 12.8733C9.72269 12.649 9.54896 12.3832 9.43199 12.0914C9.39241 11.9932 9.31545 11.9148 9.21806 11.8734C9.12066 11.8319 9.0108 11.8309 8.91264 11.8705C8.81448 11.9101 8.73607 11.987 8.69465 12.0844C8.65322 12.1818 8.65219 12.2917 8.69177 12.3898C8.84777 12.7792 9.07947 13.1338 9.37345 13.433C9.66744 13.7321 10.0179 13.97 10.4044 14.1328C10.7987 14.3011 11.2228 14.3879 11.6514 14.3882C12.0614 14.3879 12.4675 14.3085 12.8474 14.1544C13.4343 13.9187 13.9374 13.5131 14.2923 12.9896L14.8086 13.415C14.8459 13.4455 14.8914 13.4641 14.9394 13.4684C14.9874 13.4726 15.0355 13.4623 15.0775 13.4388C15.1195 13.4153 15.1535 13.3796 15.1749 13.3365C15.1964 13.2934 15.2043 13.2448 15.1977 13.1971L14.989 11.7111C14.9801 11.6481 14.9466 11.5912 14.8958 11.5529C14.845 11.5146 14.7811 11.498 14.718 11.5068Z" fill="black"/>
  </g>
  <defs>
    <clipPath id="clip0_257_6894">
      <rect width="16" height="16" fill="white"/>
    </clipPath>
  </defs>
</svg>