<svg width="20" height="20" viewBox="0 0 20 20" fill="none" xmlns="http://www.w3.org/2000/svg">
<path d="M10.425 20H2.8125C1.81435 20 1 19.1778 1 18.1644V1.83565C1 0.824074 1.8162 0 2.8162 0H16.5125C17.5162 0 18.3287 0.824074 18.3287 1.83981V10.8972C18.3287 11.2644 18.0319 11.5634 17.663 11.5634C17.294 11.5634 16.9972 11.2667 16.9972 10.8972V1.84352C16.9972 1.56435 16.7782 1.3375 16.513 1.3375H2.81667C2.54907 1.3375 2.33241 1.56204 2.33241 1.83935V18.1681C2.33241 18.4495 2.54305 18.6699 2.81065 18.6699H10.4231C10.7903 18.6699 11.0889 18.9667 11.0889 19.3356C11.0889 19.7032 10.794 20 10.425 20ZM14.8074 6.58519H4.52315C4.15602 6.58519 3.85694 6.28843 3.85694 5.91944C3.85694 5.55046 4.1537 5.2537 4.52315 5.2537H14.8074C15.1745 5.2537 15.4736 5.55046 15.4736 5.91944C15.4736 6.28843 15.1764 6.58519 14.8074 6.58519ZM10.2356 10.0847H4.52315C4.15602 10.0847 3.85694 9.78796 3.85694 9.41898C3.85694 9.05 4.1537 8.75278 4.52315 8.75278H10.2352C10.6023 8.75278 10.9014 9.04954 10.9014 9.41898C10.9014 9.78796 10.6046 10.0847 10.2356 10.0847ZM14.2352 18.8343C11.9778 18.8343 10.1417 16.9634 10.1417 14.6685C10.1417 14.3014 10.4384 14.0028 10.8074 14.0028C11.1745 14.0028 11.4731 14.2995 11.4731 14.6685C11.4731 16.231 12.7134 17.5023 14.2329 17.5023C14.6213 17.5023 14.9963 17.4204 15.35 17.2602C15.6856 17.1079 16.0806 17.2565 16.2329 17.5903C16.3852 17.9264 16.2366 18.3208 15.9028 18.4731C15.3778 18.7111 14.8171 18.8343 14.2352 18.8343ZM17.6648 15.3343C17.2977 15.3343 16.9986 15.0375 16.9986 14.6681C16.9986 13.1056 15.7583 11.8343 14.2389 11.8343C13.8736 11.8343 13.5162 11.9065 13.1824 12.0491C12.8426 12.1935 12.4519 12.0352 12.3074 11.6977C12.163 11.3579 12.3208 10.9671 12.6588 10.8227C13.1606 10.6097 13.6921 10.5023 14.2389 10.5023C16.4963 10.5023 18.3324 12.3731 18.3324 14.6681C18.3306 15.0356 18.0319 15.3343 17.6648 15.3343ZM13.0926 13.0005H11.9481C11.7176 13.0005 11.5051 12.8815 11.3838 12.6861C11.263 12.4907 11.2509 12.2486 11.3505 12.0398L11.9227 10.8722C12.0361 10.6417 12.2662 10.4991 12.5204 10.4991C12.7764 10.4991 13.0088 10.6435 13.1181 10.8722L13.6903 12.0398C13.7917 12.2468 13.7801 12.4889 13.6569 12.6861C13.538 12.8833 13.3213 13.0005 13.0926 13.0005ZM15.9403 19.0176H15.9171C15.6866 19.0097 15.4759 18.8847 15.3625 18.6856L14.7903 17.6977C14.675 17.4986 14.6713 17.2542 14.7787 17.0514C14.8861 16.8481 15.0931 16.7153 15.3218 16.7L16.6185 16.6102C16.8722 16.5944 17.1125 16.7236 17.2417 16.9421C17.3685 17.163 17.3588 17.4361 17.2185 17.6472L16.494 18.7255C16.3681 18.9083 16.163 19.0176 15.9403 19.0176Z" fill="#262626"/>
</svg>
