<svg xmlns="http://www.w3.org/2000/svg" width="16" height="16" viewBox="0 0 16 16" fill="none">
  <g clip-path="url(#clip0_257_6977)">
    <path d="M3.5 11.5C3.5 11.6326 3.55268 11.7598 3.64645 11.8536C3.74021 11.9473 3.86739 12 4 12C4.13261 12 4.25979 11.9473 4.35355 11.8536C4.44732 11.7598 4.5 11.6326 4.5 11.5C4.5 11.3674 4.44732 11.2402 4.35355 11.1464C4.25979 11.0527 4.13261 11 4 11C3.86739 11 3.74021 11.0527 3.64645 11.1464C3.55268 11.2402 3.5 11.3674 3.5 11.5Z" fill="black"/>
    <path d="M13.625 5.5H11.125V3C11.125 1.625 10 0.5 8.625 0.5C7.25 0.5 6.125 1.625 6.125 3C6.125 5.40625 3.875 5.5 3.625 5.5H2.375C1.34375 5.5 0.5 6.34375 0.5 7.375V13.625C0.5 14.6562 1.34375 15.5 2.375 15.5H3.625C4.09375 15.5 4.53125 15.3125 4.875 15.0312C5.21875 15.3438 5.65625 15.5 6.125 15.5H13C14 15.5 14.8438 14.6875 14.875 13.7188L15.5 7.5V7.375C15.5 6.34375 14.6562 5.5 13.625 5.5ZM4.25 13.625C4.25 13.9688 3.96875 14.25 3.625 14.25H2.375C2.03125 14.25 1.75 13.9688 1.75 13.625V7.375C1.75 7.03125 2.03125 6.75 2.375 6.75H3.625C3.96875 6.75 4.25 7.03125 4.25 7.375V13.625ZM13 14.25H6.125C5.78125 14.25 5.5 13.9688 5.5 13.625V6.28125C6.5 5.78125 7.375 4.78125 7.375 3C7.375 2.3125 7.9375 1.75 8.625 1.75C9.3125 1.75 9.875 2.3125 9.875 3V5.5H9.5625C9.21875 5.5 8.9375 5.78125 8.9375 6.125C8.9375 6.46875 9.21875 6.75 9.5625 6.75H13.625C13.9688 6.75 14.25 7.03125 14.25 7.375L14.2188 7.6875H12.7812C12.4375 7.6875 12.1562 7.96875 12.1562 8.3125C12.1562 8.65625 12.4375 8.9375 12.7812 8.9375H14.0938L14 9.875H12.5938C12.25 9.875 11.9688 10.1562 11.9688 10.5C11.9688 10.8438 12.25 11.125 12.5938 11.125H13.875L13.7812 12.0625H12.375C12.0312 12.0625 11.75 12.3438 11.75 12.6875C11.75 13.0312 12.0312 13.3125 12.375 13.3125H13.6562L13.625 13.625C13.625 13.9688 13.3438 14.25 13 14.25Z" fill="black"/>
  </g>
  <defs>
    <clipPath id="clip0_257_6977">
      <rect width="16" height="16" fill="white"/>
    </clipPath>
  </defs>
</svg>